<svg xmlns="http://www.w3.org/2000/svg" xmlns:xlink="http://www.w3.org/1999/xlink" zoomAndPan="magnify" preserveAspectRatio="xMidYMid meet" version="1.0" viewBox="43.33 141.8 299.98 72.88"><defs><g/><clipPath id="8338d6b15e"><path d="M 252 142 L 277 142 L 277 193.550781 L 252 193.550781 Z M 252 142 " clip-rule="nonzero"/></clipPath><clipPath id="a593adae6b"><path d="M 251.738281 141.800781 L 277.238281 141.800781 L 277.238281 193.550781 L 251.738281 193.550781 Z M 251.738281 141.800781 " clip-rule="nonzero"/></clipPath></defs><g clip-path="url(#8338d6b15e)"><path fill="#ffffff" d="M 259.140625 180.578125 L 260.199219 167.484375 L 268.769531 167.484375 L 269.832031 180.578125 Z M 270.925781 180.578125 L 257.933594 180.578125 C 257.933594 182.6875 256.84375 184.699219 255.382812 186.101562 L 253.742188 187.671875 C 253.242188 187.992188 252.9375 188.574219 252.9375 189.199219 C 252.9375 190.179688 253.671875 190.976562 254.582031 190.976562 L 274.390625 190.964844 C 275.296875 190.964844 276.03125 190.171875 276.03125 189.191406 C 276.03125 188.5625 275.726562 187.980469 275.226562 187.664062 L 273.265625 185.820312 C 271.867188 184.503906 271.152344 182.636719 271.054688 180.636719 Z M 276.917969 192.066406 C 276.917969 191.464844 276.433594 190.976562 275.839844 190.976562 L 253.132812 190.976562 C 252.535156 190.976562 252.050781 191.464844 252.050781 192.066406 C 252.050781 192.667969 252.535156 193.15625 253.132812 193.15625 L 275.839844 193.15625 C 276.433594 193.15625 276.917969 192.667969 276.917969 192.066406 Z M 272.265625 166.15625 C 272.265625 165.417969 271.671875 164.820312 270.941406 164.820312 L 258.027344 164.820312 C 257.296875 164.820312 256.707031 165.417969 256.707031 166.15625 C 256.707031 166.890625 257.296875 167.488281 258.027344 167.488281 L 270.941406 167.488281 C 271.671875 167.488281 272.265625 166.890625 272.265625 166.15625 Z M 271.398438 163.484375 C 271.398438 162.746094 270.808594 162.148438 270.078125 162.148438 L 258.894531 162.148438 C 258.164062 162.148438 257.570312 162.746094 257.570312 163.484375 C 257.570312 164.222656 258.164062 164.820312 258.894531 164.820312 L 270.074219 164.820312 C 270.808594 164.820312 271.398438 164.222656 271.398438 163.484375 Z M 268.109375 148.933594 C 268.109375 148.199219 267.519531 147.601562 266.789062 147.601562 L 262.179688 147.601562 C 261.449219 147.601562 260.859375 148.199219 260.859375 148.933594 C 260.859375 149.671875 261.449219 150.269531 262.179688 150.269531 L 266.789062 150.269531 C 267.519531 150.269531 268.109375 149.671875 268.109375 148.933594 Z M 270.804688 150.269531 L 258.164062 150.269531 C 257.191406 150.269531 256.480469 151.203125 256.734375 152.15625 L 259.390625 162.148438 L 269.582031 162.148438 L 272.238281 152.15625 C 272.488281 151.203125 271.78125 150.269531 270.804688 150.269531 Z M 267.347656 143.917969 L 265.640625 143.917969 L 265.640625 142.191406 L 263.703125 142.191406 L 263.703125 143.917969 L 261.996094 143.917969 L 261.996094 145.878906 L 263.703125 145.878906 L 263.703125 147.601562 L 265.644531 147.601562 L 265.644531 145.875 L 267.347656 145.875 Z M 267.347656 143.917969 " fill-opacity="1" fill-rule="nonzero"/></g><g clip-path="url(#a593adae6b)"><path fill="#010101" d="M 269.832031 180.894531 L 259.140625 180.894531 C 259.054688 180.894531 258.96875 180.859375 258.910156 180.792969 C 258.851562 180.726562 258.820312 180.640625 258.828125 180.550781 L 259.886719 167.457031 C 259.902344 167.292969 260.039062 167.164062 260.203125 167.164062 L 268.769531 167.164062 C 268.933594 167.164062 269.074219 167.292969 269.085938 167.457031 L 270.144531 180.550781 C 270.152344 180.640625 270.121094 180.726562 270.0625 180.792969 C 270 180.859375 269.917969 180.894531 269.832031 180.894531 Z M 259.484375 180.257812 L 269.488281 180.257812 L 268.480469 167.800781 L 260.488281 167.800781 Z M 254.582031 191.292969 C 254.054688 191.292969 253.558594 191.074219 253.1875 190.671875 C 252.824219 190.277344 252.621094 189.757812 252.621094 189.199219 C 252.621094 188.480469 252.976562 187.800781 253.546875 187.421875 L 255.167969 185.871094 C 256.703125 184.398438 257.617188 182.417969 257.617188 180.578125 C 257.617188 180.402344 257.757812 180.257812 257.933594 180.257812 L 270.925781 180.257812 C 270.96875 180.257812 271.015625 180.269531 271.054688 180.285156 L 271.183594 180.34375 C 271.292969 180.394531 271.363281 180.5 271.367188 180.621094 C 271.464844 182.632812 272.214844 184.398438 273.480469 185.585938 L 275.421875 187.410156 C 275.992188 187.789062 276.347656 188.46875 276.347656 189.191406 C 276.347656 190.347656 275.46875 191.285156 274.390625 191.285156 Z M 258.238281 180.894531 C 258.144531 182.835938 257.195312 184.800781 255.597656 186.332031 L 253.960938 187.90625 C 253.945312 187.917969 253.925781 187.929688 253.910156 187.941406 C 253.503906 188.203125 253.253906 188.6875 253.253906 189.199219 C 253.253906 189.59375 253.394531 189.960938 253.648438 190.238281 C 253.898438 190.507812 254.230469 190.65625 254.582031 190.65625 L 274.390625 190.648438 C 275.121094 190.648438 275.71875 189.996094 275.71875 189.191406 C 275.71875 188.675781 275.464844 188.195312 275.058594 187.933594 C 275.042969 187.921875 275.027344 187.910156 275.011719 187.898438 L 273.050781 186.054688 C 271.71875 184.800781 270.90625 182.976562 270.753906 180.898438 L 258.238281 180.898438 Z M 275.839844 193.476562 L 253.132812 193.476562 C 252.363281 193.476562 251.738281 192.84375 251.738281 192.066406 C 251.738281 191.289062 252.363281 190.65625 253.132812 190.65625 L 275.839844 190.65625 C 276.609375 190.65625 277.234375 191.289062 277.234375 192.066406 C 277.234375 192.84375 276.609375 193.476562 275.839844 193.476562 Z M 253.132812 191.292969 C 252.710938 191.292969 252.367188 191.640625 252.367188 192.066406 C 252.367188 192.492188 252.710938 192.839844 253.132812 192.839844 L 275.839844 192.839844 C 276.261719 192.839844 276.601562 192.492188 276.601562 192.066406 C 276.601562 191.640625 276.261719 191.292969 275.839844 191.292969 Z M 270.941406 167.808594 L 258.027344 167.808594 C 257.125 167.808594 256.390625 167.066406 256.390625 166.15625 C 256.390625 165.242188 257.125 164.5 258.027344 164.5 L 270.941406 164.5 C 271.847656 164.5 272.578125 165.242188 272.578125 166.15625 C 272.578125 167.066406 271.847656 167.808594 270.941406 167.808594 Z M 258.027344 165.136719 C 257.472656 165.136719 257.019531 165.59375 257.019531 166.15625 C 257.019531 166.714844 257.472656 167.171875 258.027344 167.171875 L 270.941406 167.171875 C 271.496094 167.171875 271.949219 166.714844 271.949219 166.15625 C 271.949219 165.59375 271.496094 165.136719 270.941406 165.136719 Z M 270.078125 165.136719 L 258.894531 165.136719 C 257.992188 165.136719 257.257812 164.394531 257.257812 163.484375 C 257.257812 162.570312 257.992188 161.832031 258.894531 161.832031 L 270.078125 161.832031 C 270.980469 161.832031 271.714844 162.570312 271.714844 163.484375 C 271.714844 164.394531 270.980469 165.136719 270.078125 165.136719 Z M 258.894531 162.46875 C 258.339844 162.46875 257.886719 162.921875 257.886719 163.484375 C 257.886719 164.042969 258.339844 164.5 258.894531 164.5 L 270.078125 164.5 C 270.632812 164.5 271.082031 164.042969 271.082031 163.484375 C 271.082031 162.921875 270.632812 162.46875 270.078125 162.46875 Z M 266.789062 150.589844 L 262.179688 150.589844 C 261.277344 150.589844 260.542969 149.847656 260.542969 148.933594 C 260.542969 148.023438 261.277344 147.28125 262.179688 147.28125 L 266.789062 147.28125 C 267.691406 147.28125 268.425781 148.023438 268.425781 148.933594 C 268.425781 149.847656 267.691406 150.589844 266.789062 150.589844 Z M 262.179688 147.917969 C 261.625 147.917969 261.175781 148.375 261.175781 148.933594 C 261.175781 149.496094 261.625 149.953125 262.179688 149.953125 L 266.789062 149.953125 C 267.34375 149.953125 267.792969 149.496094 267.792969 148.933594 C 267.792969 148.375 267.34375 147.917969 266.789062 147.917969 Z M 269.582031 162.46875 L 259.390625 162.46875 C 259.246094 162.46875 259.121094 162.371094 259.085938 162.230469 L 256.429688 152.238281 C 256.285156 151.6875 256.398438 151.113281 256.738281 150.664062 C 257.082031 150.210938 257.601562 149.953125 258.164062 149.953125 L 270.804688 149.953125 C 271.367188 149.953125 271.886719 150.210938 272.230469 150.664062 C 272.570312 151.113281 272.683594 151.6875 272.539062 152.238281 L 269.882812 162.230469 C 269.847656 162.371094 269.722656 162.46875 269.582031 162.46875 Z M 259.628906 161.832031 L 269.339844 161.832031 L 271.929688 152.070312 C 272.023438 151.714844 271.953125 151.34375 271.730469 151.050781 C 271.507812 150.757812 271.171875 150.589844 270.804688 150.589844 L 258.164062 150.589844 C 257.796875 150.589844 257.460938 150.757812 257.238281 151.050781 C 257.015625 151.34375 256.945312 151.714844 257.039062 152.070312 Z M 260.363281 158.882812 C 260.53125 158.835938 260.628906 158.660156 260.585938 158.492188 L 259.421875 154.113281 C 259.375 153.941406 259.203125 153.839844 259.035156 153.886719 C 258.867188 153.933594 258.769531 154.105469 258.8125 154.277344 L 259.976562 158.65625 C 260.015625 158.800781 260.140625 158.890625 260.28125 158.890625 C 260.308594 158.894531 260.335938 158.890625 260.363281 158.882812 Z M 265.644531 147.917969 L 263.703125 147.917969 C 263.527344 147.917969 263.386719 147.777344 263.386719 147.601562 L 263.386719 146.195312 L 261.996094 146.195312 C 261.824219 146.195312 261.683594 146.050781 261.683594 145.875 L 261.683594 143.917969 C 261.683594 143.742188 261.824219 143.597656 261.996094 143.597656 L 263.386719 143.597656 L 263.386719 142.191406 C 263.386719 142.015625 263.527344 141.875 263.703125 141.875 L 265.644531 141.875 C 265.816406 141.875 265.957031 142.015625 265.957031 142.191406 L 265.957031 143.597656 L 267.347656 143.597656 C 267.523438 143.597656 267.664062 143.742188 267.664062 143.917969 L 267.664062 145.878906 C 267.664062 146.054688 267.523438 146.195312 267.347656 146.195312 L 265.957031 146.195312 L 265.957031 147.601562 C 265.957031 147.777344 265.816406 147.917969 265.644531 147.917969 Z M 264.019531 147.28125 L 265.328125 147.28125 L 265.328125 145.875 C 265.328125 145.699219 265.46875 145.558594 265.644531 145.558594 L 267.03125 145.558594 L 267.03125 144.234375 L 265.644531 144.234375 C 265.46875 144.234375 265.328125 144.09375 265.328125 143.917969 L 265.328125 142.511719 L 264.019531 142.511719 L 264.019531 143.917969 C 264.019531 144.09375 263.875 144.234375 263.703125 144.234375 L 262.3125 144.234375 L 262.3125 145.558594 L 263.703125 145.558594 C 263.875 145.558594 264.019531 145.703125 264.019531 145.878906 Z M 264.019531 147.28125 " fill-opacity="1" fill-rule="nonzero"/></g><g fill="#ffffff" fill-opacity="1"><g transform="translate(42.15934, 192.615823)"><g><path d="M 17.046875 -19.609375 C 15.335938 -19.609375 13.867188 -18.976562 12.640625 -17.71875 C 11.410156 -16.457031 10.796875 -14.9375 10.796875 -13.15625 C 10.796875 -11.351562 11.410156 -9.816406 12.640625 -8.546875 C 13.867188 -7.285156 15.335938 -6.65625 17.046875 -6.65625 C 17.867188 -6.65625 18.644531 -6.753906 19.375 -6.953125 C 20.113281 -7.160156 20.65625 -7.367188 21 -7.578125 L 21.453125 -7.890625 L 24.53125 -1.59375 C 24.289062 -1.414062 23.957031 -1.195312 23.53125 -0.9375 C 23.101562 -0.6875 22.128906 -0.34375 20.609375 0.09375 C 19.085938 0.539062 17.457031 0.765625 15.71875 0.765625 C 11.863281 0.765625 8.472656 -0.585938 5.546875 -3.296875 C 2.628906 -6.015625 1.171875 -9.269531 1.171875 -13.0625 C 1.171875 -16.882812 2.628906 -20.164062 5.546875 -22.90625 C 8.472656 -25.65625 11.863281 -27.03125 15.71875 -27.03125 C 17.457031 -27.03125 19.0625 -26.828125 20.53125 -26.421875 C 22 -26.015625 23.039062 -25.601562 23.65625 -25.1875 L 24.53125 -24.578125 L 21.453125 -18.375 C 20.328125 -19.195312 18.859375 -19.609375 17.046875 -19.609375 Z M 17.046875 -19.609375 "/></g></g></g><g fill="#ffffff" fill-opacity="1"><g transform="translate(62.48404, 192.615823)"><g><path d="M 3.078125 0 L 3.078125 -44.03125 L 12.140625 -44.03125 L 12.140625 -23.5 L 12.234375 -23.5 C 14.585938 -25.851562 17.097656 -27.03125 19.765625 -27.03125 C 21.054688 -27.03125 22.34375 -26.859375 23.625 -26.515625 C 24.90625 -26.179688 26.132812 -25.65625 27.3125 -24.9375 C 28.488281 -24.21875 29.441406 -23.203125 30.171875 -21.890625 C 30.910156 -20.578125 31.28125 -19.050781 31.28125 -17.3125 L 31.28125 0 L 22.21875 0 L 22.21875 -14.84375 C 22.21875 -16.207031 21.78125 -17.398438 20.90625 -18.421875 C 20.039062 -19.453125 18.910156 -19.96875 17.515625 -19.96875 C 16.148438 -19.96875 14.910156 -19.4375 13.796875 -18.375 C 12.691406 -17.320312 12.140625 -16.144531 12.140625 -14.84375 L 12.140625 0 Z M 3.078125 0 "/></g></g></g><g fill="#ffffff" fill-opacity="1"><g transform="translate(91.512612, 192.615823)"><g><path d="M 29.640625 -11.875 L 10.59375 -11.875 C 10.59375 -10.03125 11.191406 -8.664062 12.390625 -7.78125 C 13.585938 -6.894531 14.882812 -6.453125 16.28125 -6.453125 C 17.75 -6.453125 18.910156 -6.644531 19.765625 -7.03125 C 20.617188 -7.425781 21.59375 -8.207031 22.6875 -9.375 L 29.234375 -6.09375 C 26.503906 -1.519531 21.960938 0.765625 15.609375 0.765625 C 11.648438 0.765625 8.253906 -0.585938 5.421875 -3.296875 C 2.585938 -6.015625 1.171875 -9.285156 1.171875 -13.109375 C 1.171875 -16.929688 2.585938 -20.207031 5.421875 -22.9375 C 8.253906 -25.664062 11.648438 -27.03125 15.609375 -27.03125 C 19.773438 -27.03125 23.164062 -25.828125 25.78125 -23.421875 C 28.394531 -21.015625 29.703125 -17.578125 29.703125 -13.109375 C 29.703125 -12.492188 29.679688 -12.082031 29.640625 -11.875 Z M 10.859375 -16.890625 L 20.84375 -16.890625 C 20.632812 -18.253906 20.09375 -19.300781 19.21875 -20.03125 C 18.351562 -20.769531 17.238281 -21.140625 15.875 -21.140625 C 14.375 -21.140625 13.175781 -20.75 12.28125 -19.96875 C 11.394531 -19.1875 10.921875 -18.160156 10.859375 -16.890625 Z M 10.859375 -16.890625 "/></g></g></g><g fill="#ffffff" fill-opacity="1"><g transform="translate(117.571626, 192.615823)"><g><path d="M 14.484375 -27.03125 C 15.992188 -27.03125 17.476562 -26.859375 18.9375 -26.515625 C 20.40625 -26.179688 21.5 -25.84375 22.21875 -25.5 L 23.296875 -24.984375 L 20.328125 -19.046875 C 18.273438 -20.140625 16.328125 -20.6875 14.484375 -20.6875 C 13.460938 -20.6875 12.738281 -20.570312 12.3125 -20.34375 C 11.882812 -20.125 11.671875 -19.707031 11.671875 -19.09375 C 11.671875 -18.957031 11.6875 -18.820312 11.71875 -18.6875 C 11.757812 -18.550781 11.828125 -18.421875 11.921875 -18.296875 C 12.023438 -18.179688 12.117188 -18.082031 12.203125 -18 C 12.296875 -17.914062 12.441406 -17.820312 12.640625 -17.71875 C 12.847656 -17.613281 13.007812 -17.535156 13.125 -17.484375 C 13.25 -17.429688 13.445312 -17.351562 13.71875 -17.25 C 13.988281 -17.15625 14.191406 -17.082031 14.328125 -17.03125 C 14.472656 -16.976562 14.707031 -16.898438 15.03125 -16.796875 C 15.351562 -16.691406 15.597656 -16.625 15.765625 -16.59375 C 16.828125 -16.28125 17.75 -15.9375 18.53125 -15.5625 C 19.320312 -15.1875 20.148438 -14.675781 21.015625 -14.03125 C 21.890625 -13.382812 22.566406 -12.566406 23.046875 -11.578125 C 23.523438 -10.585938 23.765625 -9.457031 23.765625 -8.1875 C 23.765625 -2.21875 19.613281 0.765625 11.3125 0.765625 C 9.4375 0.765625 7.65625 0.476562 5.96875 -0.09375 C 4.28125 -0.675781 3.054688 -1.257812 2.296875 -1.84375 L 1.171875 -2.765625 L 4.859375 -8.953125 C 5.140625 -8.722656 5.5 -8.441406 5.9375 -8.109375 C 6.382812 -7.785156 7.1875 -7.34375 8.34375 -6.78125 C 9.507812 -6.21875 10.515625 -5.9375 11.359375 -5.9375 C 13.242188 -5.9375 14.1875 -6.566406 14.1875 -7.828125 C 14.1875 -8.410156 13.945312 -8.863281 13.46875 -9.1875 C 12.988281 -9.507812 12.175781 -9.875 11.03125 -10.28125 C 9.882812 -10.695312 8.988281 -11.078125 8.34375 -11.421875 C 6.707031 -12.273438 5.410156 -13.238281 4.453125 -14.3125 C 3.492188 -15.382812 3.015625 -16.8125 3.015625 -18.59375 C 3.015625 -21.25 4.046875 -23.316406 6.109375 -24.796875 C 8.179688 -26.285156 10.972656 -27.03125 14.484375 -27.03125 Z M 14.484375 -27.03125 "/></g></g></g><g fill="#ffffff" fill-opacity="1"><g transform="translate(137.947527, 192.615823)"><g><path d="M 14.484375 -27.03125 C 15.992188 -27.03125 17.476562 -26.859375 18.9375 -26.515625 C 20.40625 -26.179688 21.5 -25.84375 22.21875 -25.5 L 23.296875 -24.984375 L 20.328125 -19.046875 C 18.273438 -20.140625 16.328125 -20.6875 14.484375 -20.6875 C 13.460938 -20.6875 12.738281 -20.570312 12.3125 -20.34375 C 11.882812 -20.125 11.671875 -19.707031 11.671875 -19.09375 C 11.671875 -18.957031 11.6875 -18.820312 11.71875 -18.6875 C 11.757812 -18.550781 11.828125 -18.421875 11.921875 -18.296875 C 12.023438 -18.179688 12.117188 -18.082031 12.203125 -18 C 12.296875 -17.914062 12.441406 -17.820312 12.640625 -17.71875 C 12.847656 -17.613281 13.007812 -17.535156 13.125 -17.484375 C 13.25 -17.429688 13.445312 -17.351562 13.71875 -17.25 C 13.988281 -17.15625 14.191406 -17.082031 14.328125 -17.03125 C 14.472656 -16.976562 14.707031 -16.898438 15.03125 -16.796875 C 15.351562 -16.691406 15.597656 -16.625 15.765625 -16.59375 C 16.828125 -16.28125 17.75 -15.9375 18.53125 -15.5625 C 19.320312 -15.1875 20.148438 -14.675781 21.015625 -14.03125 C 21.890625 -13.382812 22.566406 -12.566406 23.046875 -11.578125 C 23.523438 -10.585938 23.765625 -9.457031 23.765625 -8.1875 C 23.765625 -2.21875 19.613281 0.765625 11.3125 0.765625 C 9.4375 0.765625 7.65625 0.476562 5.96875 -0.09375 C 4.28125 -0.675781 3.054688 -1.257812 2.296875 -1.84375 L 1.171875 -2.765625 L 4.859375 -8.953125 C 5.140625 -8.722656 5.5 -8.441406 5.9375 -8.109375 C 6.382812 -7.785156 7.1875 -7.34375 8.34375 -6.78125 C 9.507812 -6.21875 10.515625 -5.9375 11.359375 -5.9375 C 13.242188 -5.9375 14.1875 -6.566406 14.1875 -7.828125 C 14.1875 -8.410156 13.945312 -8.863281 13.46875 -9.1875 C 12.988281 -9.507812 12.175781 -9.875 11.03125 -10.28125 C 9.882812 -10.695312 8.988281 -11.078125 8.34375 -11.421875 C 6.707031 -12.273438 5.410156 -13.238281 4.453125 -14.3125 C 3.492188 -15.382812 3.015625 -16.8125 3.015625 -18.59375 C 3.015625 -21.25 4.046875 -23.316406 6.109375 -24.796875 C 8.179688 -26.285156 10.972656 -27.03125 14.484375 -27.03125 Z M 14.484375 -27.03125 "/></g></g></g><g fill="#ffffff" fill-opacity="1"><g transform="translate(158.323434, 192.615823)"><g><path d="M 3.078125 0 L 3.078125 -26.265625 L 12.140625 -26.265625 L 12.140625 -23.5 L 12.234375 -23.5 C 14.585938 -25.851562 17.097656 -27.03125 19.765625 -27.03125 C 21.671875 -27.03125 23.460938 -26.640625 25.140625 -25.859375 C 26.816406 -25.078125 28.082031 -23.863281 28.9375 -22.21875 C 31.59375 -25.425781 34.492188 -27.03125 37.640625 -27.03125 C 40.429688 -27.03125 42.832031 -26.242188 44.84375 -24.671875 C 46.863281 -23.109375 47.875 -20.65625 47.875 -17.3125 L 47.875 0 L 38.8125 0 L 38.8125 -14.84375 C 38.8125 -16.25 38.425781 -17.421875 37.65625 -18.359375 C 36.882812 -19.296875 35.734375 -19.765625 34.203125 -19.765625 C 32.867188 -19.765625 31.851562 -19.363281 31.15625 -18.5625 C 30.457031 -17.757812 30.070312 -16.796875 30 -15.671875 L 30 0 L 20.9375 0 L 20.9375 -14.84375 C 20.9375 -16.25 20.550781 -17.421875 19.78125 -18.359375 C 19.019531 -19.296875 17.867188 -19.765625 16.328125 -19.765625 C 14.929688 -19.765625 13.882812 -19.328125 13.1875 -18.453125 C 12.488281 -17.585938 12.140625 -16.554688 12.140625 -15.359375 L 12.140625 0 Z M 3.078125 0 "/></g></g></g><g fill="#ffffff" fill-opacity="1"><g transform="translate(203.940564, 192.615823)"><g><path d="M 4.859375 -3.25 C 2.398438 -5.925781 1.171875 -9.207031 1.171875 -13.09375 C 1.171875 -16.988281 2.398438 -20.285156 4.859375 -22.984375 C 7.316406 -25.679688 10.441406 -27.03125 14.234375 -27.03125 C 17.710938 -27.03125 20.582031 -25.941406 22.84375 -23.765625 L 22.84375 -26.265625 L 31.90625 -26.265625 L 31.90625 0 L 22.9375 0 L 22.9375 -2.96875 L 22.84375 -2.96875 C 20.582031 -0.476562 17.710938 0.765625 14.234375 0.765625 C 10.441406 0.765625 7.316406 -0.570312 4.859375 -3.25 Z M 12.5625 -17.5625 C 11.382812 -16.40625 10.796875 -14.921875 10.796875 -13.109375 C 10.796875 -11.296875 11.359375 -9.816406 12.484375 -8.671875 C 13.617188 -7.535156 15.109375 -6.96875 16.953125 -6.96875 C 18.722656 -6.96875 20.179688 -7.546875 21.328125 -8.703125 C 22.472656 -9.867188 23.046875 -11.335938 23.046875 -13.109375 C 23.046875 -14.921875 22.457031 -16.40625 21.28125 -17.5625 C 20.101562 -18.71875 18.660156 -19.296875 16.953125 -19.296875 C 15.210938 -19.296875 13.75 -18.71875 12.5625 -17.5625 Z M 12.5625 -17.5625 "/></g></g></g><g fill="#ffffff" fill-opacity="1"><g transform="translate(234.095515, 192.615823)"><g><path d="M 14.484375 -27.03125 C 15.992188 -27.03125 17.476562 -26.859375 18.9375 -26.515625 C 20.40625 -26.179688 21.5 -25.84375 22.21875 -25.5 L 23.296875 -24.984375 L 20.328125 -19.046875 C 18.273438 -20.140625 16.328125 -20.6875 14.484375 -20.6875 C 13.460938 -20.6875 12.738281 -20.570312 12.3125 -20.34375 C 11.882812 -20.125 11.671875 -19.707031 11.671875 -19.09375 C 11.671875 -18.957031 11.6875 -18.820312 11.71875 -18.6875 C 11.757812 -18.550781 11.828125 -18.421875 11.921875 -18.296875 C 12.023438 -18.179688 12.117188 -18.082031 12.203125 -18 C 12.296875 -17.914062 12.441406 -17.820312 12.640625 -17.71875 C 12.847656 -17.613281 13.007812 -17.535156 13.125 -17.484375 C 13.25 -17.429688 13.445312 -17.351562 13.71875 -17.25 C 13.988281 -17.15625 14.191406 -17.082031 14.328125 -17.03125 C 14.472656 -16.976562 14.707031 -16.898438 15.03125 -16.796875 C 15.351562 -16.691406 15.597656 -16.625 15.765625 -16.59375 C 16.828125 -16.28125 17.75 -15.9375 18.53125 -15.5625 C 19.320312 -15.1875 20.148438 -14.675781 21.015625 -14.03125 C 21.890625 -13.382812 22.566406 -12.566406 23.046875 -11.578125 C 23.523438 -10.585938 23.765625 -9.457031 23.765625 -8.1875 C 23.765625 -2.21875 19.613281 0.765625 11.3125 0.765625 C 9.4375 0.765625 7.65625 0.476562 5.96875 -0.09375 C 4.28125 -0.675781 3.054688 -1.257812 2.296875 -1.84375 L 1.171875 -2.765625 L 4.859375 -8.953125 C 5.140625 -8.722656 5.5 -8.441406 5.9375 -8.109375 C 6.382812 -7.785156 7.1875 -7.34375 8.34375 -6.78125 C 9.507812 -6.21875 10.515625 -5.9375 11.359375 -5.9375 C 13.242188 -5.9375 14.1875 -6.566406 14.1875 -7.828125 C 14.1875 -8.410156 13.945312 -8.863281 13.46875 -9.1875 C 12.988281 -9.507812 12.175781 -9.875 11.03125 -10.28125 C 9.882812 -10.695312 8.988281 -11.078125 8.34375 -11.421875 C 6.707031 -12.273438 5.410156 -13.238281 4.453125 -14.3125 C 3.492188 -15.382812 3.015625 -16.8125 3.015625 -18.59375 C 3.015625 -21.25 4.046875 -23.316406 6.109375 -24.796875 C 8.179688 -26.285156 10.972656 -27.03125 14.484375 -27.03125 Z M 14.484375 -27.03125 "/></g></g></g><g fill="#ffffff" fill-opacity="1"><g transform="translate(254.479643, 192.615823)"><g/></g></g><g fill="#ffffff" fill-opacity="1"><g transform="translate(263.642909, 192.615823)"><g/></g></g><g fill="#ffffff" fill-opacity="1"><g transform="translate(272.807766, 192.615823)"><g><path d="M 29.640625 -11.875 L 10.59375 -11.875 C 10.59375 -10.03125 11.191406 -8.664062 12.390625 -7.78125 C 13.585938 -6.894531 14.882812 -6.453125 16.28125 -6.453125 C 17.75 -6.453125 18.910156 -6.644531 19.765625 -7.03125 C 20.617188 -7.425781 21.59375 -8.207031 22.6875 -9.375 L 29.234375 -6.09375 C 26.503906 -1.519531 21.960938 0.765625 15.609375 0.765625 C 11.648438 0.765625 8.253906 -0.585938 5.421875 -3.296875 C 2.585938 -6.015625 1.171875 -9.285156 1.171875 -13.109375 C 1.171875 -16.929688 2.585938 -20.207031 5.421875 -22.9375 C 8.253906 -25.664062 11.648438 -27.03125 15.609375 -27.03125 C 19.773438 -27.03125 23.164062 -25.828125 25.78125 -23.421875 C 28.394531 -21.015625 29.703125 -17.578125 29.703125 -13.109375 C 29.703125 -12.492188 29.679688 -12.082031 29.640625 -11.875 Z M 10.859375 -16.890625 L 20.84375 -16.890625 C 20.632812 -18.253906 20.09375 -19.300781 19.21875 -20.03125 C 18.351562 -20.769531 17.238281 -21.140625 15.875 -21.140625 C 14.375 -21.140625 13.175781 -20.75 12.28125 -19.96875 C 11.394531 -19.1875 10.921875 -18.160156 10.859375 -16.890625 Z M 10.859375 -16.890625 "/></g></g></g><g fill="#ffffff" fill-opacity="1"><g transform="translate(298.86678, 192.615823)"><g><path d="M 3.078125 0 L 3.078125 -26.265625 L 12.140625 -26.265625 L 12.140625 -22.484375 L 12.234375 -22.484375 C 12.304688 -22.617188 12.414062 -22.785156 12.5625 -22.984375 C 12.71875 -23.191406 13.050781 -23.550781 13.5625 -24.0625 C 14.082031 -24.570312 14.628906 -25.03125 15.203125 -25.4375 C 15.785156 -25.851562 16.535156 -26.222656 17.453125 -26.546875 C 18.378906 -26.867188 19.320312 -27.03125 20.28125 -27.03125 C 21.269531 -27.03125 22.238281 -26.894531 23.1875 -26.625 C 24.144531 -26.351562 24.847656 -26.082031 25.296875 -25.8125 L 26.015625 -25.390625 L 22.21875 -17.71875 C 21.09375 -18.675781 19.523438 -19.15625 17.515625 -19.15625 C 16.421875 -19.15625 15.476562 -18.914062 14.6875 -18.4375 C 13.90625 -17.957031 13.351562 -17.375 13.03125 -16.6875 C 12.707031 -16.007812 12.476562 -15.429688 12.34375 -14.953125 C 12.207031 -14.472656 12.140625 -14.097656 12.140625 -13.828125 L 12.140625 0 Z M 3.078125 0 "/></g></g></g><g fill="#ffffff" fill-opacity="1"><g transform="translate(319.549875, 192.615823)"><g><path d="M 14.484375 -27.03125 C 15.992188 -27.03125 17.476562 -26.859375 18.9375 -26.515625 C 20.40625 -26.179688 21.5 -25.84375 22.21875 -25.5 L 23.296875 -24.984375 L 20.328125 -19.046875 C 18.273438 -20.140625 16.328125 -20.6875 14.484375 -20.6875 C 13.460938 -20.6875 12.738281 -20.570312 12.3125 -20.34375 C 11.882812 -20.125 11.671875 -19.707031 11.671875 -19.09375 C 11.671875 -18.957031 11.6875 -18.820312 11.71875 -18.6875 C 11.757812 -18.550781 11.828125 -18.421875 11.921875 -18.296875 C 12.023438 -18.179688 12.117188 -18.082031 12.203125 -18 C 12.296875 -17.914062 12.441406 -17.820312 12.640625 -17.71875 C 12.847656 -17.613281 13.007812 -17.535156 13.125 -17.484375 C 13.25 -17.429688 13.445312 -17.351562 13.71875 -17.25 C 13.988281 -17.15625 14.191406 -17.082031 14.328125 -17.03125 C 14.472656 -16.976562 14.707031 -16.898438 15.03125 -16.796875 C 15.351562 -16.691406 15.597656 -16.625 15.765625 -16.59375 C 16.828125 -16.28125 17.75 -15.9375 18.53125 -15.5625 C 19.320312 -15.1875 20.148438 -14.675781 21.015625 -14.03125 C 21.890625 -13.382812 22.566406 -12.566406 23.046875 -11.578125 C 23.523438 -10.585938 23.765625 -9.457031 23.765625 -8.1875 C 23.765625 -2.21875 19.613281 0.765625 11.3125 0.765625 C 9.4375 0.765625 7.65625 0.476562 5.96875 -0.09375 C 4.28125 -0.675781 3.054688 -1.257812 2.296875 -1.84375 L 1.171875 -2.765625 L 4.859375 -8.953125 C 5.140625 -8.722656 5.5 -8.441406 5.9375 -8.109375 C 6.382812 -7.785156 7.1875 -7.34375 8.34375 -6.78125 C 9.507812 -6.21875 10.515625 -5.9375 11.359375 -5.9375 C 13.242188 -5.9375 14.1875 -6.566406 14.1875 -7.828125 C 14.1875 -8.410156 13.945312 -8.863281 13.46875 -9.1875 C 12.988281 -9.507812 12.175781 -9.875 11.03125 -10.28125 C 9.882812 -10.695312 8.988281 -11.078125 8.34375 -11.421875 C 6.707031 -12.273438 5.410156 -13.238281 4.453125 -14.3125 C 3.492188 -15.382812 3.015625 -16.8125 3.015625 -18.59375 C 3.015625 -21.25 4.046875 -23.316406 6.109375 -24.796875 C 8.179688 -26.285156 10.972656 -27.03125 14.484375 -27.03125 Z M 14.484375 -27.03125 "/></g></g></g><g fill="#ffffff" fill-opacity="1"><g transform="translate(126.070207, 212.619406)"><g><path d="M 6.9375 -5.5 C 8.132812 -5.5 8.734375 -4.75 8.734375 -3.25 L 8.734375 -0.5 C 8.734375 -0.351562 8.6875 -0.234375 8.59375 -0.140625 C 8.507812 -0.046875 8.394531 0 8.25 0 C 8.101562 0 7.984375 -0.046875 7.890625 -0.140625 C 7.796875 -0.234375 7.75 -0.351562 7.75 -0.5 L 7.75 -3.234375 C 7.75 -4.140625 7.375 -4.59375 6.625 -4.59375 C 6.351562 -4.59375 6.109375 -4.53125 5.890625 -4.40625 C 5.671875 -4.289062 5.5 -4.128906 5.375 -3.921875 C 5.257812 -3.710938 5.203125 -3.484375 5.203125 -3.234375 L 5.203125 -0.5 C 5.203125 -0.351562 5.15625 -0.234375 5.0625 -0.140625 C 4.96875 -0.046875 4.851562 0 4.71875 0 C 4.570312 0 4.453125 -0.046875 4.359375 -0.140625 C 4.273438 -0.234375 4.234375 -0.351562 4.234375 -0.5 L 4.234375 -3.25 C 4.234375 -3.65625 4.144531 -3.976562 3.96875 -4.21875 C 3.800781 -4.46875 3.515625 -4.59375 3.109375 -4.59375 C 2.703125 -4.59375 2.367188 -4.460938 2.109375 -4.203125 C 1.847656 -3.941406 1.71875 -3.625 1.71875 -3.25 L 1.71875 -0.5 C 1.71875 -0.351562 1.671875 -0.234375 1.578125 -0.140625 C 1.484375 -0.046875 1.363281 0 1.21875 0 C 1.070312 0 0.953125 -0.046875 0.859375 -0.140625 C 0.773438 -0.234375 0.734375 -0.351562 0.734375 -0.5 L 0.734375 -4.90625 C 0.734375 -5.039062 0.78125 -5.15625 0.875 -5.25 C 0.96875 -5.351562 1.082031 -5.40625 1.21875 -5.40625 C 1.363281 -5.40625 1.484375 -5.351562 1.578125 -5.25 C 1.671875 -5.15625 1.71875 -5.039062 1.71875 -4.90625 L 1.71875 -4.546875 C 1.894531 -4.816406 2.128906 -5.039062 2.421875 -5.21875 C 2.722656 -5.40625 3.050781 -5.5 3.40625 -5.5 C 4.257812 -5.5 4.8125 -5.117188 5.0625 -4.359375 C 5.21875 -4.648438 5.46875 -4.910156 5.8125 -5.140625 C 6.164062 -5.378906 6.539062 -5.5 6.9375 -5.5 Z M 6.9375 -5.5 "/></g></g></g><g fill="#ffffff" fill-opacity="1"><g transform="translate(142.246527, 212.619406)"><g><path d="M 4.75 -5.40625 C 4.894531 -5.40625 5.015625 -5.351562 5.109375 -5.25 C 5.203125 -5.15625 5.25 -5.039062 5.25 -4.90625 L 5.25 -2.171875 C 5.25 -1.453125 5.050781 -0.894531 4.65625 -0.5 C 4.257812 -0.101562 3.703125 0.09375 2.984375 0.09375 C 2.265625 0.09375 1.707031 -0.101562 1.3125 -0.5 C 0.925781 -0.894531 0.734375 -1.453125 0.734375 -2.171875 L 0.734375 -4.90625 C 0.734375 -5.039062 0.78125 -5.15625 0.875 -5.25 C 0.96875 -5.351562 1.082031 -5.40625 1.21875 -5.40625 C 1.363281 -5.40625 1.484375 -5.351562 1.578125 -5.25 C 1.671875 -5.15625 1.71875 -5.039062 1.71875 -4.90625 L 1.71875 -2.171875 C 1.71875 -1.265625 2.140625 -0.8125 2.984375 -0.8125 C 3.398438 -0.8125 3.71875 -0.925781 3.9375 -1.15625 C 4.15625 -1.382812 4.265625 -1.722656 4.265625 -2.171875 L 4.265625 -4.90625 C 4.265625 -5.039062 4.3125 -5.15625 4.40625 -5.25 C 4.5 -5.351562 4.613281 -5.40625 4.75 -5.40625 Z M 4.75 -5.40625 "/></g></g></g><g fill="#ffffff" fill-opacity="1"><g transform="translate(154.941188, 212.619406)"><g><path d="M 1.796875 -0.5 C 1.796875 -0.351562 1.742188 -0.234375 1.640625 -0.140625 C 1.546875 -0.046875 1.429688 0 1.296875 0 C 1.160156 0 1.046875 -0.046875 0.953125 -0.140625 C 0.859375 -0.234375 0.8125 -0.351562 0.8125 -0.5 L 0.8125 -7.140625 C 0.8125 -7.273438 0.859375 -7.390625 0.953125 -7.484375 C 1.054688 -7.578125 1.175781 -7.625 1.3125 -7.625 C 1.445312 -7.625 1.5625 -7.578125 1.65625 -7.484375 C 1.75 -7.390625 1.796875 -7.273438 1.796875 -7.140625 Z M 1.796875 -0.5 "/></g></g></g><g fill="#ffffff" fill-opacity="1"><g transform="translate(164.26751, 212.619406)"><g><path d="M 2.203125 -4.4375 L 2.203125 -1.375 C 2.203125 -1.03125 2.351562 -0.859375 2.65625 -0.859375 C 2.707031 -0.859375 2.773438 -0.867188 2.859375 -0.890625 C 2.941406 -0.910156 3.003906 -0.921875 3.046875 -0.921875 C 3.140625 -0.921875 3.21875 -0.882812 3.28125 -0.8125 C 3.34375 -0.738281 3.375 -0.644531 3.375 -0.53125 C 3.375 -0.382812 3.289062 -0.257812 3.125 -0.15625 C 2.957031 -0.0507812 2.769531 0 2.5625 0 C 2.34375 0 2.132812 -0.0195312 1.9375 -0.0625 C 1.75 -0.113281 1.582031 -0.238281 1.4375 -0.4375 C 1.289062 -0.632812 1.21875 -0.929688 1.21875 -1.328125 L 1.21875 -4.4375 L 0.625 -4.4375 C 0.488281 -4.4375 0.378906 -4.476562 0.296875 -4.5625 C 0.210938 -4.65625 0.171875 -4.769531 0.171875 -4.90625 C 0.171875 -5.03125 0.210938 -5.132812 0.296875 -5.21875 C 0.378906 -5.300781 0.488281 -5.34375 0.625 -5.34375 L 1.21875 -5.34375 L 1.21875 -6.203125 C 1.21875 -6.347656 1.265625 -6.46875 1.359375 -6.5625 C 1.453125 -6.65625 1.570312 -6.703125 1.71875 -6.703125 C 1.851562 -6.703125 1.96875 -6.65625 2.0625 -6.5625 C 2.15625 -6.46875 2.203125 -6.347656 2.203125 -6.203125 L 2.203125 -5.34375 L 3.046875 -5.34375 C 3.179688 -5.34375 3.289062 -5.296875 3.375 -5.203125 C 3.457031 -5.117188 3.5 -5.015625 3.5 -4.890625 C 3.5 -4.753906 3.457031 -4.644531 3.375 -4.5625 C 3.289062 -4.476562 3.179688 -4.4375 3.046875 -4.4375 Z M 2.203125 -4.4375 "/></g></g></g><g fill="#ffffff" fill-opacity="1"><g transform="translate(174.902029, 212.619406)"><g><path d="M 1.65625 -0.5 C 1.65625 -0.351562 1.609375 -0.234375 1.515625 -0.140625 C 1.421875 -0.046875 1.304688 0 1.171875 0 C 1.023438 0 0.90625 -0.046875 0.8125 -0.140625 C 0.726562 -0.234375 0.6875 -0.351562 0.6875 -0.5 L 0.6875 -4.953125 C 0.6875 -5.097656 0.726562 -5.21875 0.8125 -5.3125 C 0.90625 -5.40625 1.023438 -5.453125 1.171875 -5.453125 C 1.304688 -5.453125 1.421875 -5.40625 1.515625 -5.3125 C 1.609375 -5.21875 1.65625 -5.097656 1.65625 -4.953125 Z M 1.15625 -6.140625 C 0.957031 -6.140625 0.816406 -6.175781 0.734375 -6.25 C 0.648438 -6.320312 0.609375 -6.4375 0.609375 -6.59375 L 0.609375 -6.75 C 0.609375 -6.914062 0.65625 -7.03125 0.75 -7.09375 C 0.84375 -7.164062 0.984375 -7.203125 1.171875 -7.203125 C 1.359375 -7.203125 1.492188 -7.164062 1.578125 -7.09375 C 1.671875 -7.019531 1.71875 -6.90625 1.71875 -6.75 L 1.71875 -6.59375 C 1.71875 -6.425781 1.671875 -6.304688 1.578125 -6.234375 C 1.492188 -6.171875 1.351562 -6.140625 1.15625 -6.140625 Z M 1.15625 -6.140625 "/></g></g></g><g fill="#ffffff" fill-opacity="1"><g transform="translate(183.960525, 212.619406)"><g><path d="M 3.4375 -5.5 C 3.90625 -5.5 4.328125 -5.378906 4.703125 -5.140625 C 5.085938 -4.898438 5.390625 -4.566406 5.609375 -4.140625 C 5.828125 -3.710938 5.9375 -3.234375 5.9375 -2.703125 C 5.9375 -2.160156 5.828125 -1.675781 5.609375 -1.25 C 5.390625 -0.832031 5.085938 -0.503906 4.703125 -0.265625 C 4.328125 -0.0234375 3.914062 0.09375 3.46875 0.09375 C 3.101562 0.09375 2.765625 0.015625 2.453125 -0.140625 C 2.148438 -0.296875 1.90625 -0.488281 1.71875 -0.71875 L 1.71875 1.5625 C 1.71875 1.707031 1.671875 1.828125 1.578125 1.921875 C 1.484375 2.015625 1.363281 2.0625 1.21875 2.0625 C 1.082031 2.0625 0.96875 2.015625 0.875 1.921875 C 0.78125 1.828125 0.734375 1.707031 0.734375 1.5625 L 0.734375 -4.921875 C 0.734375 -5.066406 0.773438 -5.1875 0.859375 -5.28125 C 0.953125 -5.375 1.070312 -5.421875 1.21875 -5.421875 C 1.363281 -5.421875 1.484375 -5.375 1.578125 -5.28125 C 1.671875 -5.1875 1.71875 -5.066406 1.71875 -4.921875 L 1.71875 -4.625 C 1.875 -4.863281 2.109375 -5.066406 2.421875 -5.234375 C 2.742188 -5.410156 3.082031 -5.5 3.4375 -5.5 Z M 3.328125 -0.8125 C 3.648438 -0.8125 3.9375 -0.894531 4.1875 -1.0625 C 4.4375 -1.226562 4.628906 -1.453125 4.765625 -1.734375 C 4.910156 -2.023438 4.984375 -2.347656 4.984375 -2.703125 C 4.984375 -3.054688 4.910156 -3.375 4.765625 -3.65625 C 4.628906 -3.945312 4.4375 -4.175781 4.1875 -4.34375 C 3.9375 -4.507812 3.648438 -4.59375 3.328125 -4.59375 C 3.003906 -4.59375 2.710938 -4.507812 2.453125 -4.34375 C 2.203125 -4.1875 2.003906 -3.960938 1.859375 -3.671875 C 1.722656 -3.378906 1.65625 -3.054688 1.65625 -2.703125 C 1.65625 -2.347656 1.722656 -2.023438 1.859375 -1.734375 C 2.003906 -1.441406 2.203125 -1.210938 2.453125 -1.046875 C 2.710938 -0.890625 3.003906 -0.8125 3.328125 -0.8125 Z M 3.328125 -0.8125 "/></g></g></g><g fill="#ffffff" fill-opacity="1"><g transform="translate(197.005421, 212.619406)"><g><path d="M 5.109375 -5.46875 C 5.253906 -5.46875 5.375 -5.421875 5.46875 -5.328125 C 5.5625 -5.242188 5.609375 -5.125 5.609375 -4.96875 L 5.609375 -0.5 C 5.609375 -0.351562 5.5625 -0.234375 5.46875 -0.140625 C 5.375 -0.046875 5.253906 0 5.109375 0 C 4.972656 0 4.859375 -0.046875 4.765625 -0.140625 C 4.671875 -0.234375 4.625 -0.351562 4.625 -0.5 L 4.625 -0.765625 C 4.445312 -0.523438 4.203125 -0.316406 3.890625 -0.140625 C 3.585938 0.0234375 3.253906 0.109375 2.890625 0.109375 C 2.429688 0.109375 2.007812 -0.0078125 1.625 -0.25 C 1.238281 -0.5 0.9375 -0.835938 0.71875 -1.265625 C 0.507812 -1.691406 0.40625 -2.175781 0.40625 -2.71875 C 0.40625 -3.25 0.507812 -3.726562 0.71875 -4.15625 C 0.9375 -4.59375 1.234375 -4.929688 1.609375 -5.171875 C 1.992188 -5.410156 2.410156 -5.53125 2.859375 -5.53125 C 3.222656 -5.53125 3.5625 -5.453125 3.875 -5.296875 C 4.195312 -5.148438 4.445312 -4.957031 4.625 -4.71875 L 4.625 -4.96875 C 4.625 -5.113281 4.671875 -5.234375 4.765625 -5.328125 C 4.859375 -5.421875 4.972656 -5.46875 5.109375 -5.46875 Z M 3.015625 -0.796875 C 3.335938 -0.796875 3.625 -0.878906 3.875 -1.046875 C 4.125 -1.210938 4.316406 -1.441406 4.453125 -1.734375 C 4.597656 -2.023438 4.671875 -2.351562 4.671875 -2.71875 C 4.671875 -3.070312 4.597656 -3.390625 4.453125 -3.671875 C 4.316406 -3.960938 4.125 -4.191406 3.875 -4.359375 C 3.625 -4.535156 3.335938 -4.625 3.015625 -4.625 C 2.691406 -4.625 2.40625 -4.539062 2.15625 -4.375 C 1.90625 -4.207031 1.707031 -3.976562 1.5625 -3.6875 C 1.414062 -3.40625 1.34375 -3.082031 1.34375 -2.71875 C 1.34375 -2.351562 1.414062 -2.023438 1.5625 -1.734375 C 1.707031 -1.441406 1.90625 -1.210938 2.15625 -1.046875 C 2.40625 -0.878906 2.691406 -0.796875 3.015625 -0.796875 Z M 3.015625 -0.796875 "/></g></g></g><g fill="#ffffff" fill-opacity="1"><g transform="translate(210.050317, 212.619406)"><g><path d="M 1.796875 -0.5 C 1.796875 -0.351562 1.742188 -0.234375 1.640625 -0.140625 C 1.546875 -0.046875 1.429688 0 1.296875 0 C 1.160156 0 1.046875 -0.046875 0.953125 -0.140625 C 0.859375 -0.234375 0.8125 -0.351562 0.8125 -0.5 L 0.8125 -7.140625 C 0.8125 -7.273438 0.859375 -7.390625 0.953125 -7.484375 C 1.054688 -7.578125 1.175781 -7.625 1.3125 -7.625 C 1.445312 -7.625 1.5625 -7.578125 1.65625 -7.484375 C 1.75 -7.390625 1.796875 -7.273438 1.796875 -7.140625 Z M 1.796875 -0.5 "/></g></g></g><g fill="#ffffff" fill-opacity="1"><g transform="translate(219.376639, 212.619406)"><g><path d="M 4.75 -5.453125 C 4.894531 -5.453125 5.015625 -5.40625 5.109375 -5.3125 C 5.203125 -5.21875 5.25 -5.097656 5.25 -4.953125 L 5.25 -0.5 C 5.25 0.351562 5.007812 0.992188 4.53125 1.421875 C 4.0625 1.847656 3.4375 2.0625 2.65625 2.0625 C 2.40625 2.0625 2.15625 2.035156 1.90625 1.984375 C 1.65625 1.941406 1.453125 1.878906 1.296875 1.796875 C 1.046875 1.679688 0.921875 1.519531 0.921875 1.3125 C 0.921875 1.28125 0.925781 1.238281 0.9375 1.1875 C 0.976562 1.070312 1.035156 0.984375 1.109375 0.921875 C 1.191406 0.859375 1.28125 0.828125 1.375 0.828125 C 1.425781 0.828125 1.476562 0.835938 1.53125 0.859375 C 1.738281 0.953125 1.925781 1.023438 2.09375 1.078125 C 2.257812 1.140625 2.453125 1.171875 2.671875 1.171875 C 3.734375 1.171875 4.265625 0.625 4.265625 -0.46875 L 4.265625 -0.6875 C 4.078125 -0.4375 3.835938 -0.238281 3.546875 -0.09375 C 3.253906 0.0390625 2.921875 0.109375 2.546875 0.109375 C 1.972656 0.109375 1.523438 -0.0703125 1.203125 -0.4375 C 0.890625 -0.800781 0.734375 -1.28125 0.734375 -1.875 L 0.734375 -4.953125 C 0.734375 -5.097656 0.773438 -5.21875 0.859375 -5.3125 C 0.953125 -5.40625 1.070312 -5.453125 1.21875 -5.453125 C 1.363281 -5.453125 1.484375 -5.40625 1.578125 -5.3125 C 1.671875 -5.21875 1.71875 -5.097656 1.71875 -4.953125 L 1.71875 -2.140625 C 1.71875 -1.679688 1.816406 -1.34375 2.015625 -1.125 C 2.210938 -0.90625 2.515625 -0.796875 2.921875 -0.796875 C 3.304688 -0.796875 3.625 -0.921875 3.875 -1.171875 C 4.132812 -1.421875 4.265625 -1.742188 4.265625 -2.140625 L 4.265625 -4.953125 C 4.265625 -5.097656 4.304688 -5.21875 4.390625 -5.3125 C 4.484375 -5.40625 4.601562 -5.453125 4.75 -5.453125 Z M 4.75 -5.453125 "/></g></g></g><g fill="#ffffff" fill-opacity="1"><g transform="translate(232.061007, 212.619406)"><g><path d="M 5.46875 -2.90625 C 5.46875 -2.78125 5.414062 -2.675781 5.3125 -2.59375 C 5.21875 -2.507812 5.109375 -2.46875 4.984375 -2.46875 L 1.34375 -2.46875 C 1.394531 -1.96875 1.585938 -1.5625 1.921875 -1.25 C 2.253906 -0.945312 2.660156 -0.796875 3.140625 -0.796875 C 3.472656 -0.796875 3.742188 -0.84375 3.953125 -0.9375 C 4.160156 -1.039062 4.34375 -1.164062 4.5 -1.3125 C 4.601562 -1.375 4.703125 -1.40625 4.796875 -1.40625 C 4.910156 -1.40625 5.003906 -1.363281 5.078125 -1.28125 C 5.160156 -1.207031 5.203125 -1.113281 5.203125 -1 C 5.203125 -0.851562 5.132812 -0.722656 5 -0.609375 C 4.800781 -0.410156 4.535156 -0.238281 4.203125 -0.09375 C 3.878906 0.0390625 3.546875 0.109375 3.203125 0.109375 C 2.640625 0.109375 2.144531 -0.00390625 1.71875 -0.234375 C 1.300781 -0.472656 0.976562 -0.800781 0.75 -1.21875 C 0.519531 -1.644531 0.40625 -2.125 0.40625 -2.65625 C 0.40625 -3.226562 0.519531 -3.734375 0.75 -4.171875 C 0.988281 -4.609375 1.300781 -4.941406 1.6875 -5.171875 C 2.082031 -5.410156 2.503906 -5.53125 2.953125 -5.53125 C 3.390625 -5.53125 3.800781 -5.414062 4.1875 -5.1875 C 4.570312 -4.957031 4.878906 -4.644531 5.109375 -4.25 C 5.347656 -3.851562 5.46875 -3.40625 5.46875 -2.90625 Z M 2.953125 -4.625 C 2.566406 -4.625 2.234375 -4.515625 1.953125 -4.296875 C 1.671875 -4.078125 1.484375 -3.742188 1.390625 -3.296875 L 4.4375 -3.296875 L 4.4375 -3.375 C 4.40625 -3.738281 4.238281 -4.035156 3.9375 -4.265625 C 3.644531 -4.503906 3.316406 -4.625 2.953125 -4.625 Z M 2.953125 -4.625 "/></g></g></g><g fill="#ffffff" fill-opacity="1"><g transform="translate(244.652665, 212.619406)"><g><path d="M 3.421875 -5.53125 C 3.597656 -5.53125 3.75 -5.484375 3.875 -5.390625 C 4.007812 -5.296875 4.078125 -5.179688 4.078125 -5.046875 C 4.078125 -4.878906 4.035156 -4.75 3.953125 -4.65625 C 3.867188 -4.570312 3.765625 -4.53125 3.640625 -4.53125 C 3.578125 -4.53125 3.484375 -4.550781 3.359375 -4.59375 C 3.210938 -4.644531 3.097656 -4.671875 3.015625 -4.671875 C 2.804688 -4.671875 2.597656 -4.597656 2.390625 -4.453125 C 2.191406 -4.304688 2.03125 -4.101562 1.90625 -3.84375 C 1.78125 -3.582031 1.71875 -3.296875 1.71875 -2.984375 L 1.71875 -0.5 C 1.71875 -0.351562 1.671875 -0.234375 1.578125 -0.140625 C 1.484375 -0.046875 1.363281 0 1.21875 0 C 1.070312 0 0.953125 -0.046875 0.859375 -0.140625 C 0.773438 -0.234375 0.734375 -0.351562 0.734375 -0.5 L 0.734375 -4.90625 C 0.734375 -5.039062 0.78125 -5.15625 0.875 -5.25 C 0.96875 -5.351562 1.082031 -5.40625 1.21875 -5.40625 C 1.363281 -5.40625 1.484375 -5.351562 1.578125 -5.25 C 1.671875 -5.15625 1.71875 -5.039062 1.71875 -4.90625 L 1.71875 -4.390625 C 1.863281 -4.722656 2.085938 -4.992188 2.390625 -5.203125 C 2.691406 -5.410156 3.035156 -5.519531 3.421875 -5.53125 Z M 3.421875 -5.53125 "/></g></g></g></svg>