<svg xmlns="http://www.w3.org/2000/svg" xmlns:xlink="http://www.w3.org/1999/xlink" width="300" zoomAndPan="magnify" viewBox="0 0 224.87999 299.999988" height="400" preserveAspectRatio="xMidYMid meet" version="1.2"><defs><clipPath id="2767240730"><path d="M 110 0.078125 L 127 0.078125 L 127 16 L 110 16 Z M 110 0.078125 "/></clipPath><clipPath id="940355e120"><path d="M 51.019531 248 L 185.945312 248 L 185.945312 299.917969 L 51.019531 299.917969 Z M 51.019531 248 "/></clipPath></defs><g id="021dab380f"><g clip-rule="nonzero" clip-path="url(#2767240730)"><path style=" stroke:none;fill-rule:nonzero;fill:#000000;fill-opacity:1;" d="M 126.476562 8.027344 C 126.476562 8.546875 126.425781 9.0625 126.324219 9.574219 C 126.222656 10.085938 126.070312 10.582031 125.871094 11.0625 C 125.667969 11.542969 125.425781 12 125.132812 12.433594 C 124.84375 12.867188 124.515625 13.269531 124.144531 13.636719 C 123.777344 14.003906 123.375 14.332031 122.9375 14.625 C 122.503906 14.914062 122.046875 15.15625 121.5625 15.355469 C 121.082031 15.554688 120.582031 15.707031 120.070312 15.808594 C 119.558594 15.910156 119.042969 15.960938 118.519531 15.960938 C 117.996094 15.960938 117.480469 15.910156 116.964844 15.808594 C 116.453125 15.707031 115.957031 15.554688 115.472656 15.355469 C 114.992188 15.15625 114.53125 14.914062 114.097656 14.625 C 113.664062 14.332031 113.261719 14.003906 112.890625 13.636719 C 112.523438 13.269531 112.191406 12.867188 111.902344 12.433594 C 111.613281 12 111.367188 11.542969 111.167969 11.0625 C 110.96875 10.582031 110.816406 10.085938 110.714844 9.574219 C 110.613281 9.0625 110.5625 8.546875 110.5625 8.027344 C 110.5625 7.503906 110.613281 6.988281 110.714844 6.476562 C 110.816406 5.964844 110.96875 5.46875 111.167969 4.988281 C 111.367188 4.507812 111.613281 4.050781 111.902344 3.617188 C 112.191406 3.183594 112.523438 2.785156 112.890625 2.414062 C 113.261719 2.046875 113.664062 1.71875 114.097656 1.429688 C 114.53125 1.140625 114.992188 0.894531 115.472656 0.695312 C 115.957031 0.496094 116.453125 0.34375 116.964844 0.242188 C 117.480469 0.140625 117.996094 0.0898438 118.519531 0.0898438 C 119.042969 0.0898438 119.558594 0.140625 120.070312 0.242188 C 120.582031 0.34375 121.082031 0.496094 121.5625 0.695312 C 122.046875 0.894531 122.503906 1.140625 122.9375 1.429688 C 123.375 1.71875 123.777344 2.046875 124.144531 2.414062 C 124.515625 2.785156 124.84375 3.183594 125.132812 3.617188 C 125.425781 4.050781 125.667969 4.507812 125.871094 4.988281 C 126.070312 5.46875 126.222656 5.964844 126.324219 6.476562 C 126.425781 6.988281 126.476562 7.503906 126.476562 8.027344 Z M 126.476562 8.027344 "/></g><path style=" stroke:none;fill-rule:nonzero;fill:#000000;fill-opacity:1;" d="M 79.199219 240.15625 L 157.839844 240.15625 C 158.355469 240.15625 158.863281 240.105469 159.371094 240.003906 C 159.875 239.902344 160.367188 239.753906 160.84375 239.558594 C 161.320312 239.363281 161.769531 239.121094 162.199219 238.835938 C 162.628906 238.550781 163.023438 238.226562 163.390625 237.863281 C 163.753906 237.5 164.078125 237.105469 164.363281 236.675781 C 164.652344 236.25 164.894531 235.796875 165.089844 235.324219 C 165.289062 234.847656 165.4375 234.359375 165.535156 233.855469 C 165.636719 233.351562 165.6875 232.839844 165.6875 232.328125 C 165.6875 231.8125 165.636719 231.304688 165.535156 230.800781 C 165.4375 230.296875 165.289062 229.808594 165.089844 229.332031 C 164.894531 228.859375 164.652344 228.40625 164.363281 227.980469 C 164.078125 227.550781 163.753906 227.15625 163.390625 226.792969 C 163.023438 226.429688 162.628906 226.105469 162.199219 225.820312 C 161.769531 225.535156 161.320312 225.292969 160.84375 225.097656 C 160.367188 224.898438 159.875 224.75 159.371094 224.652344 C 158.863281 224.550781 158.355469 224.5 157.839844 224.5 L 155.765625 224.5 C 152.433594 203.878906 143.855469 191.34375 142.328125 163.425781 C 142.277344 162.53125 142.234375 161.632812 142.195312 160.742188 C 142.054688 157.453125 141.960938 154.230469 141.90625 151.464844 C 142.457031 151.410156 143 151.308594 143.53125 151.160156 C 144.0625 151.011719 144.574219 150.816406 145.074219 150.578125 C 145.570312 150.339844 146.042969 150.058594 146.492188 149.734375 C 146.9375 149.414062 147.355469 149.054688 147.738281 148.660156 C 148.125 148.261719 148.46875 147.835938 148.777344 147.382812 C 149.089844 146.925781 149.355469 146.445312 149.578125 145.941406 C 149.804688 145.4375 149.980469 144.917969 150.113281 144.382812 C 150.246094 143.851562 150.332031 143.308594 150.367188 142.757812 C 150.40625 142.207031 150.394531 141.660156 150.332031 141.113281 C 150.273438 140.566406 150.164062 140.027344 150.007812 139.5 C 149.855469 138.972656 149.652344 138.460938 149.40625 137.964844 C 149.164062 137.472656 148.875 137.003906 148.546875 136.5625 C 148.21875 136.121094 147.855469 135.707031 147.453125 135.328125 C 147.054688 134.949219 146.621094 134.609375 146.160156 134.308594 C 145.699219 134.003906 145.214844 133.742188 144.707031 133.527344 C 144.203125 133.308594 143.679688 133.136719 143.140625 133.007812 C 144.128906 132.21875 144.894531 131.257812 145.441406 130.117188 C 145.988281 128.980469 146.261719 127.78125 146.261719 126.519531 C 146.261719 125.972656 146.207031 125.429688 146.101562 124.894531 C 145.992188 124.359375 145.835938 123.835938 145.625 123.332031 C 145.414062 122.828125 145.160156 122.347656 144.855469 121.890625 C 144.550781 121.4375 144.203125 121.015625 143.816406 120.628906 C 143.425781 120.242188 143.003906 119.898438 142.546875 119.59375 C 142.09375 119.289062 141.609375 119.03125 141.105469 118.824219 C 140.597656 118.613281 140.074219 118.457031 139.539062 118.347656 C 139 118.242188 138.457031 118.1875 137.90625 118.1875 L 99.132812 118.1875 C 98.585938 118.1875 98.042969 118.242188 97.503906 118.347656 C 96.964844 118.457031 96.441406 118.613281 95.9375 118.824219 C 95.429688 119.03125 94.949219 119.289062 94.492188 119.59375 C 94.035156 119.898438 93.613281 120.242188 93.226562 120.628906 C 92.839844 121.015625 92.492188 121.4375 92.1875 121.890625 C 91.882812 122.347656 91.625 122.828125 91.414062 123.332031 C 91.207031 123.835938 91.046875 124.359375 90.941406 124.894531 C 90.832031 125.429688 90.777344 125.972656 90.777344 126.519531 C 90.777344 127.78125 91.050781 128.980469 91.597656 130.117188 C 92.144531 131.257812 92.914062 132.21875 93.898438 133.007812 C 93.363281 133.136719 92.839844 133.308594 92.332031 133.523438 C 91.824219 133.742188 91.339844 134.003906 90.878906 134.304688 C 90.417969 134.609375 89.984375 134.949219 89.582031 135.328125 C 89.183594 135.707031 88.816406 136.117188 88.488281 136.5625 C 88.160156 137.003906 87.875 137.472656 87.628906 137.964844 C 87.382812 138.457031 87.179688 138.96875 87.023438 139.5 C 86.871094 140.027344 86.761719 140.566406 86.703125 141.113281 C 86.640625 141.660156 86.628906 142.210938 86.664062 142.757812 C 86.703125 143.308594 86.789062 143.851562 86.917969 144.386719 C 87.050781 144.921875 87.230469 145.441406 87.453125 145.945312 C 87.679688 146.445312 87.945312 146.925781 88.253906 147.382812 C 88.566406 147.839844 88.910156 148.265625 89.296875 148.660156 C 89.679688 149.058594 90.097656 149.417969 90.542969 149.738281 C 90.992188 150.0625 91.464844 150.34375 91.964844 150.582031 C 92.460938 150.820312 92.976562 151.015625 93.507812 151.164062 C 94.039062 151.3125 94.582031 151.414062 95.128906 151.46875 C 95.078125 154.234375 94.984375 157.457031 94.84375 160.746094 C 94.804688 161.636719 94.761719 162.535156 94.710938 163.425781 C 93.183594 191.34375 84.605469 203.882812 81.273438 224.503906 L 79.199219 224.503906 C 78.683594 224.503906 78.175781 224.554688 77.667969 224.652344 C 77.164062 224.753906 76.671875 224.902344 76.195312 225.097656 C 75.71875 225.296875 75.269531 225.535156 74.839844 225.820312 C 74.410156 226.109375 74.015625 226.433594 73.648438 226.796875 C 73.285156 227.160156 72.960938 227.554688 72.671875 227.980469 C 72.386719 228.410156 72.144531 228.859375 71.949219 229.335938 C 71.75 229.808594 71.601562 230.300781 71.5 230.804688 C 71.402344 231.308594 71.351562 231.816406 71.351562 232.328125 C 71.351562 232.84375 71.402344 233.351562 71.503906 233.855469 C 71.601562 234.359375 71.75 234.847656 71.949219 235.324219 C 72.144531 235.800781 72.386719 236.25 72.675781 236.675781 C 72.960938 237.105469 73.285156 237.5 73.648438 237.863281 C 74.015625 238.226562 74.410156 238.550781 74.839844 238.835938 C 75.269531 239.121094 75.71875 239.363281 76.195312 239.558594 C 76.671875 239.753906 77.164062 239.902344 77.667969 240.003906 C 78.171875 240.105469 78.683594 240.15625 79.199219 240.15625 Z M 79.199219 240.15625 "/><g clip-rule="nonzero" clip-path="url(#940355e120)"><path style=" stroke:none;fill-rule:nonzero;fill:#000000;fill-opacity:1;" d="M 177.972656 284.023438 L 175.21875 284.023438 C 176.761719 282.980469 178.09375 281.714844 179.210938 280.222656 C 180.324219 278.734375 181.164062 277.101562 181.722656 275.328125 C 181.804688 275.085938 181.871094 274.84375 181.9375 274.601562 C 182.316406 273.195312 182.503906 271.761719 182.5 270.304688 C 182.5 269.601562 182.464844 268.902344 182.398438 268.203125 C 182.328125 267.5 182.226562 266.808594 182.085938 266.117188 C 181.949219 265.425781 181.777344 264.746094 181.574219 264.074219 C 181.367188 263.402344 181.132812 262.738281 180.863281 262.089844 C 180.59375 261.441406 180.289062 260.804688 179.957031 260.183594 C 179.625 259.566406 179.265625 258.960938 178.871094 258.378906 C 178.480469 257.792969 178.0625 257.230469 177.613281 256.683594 C 177.167969 256.140625 176.691406 255.621094 176.195312 255.125 C 175.695312 254.625 175.175781 254.15625 174.628906 253.710938 C 174.085938 253.261719 173.519531 252.84375 172.933594 252.453125 C 172.347656 252.0625 171.742188 251.703125 171.121094 251.371094 C 170.496094 251.039062 169.863281 250.738281 169.210938 250.46875 C 168.558594 250.199219 167.894531 249.964844 167.21875 249.761719 C 166.546875 249.554688 165.863281 249.386719 165.171875 249.246094 C 164.480469 249.109375 163.78125 249.007812 163.082031 248.9375 C 162.378906 248.871094 161.675781 248.835938 160.972656 248.835938 L 76.066406 248.835938 C 75.359375 248.835938 74.65625 248.867188 73.957031 248.9375 C 73.253906 249.007812 72.558594 249.109375 71.867188 249.246094 C 71.171875 249.382812 70.488281 249.554688 69.816406 249.757812 C 69.140625 249.960938 68.476562 250.199219 67.824219 250.464844 C 67.171875 250.734375 66.535156 251.035156 65.914062 251.367188 C 65.292969 251.699219 64.6875 252.058594 64.101562 252.449219 C 63.515625 252.839844 62.949219 253.257812 62.40625 253.703125 C 61.859375 254.152344 61.335938 254.621094 60.839844 255.121094 C 60.339844 255.617188 59.867188 256.136719 59.417969 256.679688 C 58.972656 257.226562 58.550781 257.789062 58.160156 258.375 C 57.769531 258.960938 57.40625 259.5625 57.074219 260.183594 C 56.742188 260.800781 56.441406 261.4375 56.171875 262.085938 C 55.902344 262.738281 55.664062 263.398438 55.460938 264.070312 C 55.257812 264.746094 55.085938 265.425781 54.949219 266.117188 C 54.8125 266.804688 54.707031 267.5 54.640625 268.199219 C 54.570312 268.902344 54.535156 269.601562 54.535156 270.304688 C 54.53125 271.761719 54.722656 273.195312 55.101562 274.601562 C 55.167969 274.84375 55.238281 275.085938 55.3125 275.328125 C 55.875 277.097656 56.714844 278.730469 57.828125 280.21875 C 58.941406 281.710938 60.269531 282.976562 61.8125 284.023438 L 59.066406 284.023438 C 58.554688 284.023438 58.046875 284.074219 57.546875 284.171875 C 57.042969 284.269531 56.554688 284.417969 56.082031 284.613281 C 55.609375 284.808594 55.160156 285.046875 54.738281 285.332031 C 54.3125 285.617188 53.917969 285.9375 53.554688 286.296875 C 53.195312 286.660156 52.871094 287.050781 52.585938 287.476562 C 52.300781 287.902344 52.0625 288.347656 51.867188 288.820312 C 51.671875 289.292969 51.523438 289.777344 51.421875 290.277344 C 51.324219 290.777344 51.273438 291.285156 51.273438 291.792969 L 51.273438 292.167969 C 51.273438 292.675781 51.324219 293.183594 51.421875 293.683594 C 51.523438 294.183594 51.671875 294.667969 51.867188 295.140625 C 52.0625 295.613281 52.300781 296.058594 52.585938 296.484375 C 52.871094 296.90625 53.195312 297.300781 53.554688 297.660156 C 53.917969 298.023438 54.3125 298.34375 54.738281 298.628906 C 55.160156 298.910156 55.609375 299.148438 56.082031 299.34375 C 56.554688 299.539062 57.042969 299.6875 57.546875 299.789062 C 58.046875 299.886719 58.554688 299.9375 59.066406 299.9375 L 177.972656 299.9375 C 178.484375 299.9375 178.988281 299.886719 179.492188 299.789062 C 179.992188 299.6875 180.480469 299.539062 180.953125 299.34375 C 181.425781 299.148438 181.875 298.910156 182.300781 298.628906 C 182.726562 298.34375 183.121094 298.023438 183.480469 297.660156 C 183.84375 297.300781 184.167969 296.90625 184.449219 296.484375 C 184.734375 296.058594 184.976562 295.613281 185.171875 295.140625 C 185.367188 294.667969 185.515625 294.183594 185.613281 293.683594 C 185.714844 293.183594 185.761719 292.675781 185.761719 292.167969 L 185.761719 291.792969 C 185.761719 291.285156 185.714844 290.777344 185.613281 290.277344 C 185.515625 289.777344 185.367188 289.292969 185.171875 288.820312 C 184.976562 288.347656 184.734375 287.902344 184.449219 287.476562 C 184.167969 287.050781 183.84375 286.660156 183.480469 286.296875 C 183.121094 285.9375 182.726562 285.617188 182.300781 285.332031 C 181.875 285.046875 181.425781 284.808594 180.953125 284.613281 C 180.480469 284.417969 179.992188 284.269531 179.492188 284.171875 C 178.988281 284.074219 178.484375 284.023438 177.972656 284.023438 Z M 177.972656 284.023438 "/></g><path style=" stroke:none;fill-rule:nonzero;fill:#000000;fill-opacity:1;" d="M 100.796875 108.425781 C 100.898438 108.722656 101.074219 108.964844 101.328125 109.144531 C 101.585938 109.328125 101.871094 109.417969 102.1875 109.414062 L 134.851562 109.414062 C 135.167969 109.417969 135.453125 109.328125 135.707031 109.144531 C 135.964844 108.960938 136.140625 108.722656 136.238281 108.425781 C 136.652344 107.136719 137.171875 105.894531 137.792969 104.691406 C 142.863281 94.761719 154.132812 85.828125 154.132812 69.539062 C 153.984375 62.707031 152.472656 56.191406 149.589844 49.992188 C 149.539062 49.878906 149.476562 49.777344 149.402344 49.679688 C 149.324219 49.585938 149.238281 49.5 149.140625 49.425781 C 149.042969 49.351562 148.9375 49.289062 148.824219 49.242188 C 148.710938 49.191406 148.59375 49.160156 148.472656 49.140625 C 148.351562 49.121094 148.230469 49.117188 148.105469 49.128906 C 147.984375 49.140625 147.867188 49.167969 147.75 49.207031 C 147.632812 49.25 147.523438 49.304688 147.421875 49.375 C 147.320312 49.441406 147.230469 49.523438 147.148438 49.613281 L 130.214844 68.640625 C 129.972656 68.917969 129.703125 69.167969 129.410156 69.390625 C 129.117188 69.613281 128.808594 69.804688 128.476562 69.964844 C 128.144531 70.128906 127.804688 70.253906 127.445312 70.351562 C 127.089844 70.445312 126.730469 70.503906 126.363281 70.527344 C 125.996094 70.550781 125.628906 70.535156 125.265625 70.488281 C 124.898438 70.4375 124.542969 70.355469 124.195312 70.238281 C 123.847656 70.117188 123.511719 69.96875 123.195312 69.78125 C 122.875 69.597656 122.578125 69.386719 122.300781 69.144531 C 122.027344 68.902344 121.777344 68.632812 121.550781 68.34375 C 121.328125 68.050781 121.136719 67.742188 120.972656 67.410156 C 120.8125 67.082031 120.683594 66.738281 120.589844 66.386719 C 120.492188 66.03125 120.433594 65.667969 120.410156 65.304688 C 120.386719 64.9375 120.398438 64.570312 120.449219 64.207031 C 120.496094 63.84375 120.582031 63.488281 120.699219 63.140625 C 120.816406 62.792969 120.96875 62.460938 121.152344 62.144531 C 121.335938 61.828125 121.550781 61.53125 121.792969 61.253906 L 141.613281 39.003906 C 141.855469 38.738281 141.976562 38.425781 141.988281 38.070312 C 141.996094 37.710938 141.886719 37.394531 141.664062 37.117188 C 137.699219 32.183594 132.902344 28.269531 127.269531 25.371094 C 125.910156 24.699219 124.492188 24.1875 123.011719 23.84375 C 121.535156 23.496094 120.035156 23.324219 118.519531 23.324219 C 117 23.324219 115.503906 23.496094 114.023438 23.84375 C 112.546875 24.1875 111.128906 24.699219 109.769531 25.371094 C 93.308594 33.558594 82.902344 53.886719 82.902344 69.539062 C 82.902344 85.828125 94.175781 94.761719 99.246094 104.691406 C 99.867188 105.894531 100.386719 107.136719 100.796875 108.425781 Z M 100.796875 108.425781 "/><g style="fill:#000000;fill-opacity:1;"><g transform="translate(118.554289, 201.005398)"><path style="stroke:none" d="M -0.0625 -3.265625 L -0.0625 -2.8125 L -1.046875 -2.453125 L -1.015625 -0.90625 L -0.015625 -0.59375 L 0 -0.140625 L -3.65625 -1.328125 L -3.671875 -1.921875 Z M -3.21875 -1.609375 L -1.359375 -1.015625 L -1.390625 -2.3125 L -3.21875 -1.671875 Z M -3.21875 -1.609375 "/></g></g><g style="fill:#000000;fill-opacity:1;"><g transform="translate(118.487173, 197.601167)"><path style="stroke:none" d="M 0.015625 -1.421875 C 0.0234375 -1.203125 -0.0195312 -1.003906 -0.125 -0.828125 C -0.226562 -0.660156 -0.378906 -0.523438 -0.578125 -0.421875 C -0.785156 -0.328125 -1.046875 -0.273438 -1.359375 -0.265625 C -1.671875 -0.265625 -1.9375 -0.3125 -2.15625 -0.40625 C -2.375 -0.5 -2.535156 -0.628906 -2.640625 -0.796875 C -2.742188 -0.972656 -2.800781 -1.175781 -2.8125 -1.40625 C -2.8125 -1.582031 -2.78125 -1.742188 -2.71875 -1.890625 C -2.65625 -2.046875 -2.546875 -2.175781 -2.390625 -2.28125 L -2.40625 -2.34375 L -3.875 -2.3125 L -3.890625 -2.703125 L -0.0625 -2.78125 L -0.046875 -2.390625 L -0.453125 -2.375 L -0.453125 -2.3125 C -0.316406 -2.238281 -0.203125 -2.125 -0.109375 -1.96875 C -0.0234375 -1.8125 0.015625 -1.628906 0.015625 -1.421875 Z M -0.34375 -1.546875 C -0.34375 -1.796875 -0.429688 -1.992188 -0.609375 -2.140625 C -0.785156 -2.296875 -1.050781 -2.367188 -1.40625 -2.359375 C -1.769531 -2.359375 -2.035156 -2.273438 -2.203125 -2.109375 C -2.367188 -1.953125 -2.453125 -1.75 -2.453125 -1.5 C -2.441406 -1.238281 -2.351562 -1.035156 -2.1875 -0.890625 C -2.019531 -0.753906 -1.75 -0.6875 -1.375 -0.6875 C -0.675781 -0.707031 -0.332031 -0.992188 -0.34375 -1.546875 Z M -0.34375 -1.546875 "/></g></g><g style="fill:#000000;fill-opacity:1;"><g transform="translate(118.422841, 194.338156)"><path style="stroke:none" d="M 0.015625 -1.421875 C 0.0234375 -1.203125 -0.0195312 -1.003906 -0.125 -0.828125 C -0.226562 -0.660156 -0.378906 -0.523438 -0.578125 -0.421875 C -0.785156 -0.328125 -1.046875 -0.273438 -1.359375 -0.265625 C -1.671875 -0.265625 -1.9375 -0.3125 -2.15625 -0.40625 C -2.375 -0.5 -2.535156 -0.628906 -2.640625 -0.796875 C -2.742188 -0.972656 -2.800781 -1.175781 -2.8125 -1.40625 C -2.8125 -1.582031 -2.78125 -1.742188 -2.71875 -1.890625 C -2.65625 -2.046875 -2.546875 -2.175781 -2.390625 -2.28125 L -2.40625 -2.34375 L -3.875 -2.3125 L -3.890625 -2.703125 L -0.0625 -2.78125 L -0.046875 -2.390625 L -0.453125 -2.375 L -0.453125 -2.3125 C -0.316406 -2.238281 -0.203125 -2.125 -0.109375 -1.96875 C -0.0234375 -1.8125 0.015625 -1.628906 0.015625 -1.421875 Z M -0.34375 -1.546875 C -0.34375 -1.796875 -0.429688 -1.992188 -0.609375 -2.140625 C -0.785156 -2.296875 -1.050781 -2.367188 -1.40625 -2.359375 C -1.769531 -2.359375 -2.035156 -2.273438 -2.203125 -2.109375 C -2.367188 -1.953125 -2.453125 -1.75 -2.453125 -1.5 C -2.441406 -1.238281 -2.351562 -1.035156 -2.1875 -0.890625 C -2.019531 -0.753906 -1.75 -0.6875 -1.375 -0.6875 C -0.675781 -0.707031 -0.332031 -0.992188 -0.34375 -1.546875 Z M -0.34375 -1.546875 "/></g></g><g style="fill:#000000;fill-opacity:1;"><g transform="translate(118.358509, 191.075146)"><path style="stroke:none" d=""/></g></g><g style="fill:#000000;fill-opacity:1;"><g transform="translate(118.333988, 189.831388)"><path style="stroke:none" d="M 0.03125 -1.125 C 0.03125 -0.851562 -0.0351562 -0.640625 -0.171875 -0.484375 C -0.304688 -0.335938 -0.503906 -0.257812 -0.765625 -0.25 C -0.921875 -0.25 -1.054688 -0.28125 -1.171875 -0.34375 C -1.296875 -0.40625 -1.390625 -0.503906 -1.453125 -0.640625 C -1.523438 -0.785156 -1.585938 -0.972656 -1.640625 -1.203125 C -1.671875 -1.398438 -1.707031 -1.550781 -1.75 -1.65625 C -1.789062 -1.757812 -1.835938 -1.828125 -1.890625 -1.859375 C -1.941406 -1.898438 -2.003906 -1.914062 -2.078125 -1.90625 C -2.203125 -1.90625 -2.296875 -1.859375 -2.359375 -1.765625 C -2.429688 -1.679688 -2.46875 -1.546875 -2.46875 -1.359375 C -2.457031 -1.179688 -2.414062 -1.03125 -2.34375 -0.90625 C -2.28125 -0.78125 -2.179688 -0.664062 -2.046875 -0.5625 L -2.046875 -0.515625 L -2.3125 -0.3125 C -2.46875 -0.425781 -2.585938 -0.566406 -2.671875 -0.734375 C -2.753906 -0.910156 -2.800781 -1.113281 -2.8125 -1.34375 C -2.8125 -1.664062 -2.742188 -1.90625 -2.609375 -2.0625 C -2.472656 -2.21875 -2.28125 -2.296875 -2.03125 -2.296875 L -0.578125 -2.328125 C -0.429688 -2.335938 -0.359375 -2.410156 -0.359375 -2.546875 C -0.359375 -2.585938 -0.363281 -2.628906 -0.375 -2.671875 L -0.375 -2.703125 L -0.09375 -2.75 C -0.0703125 -2.71875 -0.0546875 -2.675781 -0.046875 -2.625 C -0.0351562 -2.582031 -0.03125 -2.535156 -0.03125 -2.484375 C -0.03125 -2.328125 -0.0625 -2.210938 -0.125 -2.140625 C -0.1875 -2.066406 -0.285156 -2.019531 -0.421875 -2 L -0.40625 -1.9375 C -0.257812 -1.863281 -0.148438 -1.757812 -0.078125 -1.625 C -0.015625 -1.488281 0.0195312 -1.320312 0.03125 -1.125 Z M -0.296875 -1.21875 C -0.296875 -1.375 -0.332031 -1.503906 -0.40625 -1.609375 C -0.476562 -1.710938 -0.578125 -1.789062 -0.703125 -1.84375 C -0.828125 -1.90625 -0.972656 -1.9375 -1.140625 -1.9375 L -1.484375 -1.921875 L -1.5 -1.875 C -1.457031 -1.8125 -1.421875 -1.738281 -1.390625 -1.65625 C -1.359375 -1.570312 -1.332031 -1.453125 -1.3125 -1.296875 C -1.28125 -1.128906 -1.242188 -1 -1.203125 -0.90625 C -1.160156 -0.820312 -1.101562 -0.757812 -1.03125 -0.71875 C -0.957031 -0.6875 -0.875 -0.671875 -0.78125 -0.671875 C -0.613281 -0.671875 -0.488281 -0.71875 -0.40625 -0.8125 C -0.320312 -0.914062 -0.285156 -1.050781 -0.296875 -1.21875 Z M -0.296875 -1.21875 "/></g></g><g style="fill:#000000;fill-opacity:1;"><g transform="translate(118.278254, 187.004436)"><path style="stroke:none" d=""/></g></g><g style="fill:#000000;fill-opacity:1;"><g transform="translate(118.253732, 185.760678)"><path style="stroke:none" d="M 0.03125 -1.09375 C 0.03125 -0.894531 -0.0195312 -0.738281 -0.125 -0.625 C -0.238281 -0.519531 -0.40625 -0.460938 -0.625 -0.453125 L -3.84375 -0.390625 L -3.84375 -0.796875 L -0.640625 -0.859375 C -0.535156 -0.859375 -0.457031 -0.878906 -0.40625 -0.921875 C -0.351562 -0.972656 -0.328125 -1.046875 -0.328125 -1.140625 C -0.335938 -1.191406 -0.351562 -1.25 -0.375 -1.3125 L -0.359375 -1.34375 L -0.046875 -1.390625 C -0.0234375 -1.359375 -0.0078125 -1.316406 0 -1.265625 C 0.0195312 -1.210938 0.03125 -1.15625 0.03125 -1.09375 Z M 0.03125 -1.09375 "/></g></g><g style="fill:#000000;fill-opacity:1;"><g transform="translate(118.224424, 184.274114)"><path style="stroke:none" d="M -3.28125 -0.609375 C -3.28125 -0.523438 -3.300781 -0.457031 -3.34375 -0.40625 C -3.394531 -0.351562 -3.460938 -0.328125 -3.546875 -0.328125 C -3.628906 -0.316406 -3.695312 -0.335938 -3.75 -0.390625 C -3.8125 -0.441406 -3.84375 -0.507812 -3.84375 -0.59375 C -3.84375 -0.6875 -3.816406 -0.757812 -3.765625 -0.8125 C -3.710938 -0.863281 -3.644531 -0.894531 -3.5625 -0.90625 C -3.476562 -0.90625 -3.410156 -0.878906 -3.359375 -0.828125 C -3.304688 -0.773438 -3.28125 -0.703125 -3.28125 -0.609375 Z M -0.015625 -0.46875 L -2.75 -0.421875 L -2.75 -0.828125 L -0.015625 -0.875 Z M -0.015625 -0.46875 "/></g></g><g style="fill:#000000;fill-opacity:1;"><g transform="translate(118.197705, 182.918861)"><path style="stroke:none" d="M -0.46875 -1.828125 L -0.1875 -1.984375 C -0.113281 -1.910156 -0.0625 -1.820312 -0.03125 -1.71875 C 0 -1.613281 0.015625 -1.503906 0.015625 -1.390625 C 0.0234375 -0.859375 -0.226562 -0.585938 -0.75 -0.578125 L -2.421875 -0.546875 L -2.40625 -0.078125 L -2.734375 -0.078125 L -2.75 -0.546875 L -3.328125 -0.53125 L -3.390625 -0.9375 L -2.75 -0.953125 L -2.765625 -1.84375 L -2.4375 -1.84375 L -2.421875 -0.953125 L -0.796875 -0.984375 C -0.484375 -0.992188 -0.332031 -1.132812 -0.34375 -1.40625 C -0.34375 -1.5625 -0.382812 -1.6875 -0.46875 -1.78125 Z M -0.46875 -1.828125 "/></g></g><g style="fill:#000000;fill-opacity:1;"><g transform="translate(118.156673, 180.837671)"><path style="stroke:none" d="M -0.46875 -1.828125 L -0.1875 -1.984375 C -0.113281 -1.910156 -0.0625 -1.820312 -0.03125 -1.71875 C 0 -1.613281 0.015625 -1.503906 0.015625 -1.390625 C 0.0234375 -0.859375 -0.226562 -0.585938 -0.75 -0.578125 L -2.421875 -0.546875 L -2.40625 -0.078125 L -2.734375 -0.078125 L -2.75 -0.546875 L -3.328125 -0.53125 L -3.390625 -0.9375 L -2.75 -0.953125 L -2.765625 -1.84375 L -2.4375 -1.84375 L -2.421875 -0.953125 L -0.796875 -0.984375 C -0.484375 -0.992188 -0.332031 -1.132812 -0.34375 -1.40625 C -0.34375 -1.5625 -0.382812 -1.6875 -0.46875 -1.78125 Z M -0.46875 -1.828125 "/></g></g><g style="fill:#000000;fill-opacity:1;"><g transform="translate(118.115642, 178.756482)"><path style="stroke:none" d="M 0.03125 -1.09375 C 0.03125 -0.894531 -0.0195312 -0.738281 -0.125 -0.625 C -0.238281 -0.519531 -0.40625 -0.460938 -0.625 -0.453125 L -3.84375 -0.390625 L -3.84375 -0.796875 L -0.640625 -0.859375 C -0.535156 -0.859375 -0.457031 -0.878906 -0.40625 -0.921875 C -0.351562 -0.972656 -0.328125 -1.046875 -0.328125 -1.140625 C -0.335938 -1.191406 -0.351562 -1.25 -0.375 -1.3125 L -0.359375 -1.34375 L -0.046875 -1.390625 C -0.0234375 -1.359375 -0.0078125 -1.316406 0 -1.265625 C 0.0195312 -1.210938 0.03125 -1.15625 0.03125 -1.09375 Z M 0.03125 -1.09375 "/></g></g><g style="fill:#000000;fill-opacity:1;"><g transform="translate(118.086333, 177.269918)"><path style="stroke:none" d="M -1.328125 -2.578125 L -1.296875 -0.6875 C -0.960938 -0.71875 -0.71875 -0.804688 -0.5625 -0.953125 C -0.40625 -1.109375 -0.332031 -1.316406 -0.34375 -1.578125 C -0.34375 -1.765625 -0.378906 -1.914062 -0.453125 -2.03125 C -0.523438 -2.144531 -0.632812 -2.238281 -0.78125 -2.3125 L -0.78125 -2.359375 L -0.625 -2.625 C -0.425781 -2.550781 -0.269531 -2.425781 -0.15625 -2.25 C -0.0507812 -2.082031 0.00390625 -1.859375 0.015625 -1.578125 C 0.0234375 -1.304688 -0.0195312 -1.078125 -0.125 -0.890625 C -0.226562 -0.703125 -0.378906 -0.550781 -0.578125 -0.4375 C -0.785156 -0.332031 -1.046875 -0.273438 -1.359375 -0.265625 C -1.671875 -0.265625 -1.9375 -0.316406 -2.15625 -0.421875 C -2.375 -0.523438 -2.535156 -0.664062 -2.640625 -0.84375 C -2.742188 -1.03125 -2.800781 -1.242188 -2.8125 -1.484375 C -2.820312 -1.835938 -2.726562 -2.113281 -2.53125 -2.3125 C -2.332031 -2.519531 -2.039062 -2.628906 -1.65625 -2.640625 C -1.507812 -2.640625 -1.40625 -2.632812 -1.34375 -2.625 Z M -1.65625 -2.234375 C -1.945312 -2.222656 -2.15625 -2.15625 -2.28125 -2.03125 C -2.40625 -1.90625 -2.46875 -1.726562 -2.46875 -1.5 C -2.457031 -1.257812 -2.382812 -1.070312 -2.25 -0.9375 C -2.125 -0.800781 -1.914062 -0.722656 -1.625 -0.703125 Z M -1.65625 -2.234375 "/></g></g><g style="fill:#000000;fill-opacity:1;"><g transform="translate(118.028889, 174.356253)"><path style="stroke:none" d=""/></g></g><g style="fill:#000000;fill-opacity:1;"><g transform="translate(118.004368, 173.112495)"><path style="stroke:none" d="M 0.015625 -1.8125 C 0.015625 -1.613281 -0.0195312 -1.4375 -0.09375 -1.28125 C -0.164062 -1.132812 -0.265625 -1.019531 -0.390625 -0.9375 L -0.375 -0.875 L -0.015625 -0.875 L -0.015625 -0.46875 L -3.84375 -0.390625 L -3.84375 -0.796875 L -2.34375 -0.828125 L -2.328125 -0.890625 C -2.648438 -1.085938 -2.8125 -1.382812 -2.8125 -1.78125 C -2.820312 -2 -2.773438 -2.195312 -2.671875 -2.375 C -2.566406 -2.550781 -2.410156 -2.6875 -2.203125 -2.78125 C -2.003906 -2.882812 -1.742188 -2.9375 -1.421875 -2.9375 C -1.117188 -2.945312 -0.859375 -2.90625 -0.640625 -2.8125 C -0.421875 -2.71875 -0.257812 -2.582031 -0.15625 -2.40625 C -0.0507812 -2.238281 0.00390625 -2.039062 0.015625 -1.8125 Z M -0.34375 -1.71875 C -0.351562 -2.269531 -0.707031 -2.535156 -1.40625 -2.515625 C -1.78125 -2.515625 -2.050781 -2.4375 -2.21875 -2.28125 C -2.382812 -2.132812 -2.460938 -1.929688 -2.453125 -1.671875 C -2.453125 -1.421875 -2.363281 -1.21875 -2.1875 -1.0625 C -2.007812 -0.914062 -1.738281 -0.84375 -1.375 -0.84375 C -1.019531 -0.851562 -0.757812 -0.9375 -0.59375 -1.09375 C -0.425781 -1.257812 -0.34375 -1.46875 -0.34375 -1.71875 Z M -0.34375 -1.71875 "/></g></g><g style="fill:#000000;fill-opacity:1;"><g transform="translate(117.940085, 169.851965)"><path style="stroke:none" d="M -3.28125 -0.609375 C -3.28125 -0.523438 -3.300781 -0.457031 -3.34375 -0.40625 C -3.394531 -0.351562 -3.460938 -0.328125 -3.546875 -0.328125 C -3.628906 -0.316406 -3.695312 -0.335938 -3.75 -0.390625 C -3.8125 -0.441406 -3.84375 -0.507812 -3.84375 -0.59375 C -3.84375 -0.6875 -3.816406 -0.757812 -3.765625 -0.8125 C -3.710938 -0.863281 -3.644531 -0.894531 -3.5625 -0.90625 C -3.476562 -0.90625 -3.410156 -0.878906 -3.359375 -0.828125 C -3.304688 -0.773438 -3.28125 -0.703125 -3.28125 -0.609375 Z M -0.015625 -0.46875 L -2.75 -0.421875 L -2.75 -0.828125 L -0.015625 -0.875 Z M -0.015625 -0.46875 "/></g></g><g style="fill:#000000;fill-opacity:1;"><g transform="translate(117.913366, 168.496712)"><path style="stroke:none" d="M -0.46875 -1.828125 L -0.1875 -1.984375 C -0.113281 -1.910156 -0.0625 -1.820312 -0.03125 -1.71875 C 0 -1.613281 0.015625 -1.503906 0.015625 -1.390625 C 0.0234375 -0.859375 -0.226562 -0.585938 -0.75 -0.578125 L -2.421875 -0.546875 L -2.40625 -0.078125 L -2.734375 -0.078125 L -2.75 -0.546875 L -3.328125 -0.53125 L -3.390625 -0.9375 L -2.75 -0.953125 L -2.765625 -1.84375 L -2.4375 -1.84375 L -2.421875 -0.953125 L -0.796875 -0.984375 C -0.484375 -0.992188 -0.332031 -1.132812 -0.34375 -1.40625 C -0.34375 -1.5625 -0.382812 -1.6875 -0.46875 -1.78125 Z M -0.46875 -1.828125 "/></g></g><g style="fill:#000000;fill-opacity:1;"><g transform="translate(117.872334, 166.415523)"><path style="stroke:none" d=""/></g></g><g style="fill:#000000;fill-opacity:1;"><g transform="translate(117.847813, 165.171764)"><path style="stroke:none" d="M 0.015625 -1.5625 C 0.0234375 -1.3125 -0.0195312 -1.085938 -0.125 -0.890625 C -0.238281 -0.703125 -0.394531 -0.550781 -0.59375 -0.4375 C -0.800781 -0.332031 -1.054688 -0.273438 -1.359375 -0.265625 C -1.660156 -0.265625 -1.921875 -0.3125 -2.140625 -0.40625 C -2.359375 -0.507812 -2.519531 -0.65625 -2.625 -0.84375 C -2.738281 -1.03125 -2.800781 -1.25 -2.8125 -1.5 C -2.8125 -1.757812 -2.757812 -1.988281 -2.65625 -2.1875 C -2.550781 -2.382812 -2.394531 -2.535156 -2.1875 -2.640625 C -1.976562 -2.753906 -1.722656 -2.8125 -1.421875 -2.8125 C -1.117188 -2.820312 -0.859375 -2.773438 -0.640625 -2.671875 C -0.429688 -2.578125 -0.269531 -2.429688 -0.15625 -2.234375 C -0.0390625 -2.046875 0.015625 -1.820312 0.015625 -1.5625 Z M -0.34375 -1.5625 C -0.351562 -1.84375 -0.441406 -2.050781 -0.609375 -2.1875 C -0.785156 -2.320312 -1.050781 -2.382812 -1.40625 -2.375 C -1.769531 -2.375 -2.035156 -2.300781 -2.203125 -2.15625 C -2.378906 -2.007812 -2.460938 -1.796875 -2.453125 -1.515625 C -2.441406 -1.242188 -2.347656 -1.035156 -2.171875 -0.890625 C -2.003906 -0.753906 -1.738281 -0.6875 -1.375 -0.6875 C -1.019531 -0.695312 -0.753906 -0.773438 -0.578125 -0.921875 C -0.410156 -1.078125 -0.332031 -1.289062 -0.34375 -1.5625 Z M -0.34375 -1.5625 "/></g></g><g style="fill:#000000;fill-opacity:1;"><g transform="translate(117.785973, 162.035115)"><path style="stroke:none" d="M -0.015625 -0.609375 L -2.421875 -0.5625 L -2.40625 -0.09375 L -2.734375 -0.09375 L -2.75 -0.5625 C -2.875 -0.519531 -2.988281 -0.5 -3.09375 -0.5 C -3.269531 -0.5 -3.414062 -0.535156 -3.53125 -0.609375 C -3.65625 -0.679688 -3.75 -0.78125 -3.8125 -0.90625 C -3.875 -1.039062 -3.910156 -1.195312 -3.921875 -1.375 C -3.921875 -1.644531 -3.863281 -1.851562 -3.75 -2 L -3.453125 -1.859375 L -3.453125 -1.8125 C -3.535156 -1.707031 -3.578125 -1.566406 -3.578125 -1.390625 C -3.578125 -1.234375 -3.53125 -1.113281 -3.4375 -1.03125 C -3.351562 -0.945312 -3.234375 -0.90625 -3.078125 -0.90625 C -2.984375 -0.90625 -2.875 -0.925781 -2.75 -0.96875 L -2.765625 -1.84375 L -2.4375 -1.84375 L -2.421875 -0.96875 L -0.015625 -1.015625 Z M -0.015625 -0.609375 "/></g></g><g style="fill:#000000;fill-opacity:1;"><g transform="translate(117.747579, 160.087716)"><path style="stroke:none" d=""/></g></g><g style="fill:#000000;fill-opacity:1;"><g transform="translate(117.723058, 158.843958)"><path style="stroke:none" d="M 0.015625 -1.8125 C 0.015625 -1.613281 -0.0195312 -1.4375 -0.09375 -1.28125 C -0.164062 -1.132812 -0.265625 -1.019531 -0.390625 -0.9375 L -0.375 -0.875 L -0.015625 -0.875 L -0.015625 -0.46875 L -3.84375 -0.390625 L -3.84375 -0.796875 L -2.34375 -0.828125 L -2.328125 -0.890625 C -2.648438 -1.085938 -2.8125 -1.382812 -2.8125 -1.78125 C -2.820312 -2 -2.773438 -2.195312 -2.671875 -2.375 C -2.566406 -2.550781 -2.410156 -2.6875 -2.203125 -2.78125 C -2.003906 -2.882812 -1.742188 -2.9375 -1.421875 -2.9375 C -1.117188 -2.945312 -0.859375 -2.90625 -0.640625 -2.8125 C -0.421875 -2.71875 -0.257812 -2.582031 -0.15625 -2.40625 C -0.0507812 -2.238281 0.00390625 -2.039062 0.015625 -1.8125 Z M -0.34375 -1.71875 C -0.351562 -2.269531 -0.707031 -2.535156 -1.40625 -2.515625 C -1.78125 -2.515625 -2.050781 -2.4375 -2.21875 -2.28125 C -2.382812 -2.132812 -2.460938 -1.929688 -2.453125 -1.671875 C -2.453125 -1.421875 -2.363281 -1.21875 -2.1875 -1.0625 C -2.007812 -0.914062 -1.738281 -0.84375 -1.375 -0.84375 C -1.019531 -0.851562 -0.757812 -0.9375 -0.59375 -1.09375 C -0.425781 -1.257812 -0.34375 -1.46875 -0.34375 -1.71875 Z M -0.34375 -1.71875 "/></g></g><g style="fill:#000000;fill-opacity:1;"><g transform="translate(117.658775, 155.583428)"><path style="stroke:none" d="M 0.015625 -1.5625 C 0.0234375 -1.3125 -0.0195312 -1.085938 -0.125 -0.890625 C -0.238281 -0.703125 -0.394531 -0.550781 -0.59375 -0.4375 C -0.800781 -0.332031 -1.054688 -0.273438 -1.359375 -0.265625 C -1.660156 -0.265625 -1.921875 -0.3125 -2.140625 -0.40625 C -2.359375 -0.507812 -2.519531 -0.65625 -2.625 -0.84375 C -2.738281 -1.03125 -2.800781 -1.25 -2.8125 -1.5 C -2.8125 -1.757812 -2.757812 -1.988281 -2.65625 -2.1875 C -2.550781 -2.382812 -2.394531 -2.535156 -2.1875 -2.640625 C -1.976562 -2.753906 -1.722656 -2.8125 -1.421875 -2.8125 C -1.117188 -2.820312 -0.859375 -2.773438 -0.640625 -2.671875 C -0.429688 -2.578125 -0.269531 -2.429688 -0.15625 -2.234375 C -0.0390625 -2.046875 0.015625 -1.820312 0.015625 -1.5625 Z M -0.34375 -1.5625 C -0.351562 -1.84375 -0.441406 -2.050781 -0.609375 -2.1875 C -0.785156 -2.320312 -1.050781 -2.382812 -1.40625 -2.375 C -1.769531 -2.375 -2.035156 -2.300781 -2.203125 -2.15625 C -2.378906 -2.007812 -2.460938 -1.796875 -2.453125 -1.515625 C -2.441406 -1.242188 -2.347656 -1.035156 -2.171875 -0.890625 C -2.003906 -0.753906 -1.738281 -0.6875 -1.375 -0.6875 C -1.019531 -0.695312 -0.753906 -0.773438 -0.578125 -0.921875 C -0.410156 -1.078125 -0.332031 -1.289062 -0.34375 -1.5625 Z M -0.34375 -1.5625 "/></g></g><g style="fill:#000000;fill-opacity:1;"><g transform="translate(117.596935, 152.446779)"><path style="stroke:none" d="M 0.015625 -1.421875 C 0.0234375 -1.203125 -0.0195312 -1.003906 -0.125 -0.828125 C -0.226562 -0.660156 -0.378906 -0.523438 -0.578125 -0.421875 C -0.785156 -0.328125 -1.046875 -0.273438 -1.359375 -0.265625 C -1.671875 -0.265625 -1.9375 -0.3125 -2.15625 -0.40625 C -2.375 -0.5 -2.535156 -0.628906 -2.640625 -0.796875 C -2.742188 -0.972656 -2.800781 -1.175781 -2.8125 -1.40625 C -2.8125 -1.582031 -2.78125 -1.742188 -2.71875 -1.890625 C -2.65625 -2.046875 -2.546875 -2.175781 -2.390625 -2.28125 L -2.40625 -2.34375 L -3.875 -2.3125 L -3.890625 -2.703125 L -0.0625 -2.78125 L -0.046875 -2.390625 L -0.453125 -2.375 L -0.453125 -2.3125 C -0.316406 -2.238281 -0.203125 -2.125 -0.109375 -1.96875 C -0.0234375 -1.8125 0.015625 -1.628906 0.015625 -1.421875 Z M -0.34375 -1.546875 C -0.34375 -1.796875 -0.429688 -1.992188 -0.609375 -2.140625 C -0.785156 -2.296875 -1.050781 -2.367188 -1.40625 -2.359375 C -1.769531 -2.359375 -2.035156 -2.273438 -2.203125 -2.109375 C -2.367188 -1.953125 -2.453125 -1.75 -2.453125 -1.5 C -2.441406 -1.238281 -2.351562 -1.035156 -2.1875 -0.890625 C -2.019531 -0.753906 -1.75 -0.6875 -1.375 -0.6875 C -0.675781 -0.707031 -0.332031 -0.992188 -0.34375 -1.546875 Z M -0.34375 -1.546875 "/></g></g><g style="fill:#000000;fill-opacity:1;"><g transform="translate(117.532603, 149.183768)"><path style="stroke:none" d="M 1.140625 -0.5625 C 1.140625 -0.46875 1.132812 -0.378906 1.125 -0.296875 C 1.113281 -0.222656 1.097656 -0.15625 1.078125 -0.09375 L 0.75 -0.171875 L 0.734375 -0.21875 C 0.753906 -0.257812 0.769531 -0.304688 0.78125 -0.359375 C 0.789062 -0.421875 0.796875 -0.484375 0.796875 -0.546875 C 0.796875 -0.660156 0.78125 -0.753906 0.75 -0.828125 C 0.71875 -0.898438 0.664062 -0.960938 0.59375 -1.015625 C 0.53125 -1.066406 0.4375 -1.109375 0.3125 -1.140625 L 0.03125 -1.234375 L -2.734375 -0.09375 L -2.75 -0.53125 L -0.53125 -1.421875 L -0.53125 -1.46875 L -2.78125 -2.265625 L -2.78125 -2.6875 L 0.390625 -1.515625 C 0.566406 -1.453125 0.710938 -1.375 0.828125 -1.28125 C 0.941406 -1.195312 1.019531 -1.097656 1.0625 -0.984375 C 1.113281 -0.867188 1.140625 -0.726562 1.140625 -0.5625 Z M 1.140625 -0.5625 "/></g></g><g style="fill:#000000;fill-opacity:1;"><g transform="translate(117.475794, 146.302309)"><path style="stroke:none" d=""/></g></g><g style="fill:#000000;fill-opacity:1;"><g transform="translate(117.451273, 145.058551)"><path style="stroke:none" d="M -0.46875 -1.828125 L -0.1875 -1.984375 C -0.113281 -1.910156 -0.0625 -1.820312 -0.03125 -1.71875 C 0 -1.613281 0.015625 -1.503906 0.015625 -1.390625 C 0.0234375 -0.859375 -0.226562 -0.585938 -0.75 -0.578125 L -2.421875 -0.546875 L -2.40625 -0.078125 L -2.734375 -0.078125 L -2.75 -0.546875 L -3.328125 -0.53125 L -3.390625 -0.9375 L -2.75 -0.953125 L -2.765625 -1.84375 L -2.4375 -1.84375 L -2.421875 -0.953125 L -0.796875 -0.984375 C -0.484375 -0.992188 -0.332031 -1.132812 -0.34375 -1.40625 C -0.34375 -1.5625 -0.382812 -1.6875 -0.46875 -1.78125 Z M -0.46875 -1.828125 "/></g></g><g style="fill:#000000;fill-opacity:1;"><g transform="translate(117.410876, 143.009574)"><path style="stroke:none" d="M -1.328125 -2.578125 L -1.296875 -0.6875 C -0.960938 -0.71875 -0.71875 -0.804688 -0.5625 -0.953125 C -0.40625 -1.109375 -0.332031 -1.316406 -0.34375 -1.578125 C -0.34375 -1.765625 -0.378906 -1.914062 -0.453125 -2.03125 C -0.523438 -2.144531 -0.632812 -2.238281 -0.78125 -2.3125 L -0.78125 -2.359375 L -0.625 -2.625 C -0.425781 -2.550781 -0.269531 -2.425781 -0.15625 -2.25 C -0.0507812 -2.082031 0.00390625 -1.859375 0.015625 -1.578125 C 0.0234375 -1.304688 -0.0195312 -1.078125 -0.125 -0.890625 C -0.226562 -0.703125 -0.378906 -0.550781 -0.578125 -0.4375 C -0.785156 -0.332031 -1.046875 -0.273438 -1.359375 -0.265625 C -1.671875 -0.265625 -1.9375 -0.316406 -2.15625 -0.421875 C -2.375 -0.523438 -2.535156 -0.664062 -2.640625 -0.84375 C -2.742188 -1.03125 -2.800781 -1.242188 -2.8125 -1.484375 C -2.820312 -1.835938 -2.726562 -2.113281 -2.53125 -2.3125 C -2.332031 -2.519531 -2.039062 -2.628906 -1.65625 -2.640625 C -1.507812 -2.640625 -1.40625 -2.632812 -1.34375 -2.625 Z M -1.65625 -2.234375 C -1.945312 -2.222656 -2.15625 -2.15625 -2.28125 -2.03125 C -2.40625 -1.90625 -2.46875 -1.726562 -2.46875 -1.5 C -2.457031 -1.257812 -2.382812 -1.070312 -2.25 -0.9375 C -2.125 -0.800781 -1.914062 -0.722656 -1.625 -0.703125 Z M -1.65625 -2.234375 "/></g></g><g style="fill:#000000;fill-opacity:1;"><g transform="translate(117.354263, 140.138037)"><path style="stroke:none" d="M -0.015625 -0.5625 L 0 -0.125 L -1.4375 -0.9375 L -2.734375 -0.125 L -2.75 -0.578125 L -1.71875 -1.21875 L -1.71875 -1.28125 L -2.765625 -1.90625 L -2.78125 -2.34375 L -1.453125 -1.5625 L -0.046875 -2.421875 L -0.03125 -1.96875 L -1.1875 -1.28125 L -1.1875 -1.21875 Z M -0.015625 -0.5625 "/></g></g><g style="fill:#000000;fill-opacity:1;"><g transform="translate(117.304048, 137.591057)"><path style="stroke:none" d="M -0.46875 -1.828125 L -0.1875 -1.984375 C -0.113281 -1.910156 -0.0625 -1.820312 -0.03125 -1.71875 C 0 -1.613281 0.015625 -1.503906 0.015625 -1.390625 C 0.0234375 -0.859375 -0.226562 -0.585938 -0.75 -0.578125 L -2.421875 -0.546875 L -2.40625 -0.078125 L -2.734375 -0.078125 L -2.75 -0.546875 L -3.328125 -0.53125 L -3.390625 -0.9375 L -2.75 -0.953125 L -2.765625 -1.84375 L -2.4375 -1.84375 L -2.421875 -0.953125 L -0.796875 -0.984375 C -0.484375 -0.992188 -0.332031 -1.132812 -0.34375 -1.40625 C -0.34375 -1.5625 -0.382812 -1.6875 -0.46875 -1.78125 Z M -0.46875 -1.828125 "/></g></g></g></svg>