<svg xmlns="http://www.w3.org/2000/svg" xmlns:xlink="http://www.w3.org/1999/xlink" width="300" zoomAndPan="magnify" viewBox="0 0 224.87999 299.999988" height="400" preserveAspectRatio="xMidYMid meet" version="1.2"><defs><clipPath id="1df3155ef8"><path d="M 109 3.398438 L 123 3.398438 L 123 17 L 109 17 Z M 109 3.398438 "/></clipPath><clipPath id="da6a7f5c11"><path d="M 52.78125 246 L 179.464844 246 L 179.464844 296.492188 L 52.78125 296.492188 Z M 52.78125 246 "/></clipPath></defs><g id="a2ba7cb255"><g clip-rule="nonzero" clip-path="url(#1df3155ef8)"><path style=" stroke:none;fill-rule:nonzero;fill:#000000;fill-opacity:1;" d="M 122.664062 10.308594 C 122.664062 10.734375 122.621094 11.160156 122.539062 11.578125 C 122.453125 12 122.332031 12.40625 122.167969 12.804688 C 122 13.199219 121.800781 13.574219 121.5625 13.929688 C 121.324219 14.289062 121.050781 14.617188 120.75 14.917969 C 120.445312 15.222656 120.113281 15.492188 119.757812 15.730469 C 119.402344 15.96875 119.023438 16.167969 118.628906 16.332031 C 118.230469 16.496094 117.824219 16.621094 117.402344 16.703125 C 116.980469 16.789062 116.554688 16.828125 116.125 16.828125 C 115.695312 16.828125 115.273438 16.789062 114.851562 16.703125 C 114.429688 16.621094 114.019531 16.496094 113.625 16.332031 C 113.226562 16.167969 112.851562 15.96875 112.492188 15.730469 C 112.136719 15.492188 111.808594 15.222656 111.503906 14.917969 C 111.199219 14.617188 110.929688 14.289062 110.691406 13.929688 C 110.453125 13.574219 110.25 13.199219 110.085938 12.804688 C 109.921875 12.40625 109.796875 12 109.714844 11.578125 C 109.628906 11.160156 109.589844 10.734375 109.589844 10.308594 C 109.589844 9.878906 109.628906 9.453125 109.714844 9.035156 C 109.796875 8.613281 109.921875 8.207031 110.085938 7.8125 C 110.25 7.414062 110.453125 7.039062 110.691406 6.683594 C 110.929688 6.328125 111.199219 5.996094 111.503906 5.695312 C 111.808594 5.390625 112.136719 5.121094 112.492188 4.882812 C 112.851562 4.644531 113.226562 4.445312 113.625 4.28125 C 114.019531 4.117188 114.429688 3.992188 114.851562 3.910156 C 115.273438 3.828125 115.695312 3.785156 116.125 3.785156 C 116.554688 3.785156 116.980469 3.828125 117.402344 3.910156 C 117.824219 3.992188 118.230469 4.117188 118.628906 4.28125 C 119.023438 4.445312 119.402344 4.644531 119.757812 4.882812 C 120.113281 5.121094 120.445312 5.390625 120.75 5.695312 C 121.050781 5.996094 121.324219 6.328125 121.5625 6.683594 C 121.800781 7.039062 122 7.414062 122.167969 7.8125 C 122.332031 8.207031 122.453125 8.613281 122.539062 9.035156 C 122.621094 9.453125 122.664062 9.878906 122.664062 10.308594 Z M 122.664062 10.308594 "/></g><path style=" stroke:none;fill-rule:nonzero;fill:#000000;fill-opacity:1;" d="M 75.210938 238.824219 L 157.035156 238.824219 C 157.511719 238.824219 157.984375 238.777344 158.449219 238.6875 C 158.917969 238.59375 159.371094 238.457031 159.8125 238.273438 C 160.253906 238.09375 160.671875 237.871094 161.066406 237.605469 C 161.464844 237.339844 161.828125 237.039062 162.167969 236.703125 C 162.503906 236.367188 162.804688 236.003906 163.070312 235.609375 C 163.332031 235.210938 163.558594 234.792969 163.738281 234.355469 C 163.921875 233.917969 164.058594 233.464844 164.152344 232.996094 C 164.246094 232.53125 164.292969 232.058594 164.292969 231.585938 C 164.292969 231.109375 164.246094 230.636719 164.152344 230.171875 C 164.058594 229.707031 163.921875 229.253906 163.738281 228.8125 C 163.558594 228.375 163.332031 227.957031 163.070312 227.5625 C 162.804688 227.167969 162.503906 226.800781 162.167969 226.464844 C 161.828125 226.128906 161.460938 225.828125 161.066406 225.5625 C 160.671875 225.300781 160.253906 225.078125 159.8125 224.894531 C 159.371094 224.714844 158.917969 224.574219 158.449219 224.484375 C 157.984375 224.390625 157.511719 224.34375 157.035156 224.34375 L 154.589844 224.34375 C 151.796875 192.40625 138.253906 181.972656 136.210938 133.496094 C 136.179688 132.777344 136.148438 132.046875 136.125 131.308594 L 138.136719 131.308594 C 138.742188 131.308594 139.34375 131.25 139.9375 131.132812 C 140.53125 131.015625 141.105469 130.839844 141.667969 130.609375 C 142.226562 130.378906 142.757812 130.09375 143.257812 129.757812 C 143.761719 129.421875 144.230469 129.042969 144.65625 128.617188 C 145.085938 128.1875 145.464844 127.722656 145.804688 127.222656 C 146.140625 126.71875 146.421875 126.191406 146.65625 125.632812 C 146.886719 125.074219 147.0625 124.5 147.179688 123.90625 C 147.296875 123.3125 147.355469 122.714844 147.355469 122.113281 C 147.355469 121.578125 147.308594 121.050781 147.21875 120.523438 C 147.125 120 146.988281 119.488281 146.808594 118.984375 C 146.625 118.484375 146.402344 118.003906 146.136719 117.539062 C 145.867188 117.078125 145.566406 116.640625 145.222656 116.230469 C 144.882812 115.820312 144.507812 115.445312 144.097656 115.101562 C 143.691406 114.753906 143.257812 114.449219 142.796875 114.179688 C 142.332031 113.910156 141.851562 113.683594 141.351562 113.496094 C 140.851562 113.3125 140.335938 113.171875 139.8125 113.074219 C 140.230469 112.902344 140.609375 112.660156 140.945312 112.355469 C 141.28125 112.050781 141.558594 111.699219 141.773438 111.300781 C 141.984375 110.902344 142.125 110.476562 142.191406 110.027344 C 142.257812 109.578125 142.25 109.132812 142.160156 108.6875 C 142.070312 108.246094 141.910156 107.828125 141.675781 107.4375 C 141.441406 107.050781 141.148438 106.710938 140.796875 106.425781 C 140.449219 106.136719 140.058594 105.917969 139.628906 105.765625 C 139.203125 105.613281 138.761719 105.535156 138.308594 105.535156 L 93.941406 105.535156 C 93.488281 105.535156 93.046875 105.613281 92.617188 105.765625 C 92.191406 105.917969 91.800781 106.136719 91.449219 106.425781 C 91.097656 106.710938 90.804688 107.050781 90.570312 107.4375 C 90.339844 107.828125 90.175781 108.246094 90.089844 108.6875 C 90 109.132812 89.988281 109.578125 90.054688 110.027344 C 90.121094 110.476562 90.261719 110.902344 90.476562 111.300781 C 90.691406 111.699219 90.964844 112.050781 91.300781 112.355469 C 91.636719 112.660156 92.015625 112.902344 92.4375 113.074219 C 91.910156 113.171875 91.398438 113.3125 90.894531 113.496094 C 90.394531 113.683594 89.914062 113.910156 89.453125 114.179688 C 88.992188 114.449219 88.558594 114.753906 88.148438 115.101562 C 87.742188 115.445312 87.367188 115.820312 87.023438 116.230469 C 86.683594 116.640625 86.378906 117.078125 86.113281 117.539062 C 85.847656 118.003906 85.625 118.484375 85.441406 118.984375 C 85.257812 119.488281 85.121094 120 85.03125 120.523438 C 84.9375 121.050781 84.890625 121.578125 84.890625 122.113281 C 84.890625 122.714844 84.949219 123.3125 85.070312 123.90625 C 85.1875 124.5 85.363281 125.074219 85.59375 125.632812 C 85.824219 126.1875 86.109375 126.71875 86.445312 127.222656 C 86.78125 127.722656 87.164062 128.1875 87.589844 128.613281 C 88.019531 129.042969 88.484375 129.421875 88.988281 129.757812 C 89.492188 130.09375 90.023438 130.378906 90.582031 130.609375 C 91.140625 130.839844 91.71875 131.015625 92.3125 131.132812 C 92.90625 131.25 93.503906 131.308594 94.109375 131.308594 L 96.121094 131.308594 C 96.097656 132.046875 96.070312 132.777344 96.039062 133.496094 C 93.992188 181.972656 80.453125 192.40625 77.65625 224.34375 L 75.214844 224.34375 C 74.738281 224.34375 74.265625 224.390625 73.796875 224.484375 C 73.328125 224.574219 72.875 224.714844 72.4375 224.894531 C 71.996094 225.078125 71.578125 225.300781 71.179688 225.5625 C 70.785156 225.828125 70.417969 226.128906 70.082031 226.464844 C 69.746094 226.800781 69.445312 227.167969 69.179688 227.5625 C 68.914062 227.957031 68.691406 228.375 68.507812 228.8125 C 68.324219 229.253906 68.1875 229.707031 68.09375 230.171875 C 68.003906 230.636719 67.957031 231.109375 67.957031 231.585938 C 67.957031 232.058594 68.003906 232.53125 68.09375 232.996094 C 68.1875 233.464844 68.324219 233.917969 68.507812 234.355469 C 68.691406 234.792969 68.914062 235.210938 69.179688 235.609375 C 69.441406 236.003906 69.742188 236.367188 70.082031 236.703125 C 70.417969 237.042969 70.785156 237.339844 71.179688 237.605469 C 71.578125 237.871094 71.996094 238.09375 72.433594 238.273438 C 72.875 238.457031 73.328125 238.59375 73.796875 238.6875 C 74.265625 238.777344 74.734375 238.824219 75.210938 238.824219 Z M 75.210938 238.824219 "/><g clip-rule="nonzero" clip-path="url(#da6a7f5c11)"><path style=" stroke:none;fill-rule:nonzero;fill:#000000;fill-opacity:1;" d="M 171.707031 280.527344 L 171.695312 280.527344 C 173.070312 279.597656 174.273438 278.484375 175.304688 277.1875 C 176.335938 275.886719 177.148438 274.460938 177.738281 272.914062 C 177.945312 272.382812 178.121094 271.84375 178.265625 271.296875 C 178.636719 269.917969 178.820312 268.511719 178.820312 267.085938 C 178.820312 266.394531 178.785156 265.707031 178.71875 265.023438 C 178.652344 264.335938 178.550781 263.65625 178.414062 262.980469 C 178.28125 262.304688 178.113281 261.636719 177.910156 260.976562 C 177.710938 260.316406 177.480469 259.667969 177.214844 259.03125 C 176.949219 258.394531 176.65625 257.769531 176.328125 257.164062 C 176.003906 256.554688 175.648438 255.964844 175.265625 255.390625 C 174.878906 254.816406 174.46875 254.265625 174.03125 253.730469 C 173.59375 253.199219 173.128906 252.6875 172.640625 252.203125 C 172.152344 251.714844 171.640625 251.25 171.105469 250.816406 C 170.574219 250.378906 170.019531 249.96875 169.445312 249.585938 C 168.871094 249.199219 168.277344 248.847656 167.667969 248.523438 C 167.058594 248.195312 166.433594 247.902344 165.796875 247.640625 C 165.15625 247.375 164.507812 247.144531 163.847656 246.941406 C 163.1875 246.742188 162.515625 246.574219 161.839844 246.441406 C 161.160156 246.304688 160.480469 246.207031 159.789062 246.136719 C 159.101562 246.070312 158.414062 246.035156 157.722656 246.035156 L 74.523438 246.035156 C 73.832031 246.035156 73.144531 246.070312 72.457031 246.136719 C 71.769531 246.203125 71.085938 246.304688 70.40625 246.4375 C 69.730469 246.570312 69.058594 246.738281 68.398438 246.9375 C 67.738281 247.140625 67.085938 247.371094 66.449219 247.632812 C 65.808594 247.898438 65.183594 248.191406 64.574219 248.515625 C 63.964844 248.839844 63.375 249.195312 62.800781 249.578125 C 62.226562 249.960938 61.671875 250.371094 61.136719 250.808594 C 60.601562 251.246094 60.089844 251.707031 59.601562 252.195312 C 59.113281 252.683594 58.648438 253.195312 58.210938 253.726562 C 57.773438 254.261719 57.359375 254.8125 56.976562 255.386719 C 56.59375 255.960938 56.238281 256.550781 55.914062 257.160156 C 55.585938 257.769531 55.292969 258.390625 55.027344 259.027344 C 54.765625 259.664062 54.53125 260.3125 54.332031 260.972656 C 54.132812 261.632812 53.964844 262.300781 53.828125 262.976562 C 53.695312 263.652344 53.59375 264.335938 53.527344 265.023438 C 53.460938 265.707031 53.425781 266.394531 53.425781 267.085938 C 53.425781 268.511719 53.609375 269.917969 53.980469 271.296875 C 54.125 271.84375 54.304688 272.382812 54.511719 272.914062 C 55.105469 274.460938 55.921875 275.882812 56.953125 277.179688 C 57.988281 278.480469 59.191406 279.597656 60.5625 280.527344 L 60.539062 280.527344 C 60.03125 280.527344 59.527344 280.578125 59.027344 280.675781 C 58.527344 280.777344 58.042969 280.921875 57.570312 281.117188 C 57.101562 281.3125 56.652344 281.550781 56.230469 281.832031 C 55.808594 282.117188 55.414062 282.4375 55.054688 282.796875 C 54.695312 283.15625 54.371094 283.546875 54.089844 283.96875 C 53.808594 284.394531 53.566406 284.839844 53.375 285.308594 C 53.179688 285.777344 53.03125 286.261719 52.929688 286.761719 C 52.832031 287.257812 52.78125 287.761719 52.78125 288.269531 L 52.78125 288.386719 C 52.78125 288.894531 52.832031 289.398438 52.929688 289.898438 C 53.03125 290.394531 53.179688 290.878906 53.371094 291.347656 C 53.566406 291.820312 53.808594 292.265625 54.089844 292.6875 C 54.371094 293.109375 54.695312 293.5 55.054688 293.859375 C 55.414062 294.21875 55.804688 294.542969 56.230469 294.824219 C 56.652344 295.105469 57.101562 295.34375 57.570312 295.539062 C 58.042969 295.734375 58.527344 295.882812 59.027344 295.980469 C 59.527344 296.078125 60.03125 296.128906 60.539062 296.128906 L 171.707031 296.128906 C 172.214844 296.128906 172.722656 296.078125 173.21875 295.980469 C 173.71875 295.882812 174.207031 295.734375 174.675781 295.539062 C 175.148438 295.34375 175.59375 295.105469 176.015625 294.824219 C 176.441406 294.542969 176.832031 294.21875 177.191406 293.859375 C 177.554688 293.5 177.875 293.109375 178.15625 292.6875 C 178.441406 292.265625 178.679688 291.820312 178.875 291.347656 C 179.070312 290.878906 179.214844 290.394531 179.316406 289.898438 C 179.414062 289.398438 179.464844 288.894531 179.464844 288.386719 L 179.464844 288.269531 C 179.464844 287.761719 179.414062 287.257812 179.316406 286.761719 C 179.214844 286.261719 179.070312 285.777344 178.875 285.308594 C 178.679688 284.839844 178.441406 284.390625 178.15625 283.96875 C 177.875 283.546875 177.554688 283.15625 177.191406 282.796875 C 176.832031 282.4375 176.441406 282.117188 176.015625 281.832031 C 175.59375 281.550781 175.148438 281.3125 174.675781 281.117188 C 174.207031 280.921875 173.71875 280.777344 173.21875 280.675781 C 172.722656 280.578125 172.214844 280.527344 171.707031 280.527344 Z M 171.707031 280.527344 "/></g><path style=" stroke:none;fill-rule:nonzero;fill:#000000;fill-opacity:1;" d="M 87.570312 92.917969 C 87.980469 93.441406 89.449219 95.519531 90.464844 97.015625 C 90.746094 97.425781 91.105469 97.746094 91.546875 97.980469 C 91.988281 98.210938 92.457031 98.328125 92.953125 98.328125 L 139.296875 98.328125 C 139.796875 98.328125 140.265625 98.210938 140.707031 97.980469 C 141.144531 97.746094 141.507812 97.425781 141.785156 97.011719 C 142.804688 95.515625 144.265625 93.441406 144.675781 92.917969 C 147.402344 89.484375 150.347656 86.253906 153.515625 83.222656 C 154.722656 82.046875 155.65625 80.683594 156.3125 79.132812 C 156.972656 77.582031 157.300781 75.964844 157.304688 74.277344 L 157.304688 74.226562 C 157.304688 73.40625 157.222656 72.597656 157.0625 71.796875 C 156.902344 70.992188 156.667969 70.214844 156.351562 69.460938 C 156.039062 68.703125 155.65625 67.984375 155.199219 67.304688 C 154.742188 66.625 154.226562 65.996094 153.648438 65.417969 C 153.066406 64.839844 152.4375 64.324219 151.753906 63.871094 C 151.074219 63.417969 150.355469 63.03125 149.597656 62.71875 C 148.839844 62.40625 148.058594 62.171875 147.257812 62.011719 C 146.453125 61.851562 145.640625 61.773438 144.820312 61.773438 L 128.730469 61.773438 C 126.726562 59.714844 125.148438 56.546875 124.035156 52.332031 C 124.003906 52.210938 124 52.09375 124.03125 51.972656 C 124.058594 51.851562 124.117188 51.746094 124.199219 51.65625 C 124.285156 51.5625 124.386719 51.496094 124.503906 51.457031 C 124.621094 51.417969 124.742188 51.410156 124.863281 51.429688 C 125.8125 51.597656 126.75 51.824219 127.671875 52.117188 C 128.375 52.34375 129.097656 52.453125 129.835938 52.457031 C 130.304688 52.453125 130.769531 52.40625 131.226562 52.3125 C 131.6875 52.21875 132.132812 52.082031 132.566406 51.902344 C 133 51.722656 133.410156 51.5 133.800781 51.242188 C 134.1875 50.980469 134.550781 50.683594 134.878906 50.351562 C 135.210938 50.019531 135.507812 49.660156 135.765625 49.269531 C 136.027344 48.878906 136.246094 48.46875 136.421875 48.035156 C 136.601562 47.601562 136.738281 47.15625 136.828125 46.699219 C 136.917969 46.238281 136.964844 45.773438 136.964844 45.308594 L 136.964844 41.066406 C 136.964844 40.597656 136.917969 40.132812 136.828125 39.675781 C 136.738281 39.214844 136.601562 38.769531 136.421875 38.335938 C 136.246094 37.902344 136.027344 37.492188 135.765625 37.101562 C 135.507812 36.714844 135.210938 36.351562 134.878906 36.019531 C 134.550781 35.6875 134.1875 35.394531 133.800781 35.132812 C 133.410156 34.871094 133 34.648438 132.566406 34.46875 C 132.132812 34.289062 131.6875 34.152344 131.230469 34.058594 C 130.769531 33.964844 130.304688 33.917969 129.835938 33.917969 C 129.097656 33.917969 128.375 34.03125 127.671875 34.257812 C 126.765625 34.542969 125.847656 34.769531 124.910156 34.933594 C 124.785156 34.953125 124.660156 34.945312 124.542969 34.902344 C 124.421875 34.863281 124.320312 34.792969 124.234375 34.695312 C 124.152344 34.601562 124.097656 34.492188 124.070312 34.367188 C 124.042969 34.242188 124.050781 34.121094 124.089844 34 C 124.328125 33.265625 124.613281 32.554688 124.945312 31.863281 C 125.332031 31.101562 125.570312 30.296875 125.664062 29.449219 C 125.761719 28.601562 125.703125 27.761719 125.492188 26.9375 C 125.296875 26.164062 124.976562 25.449219 124.539062 24.785156 C 124.101562 24.121094 123.570312 23.542969 122.941406 23.058594 C 122.308594 22.570312 121.617188 22.199219 120.863281 21.941406 C 120.109375 21.683594 119.335938 21.554688 118.539062 21.554688 L 113.933594 21.554688 C 112.742188 21.539062 111.609375 21.792969 110.542969 22.324219 C 109.472656 22.855469 108.585938 23.597656 107.878906 24.558594 C 107.507812 25.078125 107.210938 25.636719 106.992188 26.238281 C 106.769531 26.835938 106.632812 27.453125 106.578125 28.089844 C 106.527344 28.726562 106.558594 29.359375 106.675781 29.988281 C 106.792969 30.617188 106.992188 31.214844 107.273438 31.789062 C 107.621094 32.503906 107.917969 33.238281 108.164062 33.996094 C 108.203125 34.117188 108.210938 34.238281 108.183594 34.363281 C 108.15625 34.488281 108.101562 34.597656 108.019531 34.695312 C 107.933594 34.789062 107.832031 34.859375 107.710938 34.902344 C 107.59375 34.945312 107.46875 34.953125 107.34375 34.929688 C 106.40625 34.765625 105.488281 34.539062 104.582031 34.253906 C 103.9375 34.046875 103.273438 33.933594 102.597656 33.917969 C 101.917969 33.902344 101.253906 33.980469 100.597656 34.152344 C 99.941406 34.324219 99.324219 34.589844 98.746094 34.9375 C 98.164062 35.289062 97.648438 35.714844 97.191406 36.214844 C 96.566406 36.910156 96.089844 37.695312 95.761719 38.570312 C 95.433594 39.445312 95.277344 40.347656 95.289062 41.28125 L 95.289062 45.308594 C 95.289062 45.773438 95.335938 46.238281 95.425781 46.699219 C 95.515625 47.15625 95.652344 47.601562 95.828125 48.035156 C 96.007812 48.46875 96.226562 48.878906 96.488281 49.269531 C 96.746094 49.660156 97.042969 50.019531 97.371094 50.351562 C 97.703125 50.683594 98.0625 50.980469 98.453125 51.242188 C 98.84375 51.5 99.253906 51.722656 99.6875 51.902344 C 100.117188 52.082031 100.566406 52.21875 101.023438 52.3125 C 101.484375 52.40625 101.949219 52.453125 102.417969 52.457031 C 103.15625 52.453125 103.878906 52.34375 104.582031 52.117188 C 105.503906 51.824219 106.4375 51.597656 107.390625 51.429688 C 107.511719 51.410156 107.628906 51.417969 107.746094 51.457031 C 107.863281 51.492188 107.964844 51.558594 108.046875 51.648438 C 108.132812 51.734375 108.1875 51.839844 108.21875 51.957031 C 108.25 52.078125 108.253906 52.195312 108.222656 52.3125 C 107.109375 56.539062 105.527344 59.710938 103.523438 61.769531 L 87.433594 61.769531 C 86.613281 61.769531 85.800781 61.851562 84.996094 62.011719 C 84.191406 62.171875 83.414062 62.40625 82.65625 62.71875 C 81.898438 63.03125 81.175781 63.417969 80.496094 63.871094 C 79.8125 64.324219 79.183594 64.84375 78.601562 65.421875 C 78.023438 66 77.507812 66.628906 77.050781 67.308594 C 76.59375 67.988281 76.210938 68.707031 75.898438 69.460938 C 75.582031 70.21875 75.347656 70.996094 75.1875 71.800781 C 75.027344 72.601562 74.945312 73.414062 74.945312 74.230469 L 74.945312 74.277344 C 74.949219 75.964844 75.28125 77.582031 75.9375 79.132812 C 76.59375 80.683594 77.53125 82.046875 78.738281 83.222656 C 81.90625 86.253906 84.851562 89.484375 87.570312 92.917969 Z M 116.125 83.414062 C 115.757812 83.414062 115.394531 83.378906 115.035156 83.308594 C 114.675781 83.238281 114.328125 83.132812 113.988281 82.992188 C 113.652344 82.851562 113.332031 82.679688 113.027344 82.476562 C 112.722656 82.273438 112.441406 82.042969 112.179688 81.785156 C 111.921875 81.527344 111.691406 81.246094 111.488281 80.945312 C 111.285156 80.640625 111.113281 80.320312 110.972656 79.980469 C 110.832031 79.644531 110.726562 79.296875 110.65625 78.9375 C 110.582031 78.578125 110.546875 78.21875 110.546875 77.851562 C 110.546875 77.488281 110.582031 77.125 110.65625 76.765625 C 110.726562 76.410156 110.832031 76.0625 110.972656 75.722656 C 111.113281 75.386719 111.285156 75.066406 111.488281 74.761719 C 111.691406 74.457031 111.921875 74.175781 112.179688 73.917969 C 112.441406 73.660156 112.722656 73.429688 113.027344 73.226562 C 113.332031 73.023438 113.652344 72.851562 113.988281 72.710938 C 114.328125 72.574219 114.675781 72.46875 115.035156 72.394531 C 115.394531 72.324219 115.757812 72.289062 116.125 72.289062 C 116.488281 72.289062 116.851562 72.324219 117.210938 72.394531 C 117.570312 72.46875 117.917969 72.574219 118.257812 72.710938 C 118.597656 72.851562 118.917969 73.023438 119.222656 73.226562 C 119.527344 73.429688 119.808594 73.660156 120.066406 73.917969 C 120.324219 74.175781 120.558594 74.457031 120.761719 74.761719 C 120.964844 75.066406 121.136719 75.386719 121.273438 75.722656 C 121.414062 76.0625 121.519531 76.410156 121.59375 76.765625 C 121.664062 77.125 121.699219 77.488281 121.699219 77.851562 C 121.699219 78.21875 121.664062 78.578125 121.59375 78.9375 C 121.519531 79.296875 121.414062 79.644531 121.273438 79.980469 C 121.136719 80.320312 120.964844 80.640625 120.761719 80.945312 C 120.558594 81.246094 120.324219 81.527344 120.066406 81.785156 C 119.808594 82.042969 119.527344 82.273438 119.222656 82.476562 C 118.917969 82.679688 118.597656 82.851562 118.257812 82.992188 C 117.917969 83.132812 117.570312 83.238281 117.210938 83.308594 C 116.851562 83.378906 116.488281 83.414062 116.125 83.414062 Z M 139.484375 72.289062 C 139.851562 72.289062 140.214844 72.324219 140.574219 72.394531 C 140.933594 72.46875 141.28125 72.574219 141.617188 72.714844 C 141.957031 72.851562 142.277344 73.023438 142.582031 73.226562 C 142.886719 73.429688 143.167969 73.660156 143.429688 73.917969 C 143.6875 74.175781 143.917969 74.457031 144.121094 74.761719 C 144.324219 75.066406 144.496094 75.386719 144.636719 75.722656 C 144.777344 76.0625 144.882812 76.410156 144.953125 76.769531 C 145.023438 77.125 145.0625 77.488281 145.0625 77.851562 C 145.0625 78.21875 145.023438 78.578125 144.953125 78.9375 C 144.882812 79.296875 144.777344 79.644531 144.636719 79.980469 C 144.496094 80.320312 144.324219 80.640625 144.121094 80.945312 C 143.917969 81.246094 143.6875 81.527344 143.425781 81.785156 C 143.167969 82.042969 142.886719 82.277344 142.582031 82.476562 C 142.277344 82.679688 141.957031 82.851562 141.617188 82.992188 C 141.28125 83.132812 140.929688 83.238281 140.574219 83.308594 C 140.214844 83.378906 139.851562 83.414062 139.484375 83.414062 C 139.117188 83.414062 138.753906 83.378906 138.398438 83.308594 C 138.039062 83.238281 137.6875 83.132812 137.351562 82.992188 C 137.011719 82.851562 136.691406 82.679688 136.386719 82.476562 C 136.082031 82.273438 135.800781 82.042969 135.542969 81.785156 C 135.28125 81.527344 135.050781 81.246094 134.847656 80.941406 C 134.644531 80.640625 134.472656 80.320312 134.332031 79.980469 C 134.191406 79.644531 134.085938 79.296875 134.015625 78.9375 C 133.945312 78.578125 133.910156 78.21875 133.910156 77.851562 C 133.910156 77.488281 133.945312 77.125 134.015625 76.765625 C 134.085938 76.410156 134.191406 76.0625 134.332031 75.722656 C 134.472656 75.386719 134.644531 75.066406 134.847656 74.761719 C 135.050781 74.457031 135.28125 74.175781 135.542969 73.917969 C 135.800781 73.660156 136.082031 73.429688 136.386719 73.226562 C 136.691406 73.023438 137.011719 72.851562 137.351562 72.710938 C 137.691406 72.574219 138.039062 72.46875 138.398438 72.394531 C 138.757812 72.324219 139.121094 72.289062 139.484375 72.289062 Z M 92.773438 72.289062 C 93.136719 72.289062 93.5 72.324219 93.859375 72.394531 C 94.21875 72.46875 94.566406 72.574219 94.90625 72.710938 C 95.242188 72.851562 95.566406 73.023438 95.871094 73.226562 C 96.175781 73.429688 96.457031 73.660156 96.714844 73.917969 C 96.972656 74.175781 97.203125 74.457031 97.40625 74.761719 C 97.613281 75.066406 97.785156 75.386719 97.921875 75.722656 C 98.0625 76.0625 98.167969 76.410156 98.242188 76.765625 C 98.3125 77.125 98.347656 77.488281 98.347656 77.851562 C 98.347656 78.21875 98.3125 78.578125 98.242188 78.9375 C 98.167969 79.296875 98.0625 79.644531 97.921875 79.980469 C 97.785156 80.320312 97.613281 80.640625 97.40625 80.945312 C 97.203125 81.246094 96.972656 81.527344 96.714844 81.785156 C 96.457031 82.042969 96.175781 82.273438 95.871094 82.476562 C 95.566406 82.679688 95.242188 82.851562 94.90625 82.992188 C 94.566406 83.132812 94.21875 83.238281 93.859375 83.308594 C 93.5 83.378906 93.136719 83.414062 92.773438 83.414062 C 92.40625 83.414062 92.042969 83.378906 91.683594 83.308594 C 91.324219 83.238281 90.976562 83.132812 90.636719 82.992188 C 90.300781 82.851562 89.976562 82.679688 89.675781 82.476562 C 89.371094 82.273438 89.085938 82.042969 88.828125 81.785156 C 88.570312 81.527344 88.339844 81.246094 88.136719 80.945312 C 87.933594 80.640625 87.761719 80.320312 87.621094 79.980469 C 87.480469 79.644531 87.375 79.296875 87.304688 78.9375 C 87.230469 78.578125 87.195312 78.21875 87.195312 77.851562 C 87.195312 77.488281 87.230469 77.125 87.304688 76.765625 C 87.375 76.410156 87.480469 76.0625 87.621094 75.722656 C 87.761719 75.386719 87.933594 75.066406 88.136719 74.761719 C 88.339844 74.457031 88.570312 74.179688 88.828125 73.917969 C 89.085938 73.660156 89.367188 73.429688 89.671875 73.226562 C 89.976562 73.023438 90.296875 72.851562 90.636719 72.714844 C 90.972656 72.574219 91.324219 72.46875 91.683594 72.398438 C 92.039062 72.324219 92.402344 72.289062 92.769531 72.289062 Z M 92.773438 72.289062 "/><g style="fill:#000000;fill-opacity:1;"><g transform="translate(118.554289, 201.005398)"><path style="stroke:none" d="M -0.0625 -3.265625 L -0.0625 -2.8125 L -1.046875 -2.453125 L -1.015625 -0.90625 L -0.015625 -0.59375 L 0 -0.140625 L -3.65625 -1.328125 L -3.671875 -1.921875 Z M -3.21875 -1.609375 L -1.359375 -1.015625 L -1.390625 -2.3125 L -3.21875 -1.671875 Z M -3.21875 -1.609375 "/></g></g><g style="fill:#000000;fill-opacity:1;"><g transform="translate(118.487173, 197.601167)"><path style="stroke:none" d="M 0.015625 -1.421875 C 0.0234375 -1.203125 -0.0195312 -1.003906 -0.125 -0.828125 C -0.226562 -0.660156 -0.378906 -0.523438 -0.578125 -0.421875 C -0.785156 -0.328125 -1.046875 -0.273438 -1.359375 -0.265625 C -1.671875 -0.265625 -1.9375 -0.3125 -2.15625 -0.40625 C -2.375 -0.5 -2.535156 -0.628906 -2.640625 -0.796875 C -2.742188 -0.972656 -2.800781 -1.175781 -2.8125 -1.40625 C -2.8125 -1.582031 -2.78125 -1.742188 -2.71875 -1.890625 C -2.65625 -2.046875 -2.546875 -2.175781 -2.390625 -2.28125 L -2.40625 -2.34375 L -3.875 -2.3125 L -3.890625 -2.703125 L -0.0625 -2.78125 L -0.046875 -2.390625 L -0.453125 -2.375 L -0.453125 -2.3125 C -0.316406 -2.238281 -0.203125 -2.125 -0.109375 -1.96875 C -0.0234375 -1.8125 0.015625 -1.628906 0.015625 -1.421875 Z M -0.34375 -1.546875 C -0.34375 -1.796875 -0.429688 -1.992188 -0.609375 -2.140625 C -0.785156 -2.296875 -1.050781 -2.367188 -1.40625 -2.359375 C -1.769531 -2.359375 -2.035156 -2.273438 -2.203125 -2.109375 C -2.367188 -1.953125 -2.453125 -1.75 -2.453125 -1.5 C -2.441406 -1.238281 -2.351562 -1.035156 -2.1875 -0.890625 C -2.019531 -0.753906 -1.75 -0.6875 -1.375 -0.6875 C -0.675781 -0.707031 -0.332031 -0.992188 -0.34375 -1.546875 Z M -0.34375 -1.546875 "/></g></g><g style="fill:#000000;fill-opacity:1;"><g transform="translate(118.422841, 194.338156)"><path style="stroke:none" d="M 0.015625 -1.421875 C 0.0234375 -1.203125 -0.0195312 -1.003906 -0.125 -0.828125 C -0.226562 -0.660156 -0.378906 -0.523438 -0.578125 -0.421875 C -0.785156 -0.328125 -1.046875 -0.273438 -1.359375 -0.265625 C -1.671875 -0.265625 -1.9375 -0.3125 -2.15625 -0.40625 C -2.375 -0.5 -2.535156 -0.628906 -2.640625 -0.796875 C -2.742188 -0.972656 -2.800781 -1.175781 -2.8125 -1.40625 C -2.8125 -1.582031 -2.78125 -1.742188 -2.71875 -1.890625 C -2.65625 -2.046875 -2.546875 -2.175781 -2.390625 -2.28125 L -2.40625 -2.34375 L -3.875 -2.3125 L -3.890625 -2.703125 L -0.0625 -2.78125 L -0.046875 -2.390625 L -0.453125 -2.375 L -0.453125 -2.3125 C -0.316406 -2.238281 -0.203125 -2.125 -0.109375 -1.96875 C -0.0234375 -1.8125 0.015625 -1.628906 0.015625 -1.421875 Z M -0.34375 -1.546875 C -0.34375 -1.796875 -0.429688 -1.992188 -0.609375 -2.140625 C -0.785156 -2.296875 -1.050781 -2.367188 -1.40625 -2.359375 C -1.769531 -2.359375 -2.035156 -2.273438 -2.203125 -2.109375 C -2.367188 -1.953125 -2.453125 -1.75 -2.453125 -1.5 C -2.441406 -1.238281 -2.351562 -1.035156 -2.1875 -0.890625 C -2.019531 -0.753906 -1.75 -0.6875 -1.375 -0.6875 C -0.675781 -0.707031 -0.332031 -0.992188 -0.34375 -1.546875 Z M -0.34375 -1.546875 "/></g></g><g style="fill:#000000;fill-opacity:1;"><g transform="translate(118.358509, 191.075146)"><path style="stroke:none" d=""/></g></g><g style="fill:#000000;fill-opacity:1;"><g transform="translate(118.333988, 189.831388)"><path style="stroke:none" d="M 0.03125 -1.125 C 0.03125 -0.851562 -0.0351562 -0.640625 -0.171875 -0.484375 C -0.304688 -0.335938 -0.503906 -0.257812 -0.765625 -0.25 C -0.921875 -0.25 -1.054688 -0.28125 -1.171875 -0.34375 C -1.296875 -0.40625 -1.390625 -0.503906 -1.453125 -0.640625 C -1.523438 -0.785156 -1.585938 -0.972656 -1.640625 -1.203125 C -1.671875 -1.398438 -1.707031 -1.550781 -1.75 -1.65625 C -1.789062 -1.757812 -1.835938 -1.828125 -1.890625 -1.859375 C -1.941406 -1.898438 -2.003906 -1.914062 -2.078125 -1.90625 C -2.203125 -1.90625 -2.296875 -1.859375 -2.359375 -1.765625 C -2.429688 -1.679688 -2.46875 -1.546875 -2.46875 -1.359375 C -2.457031 -1.179688 -2.414062 -1.03125 -2.34375 -0.90625 C -2.28125 -0.78125 -2.179688 -0.664062 -2.046875 -0.5625 L -2.046875 -0.515625 L -2.3125 -0.3125 C -2.46875 -0.425781 -2.585938 -0.566406 -2.671875 -0.734375 C -2.753906 -0.910156 -2.800781 -1.113281 -2.8125 -1.34375 C -2.8125 -1.664062 -2.742188 -1.90625 -2.609375 -2.0625 C -2.472656 -2.21875 -2.28125 -2.296875 -2.03125 -2.296875 L -0.578125 -2.328125 C -0.429688 -2.335938 -0.359375 -2.410156 -0.359375 -2.546875 C -0.359375 -2.585938 -0.363281 -2.628906 -0.375 -2.671875 L -0.375 -2.703125 L -0.09375 -2.75 C -0.0703125 -2.71875 -0.0546875 -2.675781 -0.046875 -2.625 C -0.0351562 -2.582031 -0.03125 -2.535156 -0.03125 -2.484375 C -0.03125 -2.328125 -0.0625 -2.210938 -0.125 -2.140625 C -0.1875 -2.066406 -0.285156 -2.019531 -0.421875 -2 L -0.40625 -1.9375 C -0.257812 -1.863281 -0.148438 -1.757812 -0.078125 -1.625 C -0.015625 -1.488281 0.0195312 -1.320312 0.03125 -1.125 Z M -0.296875 -1.21875 C -0.296875 -1.375 -0.332031 -1.503906 -0.40625 -1.609375 C -0.476562 -1.710938 -0.578125 -1.789062 -0.703125 -1.84375 C -0.828125 -1.90625 -0.972656 -1.9375 -1.140625 -1.9375 L -1.484375 -1.921875 L -1.5 -1.875 C -1.457031 -1.8125 -1.421875 -1.738281 -1.390625 -1.65625 C -1.359375 -1.570312 -1.332031 -1.453125 -1.3125 -1.296875 C -1.28125 -1.128906 -1.242188 -1 -1.203125 -0.90625 C -1.160156 -0.820312 -1.101562 -0.757812 -1.03125 -0.71875 C -0.957031 -0.6875 -0.875 -0.671875 -0.78125 -0.671875 C -0.613281 -0.671875 -0.488281 -0.71875 -0.40625 -0.8125 C -0.320312 -0.914062 -0.285156 -1.050781 -0.296875 -1.21875 Z M -0.296875 -1.21875 "/></g></g><g style="fill:#000000;fill-opacity:1;"><g transform="translate(118.278254, 187.004436)"><path style="stroke:none" d=""/></g></g><g style="fill:#000000;fill-opacity:1;"><g transform="translate(118.253732, 185.760678)"><path style="stroke:none" d="M 0.03125 -1.09375 C 0.03125 -0.894531 -0.0195312 -0.738281 -0.125 -0.625 C -0.238281 -0.519531 -0.40625 -0.460938 -0.625 -0.453125 L -3.84375 -0.390625 L -3.84375 -0.796875 L -0.640625 -0.859375 C -0.535156 -0.859375 -0.457031 -0.878906 -0.40625 -0.921875 C -0.351562 -0.972656 -0.328125 -1.046875 -0.328125 -1.140625 C -0.335938 -1.191406 -0.351562 -1.25 -0.375 -1.3125 L -0.359375 -1.34375 L -0.046875 -1.390625 C -0.0234375 -1.359375 -0.0078125 -1.316406 0 -1.265625 C 0.0195312 -1.210938 0.03125 -1.15625 0.03125 -1.09375 Z M 0.03125 -1.09375 "/></g></g><g style="fill:#000000;fill-opacity:1;"><g transform="translate(118.224424, 184.274114)"><path style="stroke:none" d="M -3.28125 -0.609375 C -3.28125 -0.523438 -3.300781 -0.457031 -3.34375 -0.40625 C -3.394531 -0.351562 -3.460938 -0.328125 -3.546875 -0.328125 C -3.628906 -0.316406 -3.695312 -0.335938 -3.75 -0.390625 C -3.8125 -0.441406 -3.84375 -0.507812 -3.84375 -0.59375 C -3.84375 -0.6875 -3.816406 -0.757812 -3.765625 -0.8125 C -3.710938 -0.863281 -3.644531 -0.894531 -3.5625 -0.90625 C -3.476562 -0.90625 -3.410156 -0.878906 -3.359375 -0.828125 C -3.304688 -0.773438 -3.28125 -0.703125 -3.28125 -0.609375 Z M -0.015625 -0.46875 L -2.75 -0.421875 L -2.75 -0.828125 L -0.015625 -0.875 Z M -0.015625 -0.46875 "/></g></g><g style="fill:#000000;fill-opacity:1;"><g transform="translate(118.197705, 182.918861)"><path style="stroke:none" d="M -0.46875 -1.828125 L -0.1875 -1.984375 C -0.113281 -1.910156 -0.0625 -1.820312 -0.03125 -1.71875 C 0 -1.613281 0.015625 -1.503906 0.015625 -1.390625 C 0.0234375 -0.859375 -0.226562 -0.585938 -0.75 -0.578125 L -2.421875 -0.546875 L -2.40625 -0.078125 L -2.734375 -0.078125 L -2.75 -0.546875 L -3.328125 -0.53125 L -3.390625 -0.9375 L -2.75 -0.953125 L -2.765625 -1.84375 L -2.4375 -1.84375 L -2.421875 -0.953125 L -0.796875 -0.984375 C -0.484375 -0.992188 -0.332031 -1.132812 -0.34375 -1.40625 C -0.34375 -1.5625 -0.382812 -1.6875 -0.46875 -1.78125 Z M -0.46875 -1.828125 "/></g></g><g style="fill:#000000;fill-opacity:1;"><g transform="translate(118.156673, 180.837671)"><path style="stroke:none" d="M -0.46875 -1.828125 L -0.1875 -1.984375 C -0.113281 -1.910156 -0.0625 -1.820312 -0.03125 -1.71875 C 0 -1.613281 0.015625 -1.503906 0.015625 -1.390625 C 0.0234375 -0.859375 -0.226562 -0.585938 -0.75 -0.578125 L -2.421875 -0.546875 L -2.40625 -0.078125 L -2.734375 -0.078125 L -2.75 -0.546875 L -3.328125 -0.53125 L -3.390625 -0.9375 L -2.75 -0.953125 L -2.765625 -1.84375 L -2.4375 -1.84375 L -2.421875 -0.953125 L -0.796875 -0.984375 C -0.484375 -0.992188 -0.332031 -1.132812 -0.34375 -1.40625 C -0.34375 -1.5625 -0.382812 -1.6875 -0.46875 -1.78125 Z M -0.46875 -1.828125 "/></g></g><g style="fill:#000000;fill-opacity:1;"><g transform="translate(118.115642, 178.756482)"><path style="stroke:none" d="M 0.03125 -1.09375 C 0.03125 -0.894531 -0.0195312 -0.738281 -0.125 -0.625 C -0.238281 -0.519531 -0.40625 -0.460938 -0.625 -0.453125 L -3.84375 -0.390625 L -3.84375 -0.796875 L -0.640625 -0.859375 C -0.535156 -0.859375 -0.457031 -0.878906 -0.40625 -0.921875 C -0.351562 -0.972656 -0.328125 -1.046875 -0.328125 -1.140625 C -0.335938 -1.191406 -0.351562 -1.25 -0.375 -1.3125 L -0.359375 -1.34375 L -0.046875 -1.390625 C -0.0234375 -1.359375 -0.0078125 -1.316406 0 -1.265625 C 0.0195312 -1.210938 0.03125 -1.15625 0.03125 -1.09375 Z M 0.03125 -1.09375 "/></g></g><g style="fill:#000000;fill-opacity:1;"><g transform="translate(118.086333, 177.269918)"><path style="stroke:none" d="M -1.328125 -2.578125 L -1.296875 -0.6875 C -0.960938 -0.71875 -0.71875 -0.804688 -0.5625 -0.953125 C -0.40625 -1.109375 -0.332031 -1.316406 -0.34375 -1.578125 C -0.34375 -1.765625 -0.378906 -1.914062 -0.453125 -2.03125 C -0.523438 -2.144531 -0.632812 -2.238281 -0.78125 -2.3125 L -0.78125 -2.359375 L -0.625 -2.625 C -0.425781 -2.550781 -0.269531 -2.425781 -0.15625 -2.25 C -0.0507812 -2.082031 0.00390625 -1.859375 0.015625 -1.578125 C 0.0234375 -1.304688 -0.0195312 -1.078125 -0.125 -0.890625 C -0.226562 -0.703125 -0.378906 -0.550781 -0.578125 -0.4375 C -0.785156 -0.332031 -1.046875 -0.273438 -1.359375 -0.265625 C -1.671875 -0.265625 -1.9375 -0.316406 -2.15625 -0.421875 C -2.375 -0.523438 -2.535156 -0.664062 -2.640625 -0.84375 C -2.742188 -1.03125 -2.800781 -1.242188 -2.8125 -1.484375 C -2.820312 -1.835938 -2.726562 -2.113281 -2.53125 -2.3125 C -2.332031 -2.519531 -2.039062 -2.628906 -1.65625 -2.640625 C -1.507812 -2.640625 -1.40625 -2.632812 -1.34375 -2.625 Z M -1.65625 -2.234375 C -1.945312 -2.222656 -2.15625 -2.15625 -2.28125 -2.03125 C -2.40625 -1.90625 -2.46875 -1.726562 -2.46875 -1.5 C -2.457031 -1.257812 -2.382812 -1.070312 -2.25 -0.9375 C -2.125 -0.800781 -1.914062 -0.722656 -1.625 -0.703125 Z M -1.65625 -2.234375 "/></g></g><g style="fill:#000000;fill-opacity:1;"><g transform="translate(118.028889, 174.356253)"><path style="stroke:none" d=""/></g></g><g style="fill:#000000;fill-opacity:1;"><g transform="translate(118.004368, 173.112495)"><path style="stroke:none" d="M 0.015625 -1.8125 C 0.015625 -1.613281 -0.0195312 -1.4375 -0.09375 -1.28125 C -0.164062 -1.132812 -0.265625 -1.019531 -0.390625 -0.9375 L -0.375 -0.875 L -0.015625 -0.875 L -0.015625 -0.46875 L -3.84375 -0.390625 L -3.84375 -0.796875 L -2.34375 -0.828125 L -2.328125 -0.890625 C -2.648438 -1.085938 -2.8125 -1.382812 -2.8125 -1.78125 C -2.820312 -2 -2.773438 -2.195312 -2.671875 -2.375 C -2.566406 -2.550781 -2.410156 -2.6875 -2.203125 -2.78125 C -2.003906 -2.882812 -1.742188 -2.9375 -1.421875 -2.9375 C -1.117188 -2.945312 -0.859375 -2.90625 -0.640625 -2.8125 C -0.421875 -2.71875 -0.257812 -2.582031 -0.15625 -2.40625 C -0.0507812 -2.238281 0.00390625 -2.039062 0.015625 -1.8125 Z M -0.34375 -1.71875 C -0.351562 -2.269531 -0.707031 -2.535156 -1.40625 -2.515625 C -1.78125 -2.515625 -2.050781 -2.4375 -2.21875 -2.28125 C -2.382812 -2.132812 -2.460938 -1.929688 -2.453125 -1.671875 C -2.453125 -1.421875 -2.363281 -1.21875 -2.1875 -1.0625 C -2.007812 -0.914062 -1.738281 -0.84375 -1.375 -0.84375 C -1.019531 -0.851562 -0.757812 -0.9375 -0.59375 -1.09375 C -0.425781 -1.257812 -0.34375 -1.46875 -0.34375 -1.71875 Z M -0.34375 -1.71875 "/></g></g><g style="fill:#000000;fill-opacity:1;"><g transform="translate(117.940085, 169.851965)"><path style="stroke:none" d="M -3.28125 -0.609375 C -3.28125 -0.523438 -3.300781 -0.457031 -3.34375 -0.40625 C -3.394531 -0.351562 -3.460938 -0.328125 -3.546875 -0.328125 C -3.628906 -0.316406 -3.695312 -0.335938 -3.75 -0.390625 C -3.8125 -0.441406 -3.84375 -0.507812 -3.84375 -0.59375 C -3.84375 -0.6875 -3.816406 -0.757812 -3.765625 -0.8125 C -3.710938 -0.863281 -3.644531 -0.894531 -3.5625 -0.90625 C -3.476562 -0.90625 -3.410156 -0.878906 -3.359375 -0.828125 C -3.304688 -0.773438 -3.28125 -0.703125 -3.28125 -0.609375 Z M -0.015625 -0.46875 L -2.75 -0.421875 L -2.75 -0.828125 L -0.015625 -0.875 Z M -0.015625 -0.46875 "/></g></g><g style="fill:#000000;fill-opacity:1;"><g transform="translate(117.913366, 168.496712)"><path style="stroke:none" d="M -0.46875 -1.828125 L -0.1875 -1.984375 C -0.113281 -1.910156 -0.0625 -1.820312 -0.03125 -1.71875 C 0 -1.613281 0.015625 -1.503906 0.015625 -1.390625 C 0.0234375 -0.859375 -0.226562 -0.585938 -0.75 -0.578125 L -2.421875 -0.546875 L -2.40625 -0.078125 L -2.734375 -0.078125 L -2.75 -0.546875 L -3.328125 -0.53125 L -3.390625 -0.9375 L -2.75 -0.953125 L -2.765625 -1.84375 L -2.4375 -1.84375 L -2.421875 -0.953125 L -0.796875 -0.984375 C -0.484375 -0.992188 -0.332031 -1.132812 -0.34375 -1.40625 C -0.34375 -1.5625 -0.382812 -1.6875 -0.46875 -1.78125 Z M -0.46875 -1.828125 "/></g></g><g style="fill:#000000;fill-opacity:1;"><g transform="translate(117.872334, 166.415523)"><path style="stroke:none" d=""/></g></g><g style="fill:#000000;fill-opacity:1;"><g transform="translate(117.847813, 165.171764)"><path style="stroke:none" d="M 0.015625 -1.5625 C 0.0234375 -1.3125 -0.0195312 -1.085938 -0.125 -0.890625 C -0.238281 -0.703125 -0.394531 -0.550781 -0.59375 -0.4375 C -0.800781 -0.332031 -1.054688 -0.273438 -1.359375 -0.265625 C -1.660156 -0.265625 -1.921875 -0.3125 -2.140625 -0.40625 C -2.359375 -0.507812 -2.519531 -0.65625 -2.625 -0.84375 C -2.738281 -1.03125 -2.800781 -1.25 -2.8125 -1.5 C -2.8125 -1.757812 -2.757812 -1.988281 -2.65625 -2.1875 C -2.550781 -2.382812 -2.394531 -2.535156 -2.1875 -2.640625 C -1.976562 -2.753906 -1.722656 -2.8125 -1.421875 -2.8125 C -1.117188 -2.820312 -0.859375 -2.773438 -0.640625 -2.671875 C -0.429688 -2.578125 -0.269531 -2.429688 -0.15625 -2.234375 C -0.0390625 -2.046875 0.015625 -1.820312 0.015625 -1.5625 Z M -0.34375 -1.5625 C -0.351562 -1.84375 -0.441406 -2.050781 -0.609375 -2.1875 C -0.785156 -2.320312 -1.050781 -2.382812 -1.40625 -2.375 C -1.769531 -2.375 -2.035156 -2.300781 -2.203125 -2.15625 C -2.378906 -2.007812 -2.460938 -1.796875 -2.453125 -1.515625 C -2.441406 -1.242188 -2.347656 -1.035156 -2.171875 -0.890625 C -2.003906 -0.753906 -1.738281 -0.6875 -1.375 -0.6875 C -1.019531 -0.695312 -0.753906 -0.773438 -0.578125 -0.921875 C -0.410156 -1.078125 -0.332031 -1.289062 -0.34375 -1.5625 Z M -0.34375 -1.5625 "/></g></g><g style="fill:#000000;fill-opacity:1;"><g transform="translate(117.785973, 162.035115)"><path style="stroke:none" d="M -0.015625 -0.609375 L -2.421875 -0.5625 L -2.40625 -0.09375 L -2.734375 -0.09375 L -2.75 -0.5625 C -2.875 -0.519531 -2.988281 -0.5 -3.09375 -0.5 C -3.269531 -0.5 -3.414062 -0.535156 -3.53125 -0.609375 C -3.65625 -0.679688 -3.75 -0.78125 -3.8125 -0.90625 C -3.875 -1.039062 -3.910156 -1.195312 -3.921875 -1.375 C -3.921875 -1.644531 -3.863281 -1.851562 -3.75 -2 L -3.453125 -1.859375 L -3.453125 -1.8125 C -3.535156 -1.707031 -3.578125 -1.566406 -3.578125 -1.390625 C -3.578125 -1.234375 -3.53125 -1.113281 -3.4375 -1.03125 C -3.351562 -0.945312 -3.234375 -0.90625 -3.078125 -0.90625 C -2.984375 -0.90625 -2.875 -0.925781 -2.75 -0.96875 L -2.765625 -1.84375 L -2.4375 -1.84375 L -2.421875 -0.96875 L -0.015625 -1.015625 Z M -0.015625 -0.609375 "/></g></g><g style="fill:#000000;fill-opacity:1;"><g transform="translate(117.747579, 160.087716)"><path style="stroke:none" d=""/></g></g><g style="fill:#000000;fill-opacity:1;"><g transform="translate(117.723058, 158.843958)"><path style="stroke:none" d="M 0.015625 -1.8125 C 0.015625 -1.613281 -0.0195312 -1.4375 -0.09375 -1.28125 C -0.164062 -1.132812 -0.265625 -1.019531 -0.390625 -0.9375 L -0.375 -0.875 L -0.015625 -0.875 L -0.015625 -0.46875 L -3.84375 -0.390625 L -3.84375 -0.796875 L -2.34375 -0.828125 L -2.328125 -0.890625 C -2.648438 -1.085938 -2.8125 -1.382812 -2.8125 -1.78125 C -2.820312 -2 -2.773438 -2.195312 -2.671875 -2.375 C -2.566406 -2.550781 -2.410156 -2.6875 -2.203125 -2.78125 C -2.003906 -2.882812 -1.742188 -2.9375 -1.421875 -2.9375 C -1.117188 -2.945312 -0.859375 -2.90625 -0.640625 -2.8125 C -0.421875 -2.71875 -0.257812 -2.582031 -0.15625 -2.40625 C -0.0507812 -2.238281 0.00390625 -2.039062 0.015625 -1.8125 Z M -0.34375 -1.71875 C -0.351562 -2.269531 -0.707031 -2.535156 -1.40625 -2.515625 C -1.78125 -2.515625 -2.050781 -2.4375 -2.21875 -2.28125 C -2.382812 -2.132812 -2.460938 -1.929688 -2.453125 -1.671875 C -2.453125 -1.421875 -2.363281 -1.21875 -2.1875 -1.0625 C -2.007812 -0.914062 -1.738281 -0.84375 -1.375 -0.84375 C -1.019531 -0.851562 -0.757812 -0.9375 -0.59375 -1.09375 C -0.425781 -1.257812 -0.34375 -1.46875 -0.34375 -1.71875 Z M -0.34375 -1.71875 "/></g></g><g style="fill:#000000;fill-opacity:1;"><g transform="translate(117.658775, 155.583428)"><path style="stroke:none" d="M 0.015625 -1.5625 C 0.0234375 -1.3125 -0.0195312 -1.085938 -0.125 -0.890625 C -0.238281 -0.703125 -0.394531 -0.550781 -0.59375 -0.4375 C -0.800781 -0.332031 -1.054688 -0.273438 -1.359375 -0.265625 C -1.660156 -0.265625 -1.921875 -0.3125 -2.140625 -0.40625 C -2.359375 -0.507812 -2.519531 -0.65625 -2.625 -0.84375 C -2.738281 -1.03125 -2.800781 -1.25 -2.8125 -1.5 C -2.8125 -1.757812 -2.757812 -1.988281 -2.65625 -2.1875 C -2.550781 -2.382812 -2.394531 -2.535156 -2.1875 -2.640625 C -1.976562 -2.753906 -1.722656 -2.8125 -1.421875 -2.8125 C -1.117188 -2.820312 -0.859375 -2.773438 -0.640625 -2.671875 C -0.429688 -2.578125 -0.269531 -2.429688 -0.15625 -2.234375 C -0.0390625 -2.046875 0.015625 -1.820312 0.015625 -1.5625 Z M -0.34375 -1.5625 C -0.351562 -1.84375 -0.441406 -2.050781 -0.609375 -2.1875 C -0.785156 -2.320312 -1.050781 -2.382812 -1.40625 -2.375 C -1.769531 -2.375 -2.035156 -2.300781 -2.203125 -2.15625 C -2.378906 -2.007812 -2.460938 -1.796875 -2.453125 -1.515625 C -2.441406 -1.242188 -2.347656 -1.035156 -2.171875 -0.890625 C -2.003906 -0.753906 -1.738281 -0.6875 -1.375 -0.6875 C -1.019531 -0.695312 -0.753906 -0.773438 -0.578125 -0.921875 C -0.410156 -1.078125 -0.332031 -1.289062 -0.34375 -1.5625 Z M -0.34375 -1.5625 "/></g></g><g style="fill:#000000;fill-opacity:1;"><g transform="translate(117.596935, 152.446779)"><path style="stroke:none" d="M 0.015625 -1.421875 C 0.0234375 -1.203125 -0.0195312 -1.003906 -0.125 -0.828125 C -0.226562 -0.660156 -0.378906 -0.523438 -0.578125 -0.421875 C -0.785156 -0.328125 -1.046875 -0.273438 -1.359375 -0.265625 C -1.671875 -0.265625 -1.9375 -0.3125 -2.15625 -0.40625 C -2.375 -0.5 -2.535156 -0.628906 -2.640625 -0.796875 C -2.742188 -0.972656 -2.800781 -1.175781 -2.8125 -1.40625 C -2.8125 -1.582031 -2.78125 -1.742188 -2.71875 -1.890625 C -2.65625 -2.046875 -2.546875 -2.175781 -2.390625 -2.28125 L -2.40625 -2.34375 L -3.875 -2.3125 L -3.890625 -2.703125 L -0.0625 -2.78125 L -0.046875 -2.390625 L -0.453125 -2.375 L -0.453125 -2.3125 C -0.316406 -2.238281 -0.203125 -2.125 -0.109375 -1.96875 C -0.0234375 -1.8125 0.015625 -1.628906 0.015625 -1.421875 Z M -0.34375 -1.546875 C -0.34375 -1.796875 -0.429688 -1.992188 -0.609375 -2.140625 C -0.785156 -2.296875 -1.050781 -2.367188 -1.40625 -2.359375 C -1.769531 -2.359375 -2.035156 -2.273438 -2.203125 -2.109375 C -2.367188 -1.953125 -2.453125 -1.75 -2.453125 -1.5 C -2.441406 -1.238281 -2.351562 -1.035156 -2.1875 -0.890625 C -2.019531 -0.753906 -1.75 -0.6875 -1.375 -0.6875 C -0.675781 -0.707031 -0.332031 -0.992188 -0.34375 -1.546875 Z M -0.34375 -1.546875 "/></g></g><g style="fill:#000000;fill-opacity:1;"><g transform="translate(117.532603, 149.183768)"><path style="stroke:none" d="M 1.140625 -0.5625 C 1.140625 -0.46875 1.132812 -0.378906 1.125 -0.296875 C 1.113281 -0.222656 1.097656 -0.15625 1.078125 -0.09375 L 0.75 -0.171875 L 0.734375 -0.21875 C 0.753906 -0.257812 0.769531 -0.304688 0.78125 -0.359375 C 0.789062 -0.421875 0.796875 -0.484375 0.796875 -0.546875 C 0.796875 -0.660156 0.78125 -0.753906 0.75 -0.828125 C 0.71875 -0.898438 0.664062 -0.960938 0.59375 -1.015625 C 0.53125 -1.066406 0.4375 -1.109375 0.3125 -1.140625 L 0.03125 -1.234375 L -2.734375 -0.09375 L -2.75 -0.53125 L -0.53125 -1.421875 L -0.53125 -1.46875 L -2.78125 -2.265625 L -2.78125 -2.6875 L 0.390625 -1.515625 C 0.566406 -1.453125 0.710938 -1.375 0.828125 -1.28125 C 0.941406 -1.195312 1.019531 -1.097656 1.0625 -0.984375 C 1.113281 -0.867188 1.140625 -0.726562 1.140625 -0.5625 Z M 1.140625 -0.5625 "/></g></g><g style="fill:#000000;fill-opacity:1;"><g transform="translate(117.475794, 146.302309)"><path style="stroke:none" d=""/></g></g><g style="fill:#000000;fill-opacity:1;"><g transform="translate(117.451273, 145.058551)"><path style="stroke:none" d="M -0.46875 -1.828125 L -0.1875 -1.984375 C -0.113281 -1.910156 -0.0625 -1.820312 -0.03125 -1.71875 C 0 -1.613281 0.015625 -1.503906 0.015625 -1.390625 C 0.0234375 -0.859375 -0.226562 -0.585938 -0.75 -0.578125 L -2.421875 -0.546875 L -2.40625 -0.078125 L -2.734375 -0.078125 L -2.75 -0.546875 L -3.328125 -0.53125 L -3.390625 -0.9375 L -2.75 -0.953125 L -2.765625 -1.84375 L -2.4375 -1.84375 L -2.421875 -0.953125 L -0.796875 -0.984375 C -0.484375 -0.992188 -0.332031 -1.132812 -0.34375 -1.40625 C -0.34375 -1.5625 -0.382812 -1.6875 -0.46875 -1.78125 Z M -0.46875 -1.828125 "/></g></g><g style="fill:#000000;fill-opacity:1;"><g transform="translate(117.410876, 143.009574)"><path style="stroke:none" d="M -1.328125 -2.578125 L -1.296875 -0.6875 C -0.960938 -0.71875 -0.71875 -0.804688 -0.5625 -0.953125 C -0.40625 -1.109375 -0.332031 -1.316406 -0.34375 -1.578125 C -0.34375 -1.765625 -0.378906 -1.914062 -0.453125 -2.03125 C -0.523438 -2.144531 -0.632812 -2.238281 -0.78125 -2.3125 L -0.78125 -2.359375 L -0.625 -2.625 C -0.425781 -2.550781 -0.269531 -2.425781 -0.15625 -2.25 C -0.0507812 -2.082031 0.00390625 -1.859375 0.015625 -1.578125 C 0.0234375 -1.304688 -0.0195312 -1.078125 -0.125 -0.890625 C -0.226562 -0.703125 -0.378906 -0.550781 -0.578125 -0.4375 C -0.785156 -0.332031 -1.046875 -0.273438 -1.359375 -0.265625 C -1.671875 -0.265625 -1.9375 -0.316406 -2.15625 -0.421875 C -2.375 -0.523438 -2.535156 -0.664062 -2.640625 -0.84375 C -2.742188 -1.03125 -2.800781 -1.242188 -2.8125 -1.484375 C -2.820312 -1.835938 -2.726562 -2.113281 -2.53125 -2.3125 C -2.332031 -2.519531 -2.039062 -2.628906 -1.65625 -2.640625 C -1.507812 -2.640625 -1.40625 -2.632812 -1.34375 -2.625 Z M -1.65625 -2.234375 C -1.945312 -2.222656 -2.15625 -2.15625 -2.28125 -2.03125 C -2.40625 -1.90625 -2.46875 -1.726562 -2.46875 -1.5 C -2.457031 -1.257812 -2.382812 -1.070312 -2.25 -0.9375 C -2.125 -0.800781 -1.914062 -0.722656 -1.625 -0.703125 Z M -1.65625 -2.234375 "/></g></g><g style="fill:#000000;fill-opacity:1;"><g transform="translate(117.354263, 140.138037)"><path style="stroke:none" d="M -0.015625 -0.5625 L 0 -0.125 L -1.4375 -0.9375 L -2.734375 -0.125 L -2.75 -0.578125 L -1.71875 -1.21875 L -1.71875 -1.28125 L -2.765625 -1.90625 L -2.78125 -2.34375 L -1.453125 -1.5625 L -0.046875 -2.421875 L -0.03125 -1.96875 L -1.1875 -1.28125 L -1.1875 -1.21875 Z M -0.015625 -0.5625 "/></g></g><g style="fill:#000000;fill-opacity:1;"><g transform="translate(117.304048, 137.591057)"><path style="stroke:none" d="M -0.46875 -1.828125 L -0.1875 -1.984375 C -0.113281 -1.910156 -0.0625 -1.820312 -0.03125 -1.71875 C 0 -1.613281 0.015625 -1.503906 0.015625 -1.390625 C 0.0234375 -0.859375 -0.226562 -0.585938 -0.75 -0.578125 L -2.421875 -0.546875 L -2.40625 -0.078125 L -2.734375 -0.078125 L -2.75 -0.546875 L -3.328125 -0.53125 L -3.390625 -0.9375 L -2.75 -0.953125 L -2.765625 -1.84375 L -2.4375 -1.84375 L -2.421875 -0.953125 L -0.796875 -0.984375 C -0.484375 -0.992188 -0.332031 -1.132812 -0.34375 -1.40625 C -0.34375 -1.5625 -0.382812 -1.6875 -0.46875 -1.78125 Z M -0.46875 -1.828125 "/></g></g></g></svg>