<svg xmlns="http://www.w3.org/2000/svg" xmlns:xlink="http://www.w3.org/1999/xlink" width="300" zoomAndPan="magnify" viewBox="0 0 224.87999 299.999988" height="400" preserveAspectRatio="xMidYMid meet" version="1.2"><defs><clipPath id="ff072e6313"><path d="M 22.488281 3 L 202 3 L 202 298.273438 L 22.488281 298.273438 Z M 22.488281 3 "/></clipPath></defs><g id="2a58a04104"><g clip-rule="nonzero" clip-path="url(#ff072e6313)"><path style=" stroke:none;fill-rule:nonzero;fill:#000000;fill-opacity:1;" d="M 185.351562 254.226562 C 186.386719 252.210938 186.902344 250.070312 186.898438 247.808594 C 186.898438 238.085938 177.589844 233.050781 162.625 230.398438 C 161.324219 227.671875 159.703125 224.566406 157.914062 221.101562 C 157.914062 221.101562 159.496094 197.25 167.757812 189.449219 C 172.015625 185.332031 175.933594 180.917969 179.511719 176.199219 C 190.007812 162.640625 202.390625 141.503906 201.582031 118.800781 C 200.894531 99.667969 191.851562 42.230469 149.777344 16.722656 C 149.464844 16.523438 149.117188 16.335938 148.835938 16.148438 C 148.695312 16.980469 148.5 17.796875 148.25 18.605469 C 148.09375 19.242188 147.902344 19.867188 147.675781 20.484375 C 147.515625 21.035156 147.324219 21.574219 147.101562 22.105469 C 146.90625 22.640625 146.679688 23.214844 146.441406 23.789062 C 144.710938 28.027344 142.53125 32.023438 139.90625 35.777344 C 142.585938 37.253906 145.175781 38.871094 147.679688 40.625 C 150.179688 42.382812 152.582031 44.269531 154.878906 46.289062 C 157.179688 48.304688 159.359375 50.441406 161.425781 52.695312 C 163.492188 54.949219 165.429688 57.308594 167.238281 59.773438 C 169.046875 62.238281 170.71875 64.792969 172.25 67.4375 C 173.78125 70.085938 175.167969 72.804688 176.402344 75.601562 C 177.640625 78.394531 178.71875 81.25 179.644531 84.164062 C 180.574219 87.074219 181.339844 90.03125 181.941406 93.027344 C 188.292969 123.53125 186.132812 145.542969 180.285156 163.136719 C 182.519531 152.609375 184.4375 142.089844 184.363281 127.597656 C 184.101562 75.578125 158.933594 48.800781 138.71875 37.347656 C 138.183594 38.007812 137.636719 38.65625 137.097656 39.277344 C 136.328125 40.1875 135.484375 41.027344 134.574219 41.800781 C 134.167969 42.179688 133.730469 42.523438 133.265625 42.835938 C 132.847656 43.132812 132.410156 43.402344 131.957031 43.644531 C 131.53125 43.867188 131.070312 44.105469 130.648438 44.292969 C 130.238281 44.457031 129.816406 44.585938 129.386719 44.679688 C 128.710938 44.847656 128.03125 44.902344 127.339844 44.839844 C 125.050781 44.613281 122.894531 43.941406 120.878906 42.835938 C 122.355469 42.847656 123.820312 42.710938 125.269531 42.429688 C 126.71875 42.148438 128.128906 41.722656 129.492188 41.160156 C 130.855469 40.59375 132.152344 39.894531 133.375 39.070312 C 134.597656 38.242188 135.726562 37.300781 136.761719 36.246094 C 137.253906 35.804688 137.714844 35.332031 138.144531 34.828125 C 141.914062 30.714844 144.304688 25.792969 146.1875 22.1875 C 147.1875 20.179688 147.96875 18.09375 148.535156 15.921875 C 148.777344 15.039062 148.953125 14.140625 149.070312 13.230469 C 148.921875 10.851562 147.914062 10.773438 146.300781 11.886719 C 145.613281 12.398438 144.960938 12.949219 144.34375 13.542969 C 123.515625 2.117188 110.132812 1.421875 111.667969 4.941406 C 113.691406 8.765625 114.707031 12.84375 114.710938 17.171875 C 114.769531 20.675781 114.628906 24.171875 114.285156 27.65625 L 114.671875 27.65625 C 116.601562 27.699219 118.511719 27.917969 120.398438 28.316406 C 119.589844 28.652344 118.824219 29.039062 118.015625 29.460938 C 108.597656 27.46875 100.9375 28.425781 93.714844 29.660156 C 83.710938 32.230469 76.714844 36.578125 75.234375 37.722656 C 72.890625 39.605469 66.003906 49.789062 60.078125 52.628906 C 54.15625 55.472656 32.679688 62.339844 32.914062 68.925781 C 33.101562 74.496094 30.144531 84.480469 30.871094 92.59375 C 30.96875 94.113281 31.25 95.59375 31.71875 97.042969 C 32.527344 99.386719 34.636719 101.351562 37.371094 102.925781 C 42.597656 104.308594 52.636719 106.6875 55.90625 105.078125 C 60.410156 102.960938 67.484375 91.171875 70.789062 90.898438 C 74.09375 90.625 109.59375 96.816406 117.628906 93.515625 C 125.664062 90.210938 130.402344 77.679688 131.589844 74.375 C 129.707031 85.019531 126.171875 92.855469 117.902344 95.699219 C 109.632812 98.539062 99.441406 96.582031 99.441406 96.582031 C 95.402344 126.824219 66.0625 135.8125 50.679688 154.714844 C 35.296875 173.621094 42.636719 204.8125 52.5625 217.339844 C 54.027344 219.152344 55.71875 220.722656 57.640625 222.042969 C 56.019531 225.128906 54.597656 227.953125 53.449219 230.398438 C 38.445312 233.015625 29.136719 238.050781 29.136719 247.769531 C 29.136719 250.03125 29.648438 252.171875 30.683594 254.1875 C 25.40625 256.292969 22.488281 258.636719 22.488281 261.140625 L 22.488281 278.613281 C 22.488281 283.734375 34.734375 289.304688 53.984375 293.179688 C 62.46875 294.863281 71.015625 296.082031 79.632812 296.832031 C 88.515625 297.679688 98.058594 298.140625 108.023438 298.140625 C 121.515625 298.164062 134.953125 297.277344 148.328125 295.488281 C 175.246094 291.796875 193.539062 284.882812 193.539062 278.613281 L 193.539062 261.179688 C 193.511719 258.714844 190.589844 256.332031 185.351562 254.226562 Z M 36.832031 78.648438 C 33.753906 76.257812 36.832031 74.375 38.953125 72.492188 C 41.070312 70.613281 41.597656 67.121094 43.660156 67.65625 C 49.097656 69.078125 39.875 80.992188 36.832031 78.648438 Z M 90.023438 51.667969 C 87.195312 52.054688 82.902344 51.980469 80.941406 50.632812 C 78.984375 49.289062 79.445312 46.871094 80.332031 45.5625 C 81.753906 43.492188 84.25 45.300781 86.828125 46.945312 C 90.058594 49.027344 93.132812 51.285156 90.023438 51.667969 Z M 120.445312 29.925781 C 121.21875 29.546875 122.027344 29.160156 122.875 28.8125 C 128.179688 26.46875 134.253906 24.476562 133.71875 25.398438 C 133.332031 26.046875 130.796875 28.117188 127.753906 30.308594 C 127.179688 30.769531 126.605469 31.195312 125.984375 31.617188 C 121.953125 34.496094 117.601562 37.261719 116.488281 37.261719 C 114.371094 37.261719 113.449219 36.078125 115.453125 33.039062 C 115.980469 32.230469 117.976562 31.117188 120.445312 29.925781 Z M 50.746094 238.085938 C 50.746094 237.972656 50.746094 237.890625 50.746094 237.8125 C 50.816406 237.992188 50.90625 238.15625 51.019531 238.3125 C 51.105469 238.503906 51.203125 238.683594 51.320312 238.859375 C 51.59375 239.273438 51.902344 239.695312 52.261719 240.121094 C 52.472656 240.40625 52.703125 240.675781 52.957031 240.929688 C 53.222656 241.203125 53.457031 241.425781 53.769531 241.699219 C 53.835938 241.773438 53.910156 241.835938 53.996094 241.886719 C 54.191406 242.113281 54.410156 242.320312 54.644531 242.507812 L 55.585938 243.195312 C 55.988281 243.523438 56.414062 243.816406 56.859375 244.082031 C 57.207031 244.308594 57.554688 244.503906 57.941406 244.730469 C 58.515625 245.078125 59.164062 245.425781 59.824219 245.773438 C 60.324219 246 60.859375 246.273438 61.398438 246.5 L 62.339844 246.921875 C 62.390625 246.90625 62.441406 246.90625 62.492188 246.921875 L 63.148438 247.234375 L 64.375 247.695312 C 65.804688 248.191406 67.304688 248.691406 68.914062 249.152344 C 69.914062 249.464844 70.996094 249.765625 72.070312 250 L 72.53125 250.113281 C 72.917969 250.226562 73.304688 250.300781 73.691406 250.386719 C 74.078125 250.46875 74.492188 250.574219 74.914062 250.648438 C 75.117188 250.71875 75.324219 250.773438 75.535156 250.808594 C 75.800781 250.808594 76.109375 250.921875 76.375 250.960938 C 76.921875 251.074219 77.421875 251.183594 77.957031 251.269531 L 79.144531 251.496094 C 80.765625 251.769531 82.410156 252.03125 84.183594 252.265625 C 84.683594 252.265625 85.125 252.378906 85.644531 252.457031 C 87.101562 252.644531 88.609375 252.804688 90.183594 252.953125 C 91.753906 253.105469 93.339844 253.226562 94.996094 253.339844 L 98.027344 253.566406 C 99.066406 253.613281 100.109375 253.6875 101.148438 253.726562 C 101.933594 253.878906 102.726562 253.957031 103.53125 253.953125 C 105.027344 253.953125 106.523438 253.953125 107.996094 253.953125 C 109.464844 253.953125 110.953125 253.953125 112.449219 253.953125 C 113.25 253.957031 114.046875 253.878906 114.832031 253.726562 C 122.355469 253.472656 129.828125 252.722656 137.25 251.476562 C 137.9375 251.363281 138.632812 251.242188 139.320312 251.089844 L 140.433594 250.867188 L 140.941406 250.742188 C 141.820312 250.59375 142.691406 250.402344 143.550781 250.167969 C 144.746094 249.894531 145.894531 249.59375 146.980469 249.285156 L 148.054688 248.9375 C 148.777344 248.75 149.476562 248.511719 150.125 248.285156 C 150.777344 248.0625 151.171875 247.9375 151.671875 247.75 C 152.167969 247.5625 152.472656 247.441406 152.855469 247.289062 L 153.054688 247.214844 C 153.515625 247.015625 153.996094 246.828125 154.402344 246.632812 C 155.289062 246.246094 156.136719 245.832031 156.898438 245.40625 C 158 244.832031 159.050781 244.175781 160.054688 243.441406 C 160.382812 243.230469 160.695312 243 160.996094 242.753906 C 161.304688 242.558594 161.589844 242.324219 161.84375 242.058594 C 162.105469 241.832031 162.34375 241.597656 162.566406 241.371094 C 162.792969 241.144531 162.953125 240.984375 163.152344 240.796875 C 163.464844 240.460938 163.742188 240.101562 163.992188 239.714844 C 164.15625 239.554688 164.300781 239.378906 164.414062 239.179688 C 164.699219 238.746094 164.957031 238.296875 165.1875 237.832031 L 165.1875 238.03125 C 164.6875 241.644531 162.03125 244.984375 157.152344 247.863281 C 149.15625 252.570312 135.1875 255.890625 114.691406 256.8125 C 113.917969 256.992188 113.136719 257.070312 112.347656 257.046875 C 110.847656 257.046875 109.386719 257.046875 107.929688 257.046875 C 106.46875 257.046875 105 257.046875 103.5 257.046875 C 102.722656 257.070312 101.953125 256.992188 101.195312 256.8125 C 99.074219 256.738281 97.039062 256.625 95.117188 256.472656 C 87.632812 255.992188 80.234375 254.898438 72.925781 253.199219 C 71.691406 252.898438 70.507812 252.585938 69.386719 252.257812 C 65.640625 251.238281 62.078125 249.78125 58.695312 247.882812 C 53.910156 245.003906 51.253906 241.625 50.746094 238.085938 Z M 184.730469 269.054688 C 183.535156 269.554688 182.234375 270.089844 180.8125 270.625 C 180.738281 270.667969 180.660156 270.691406 180.578125 270.699219 C 179.503906 271.085938 178.382812 271.472656 177.234375 271.859375 C 175.539062 272.433594 173.691406 272.96875 171.734375 273.46875 C 171.269531 273.589844 170.792969 273.703125 170.347656 273.851562 L 169.886719 273.964844 C 167.304688 274.625 164.582031 275.238281 161.691406 275.847656 C 156.851562 276.789062 151.574219 277.65625 145.960938 278.390625 C 133.375 279.964844 120.738281 280.746094 108.050781 280.730469 C 105.28125 280.730469 102.550781 280.695312 99.855469 280.617188 C 97.125 280.535156 94.46875 280.421875 91.859375 280.308594 C 85.398438 279.996094 79.164062 279.460938 73.285156 278.773438 C 72.011719 278.652344 70.78125 278.5 69.59375 278.351562 C 68.40625 278.199219 67.285156 278.039062 66.164062 277.851562 C 65.042969 277.664062 63.933594 277.542969 62.820312 277.355469 L 58.628906 276.65625 C 57.320312 276.433594 56.085938 276.195312 54.859375 275.921875 C 51.820312 275.351562 48.9375 274.699219 46.242188 274.042969 C 44.972656 273.742188 43.746094 273.390625 42.589844 273.101562 C 36.25 271.292969 31.210938 269.335938 27.742188 267.265625 C 27.339844 267.054688 26.957031 266.808594 26.59375 266.53125 C 26.179688 266.242188 25.785156 265.929688 25.40625 265.589844 C 25.136719 265.394531 24.882812 265.179688 24.644531 264.941406 C 24.382812 264.714844 24.136719 264.472656 23.910156 264.207031 C 23.730469 264.023438 23.578125 263.820312 23.449219 263.597656 C 29.636719 271.125 65.136719 278.964844 108.023438 278.964844 C 120.699219 279.003906 133.335938 278.308594 145.933594 276.882812 C 170.632812 274.058594 188.546875 268.734375 192.660156 263.511719 C 191.390625 265.402344 188.621094 267.246094 184.703125 269.054688 Z M 184.730469 269.054688 "/></g><g style="fill:#000000;fill-opacity:1;"><g transform="translate(118.554289, 201.005398)"><path style="stroke:none" d="M -0.0625 -3.265625 L -0.0625 -2.8125 L -1.046875 -2.453125 L -1.015625 -0.90625 L -0.015625 -0.59375 L 0 -0.140625 L -3.65625 -1.328125 L -3.671875 -1.921875 Z M -3.21875 -1.609375 L -1.359375 -1.015625 L -1.390625 -2.3125 L -3.21875 -1.671875 Z M -3.21875 -1.609375 "/></g></g><g style="fill:#000000;fill-opacity:1;"><g transform="translate(118.487173, 197.601167)"><path style="stroke:none" d="M 0.015625 -1.421875 C 0.0234375 -1.203125 -0.0195312 -1.003906 -0.125 -0.828125 C -0.226562 -0.660156 -0.378906 -0.523438 -0.578125 -0.421875 C -0.785156 -0.328125 -1.046875 -0.273438 -1.359375 -0.265625 C -1.671875 -0.265625 -1.9375 -0.3125 -2.15625 -0.40625 C -2.375 -0.5 -2.535156 -0.628906 -2.640625 -0.796875 C -2.742188 -0.972656 -2.800781 -1.175781 -2.8125 -1.40625 C -2.8125 -1.582031 -2.78125 -1.742188 -2.71875 -1.890625 C -2.65625 -2.046875 -2.546875 -2.175781 -2.390625 -2.28125 L -2.40625 -2.34375 L -3.875 -2.3125 L -3.890625 -2.703125 L -0.0625 -2.78125 L -0.046875 -2.390625 L -0.453125 -2.375 L -0.453125 -2.3125 C -0.316406 -2.238281 -0.203125 -2.125 -0.109375 -1.96875 C -0.0234375 -1.8125 0.015625 -1.628906 0.015625 -1.421875 Z M -0.34375 -1.546875 C -0.34375 -1.796875 -0.429688 -1.992188 -0.609375 -2.140625 C -0.785156 -2.296875 -1.050781 -2.367188 -1.40625 -2.359375 C -1.769531 -2.359375 -2.035156 -2.273438 -2.203125 -2.109375 C -2.367188 -1.953125 -2.453125 -1.75 -2.453125 -1.5 C -2.441406 -1.238281 -2.351562 -1.035156 -2.1875 -0.890625 C -2.019531 -0.753906 -1.75 -0.6875 -1.375 -0.6875 C -0.675781 -0.707031 -0.332031 -0.992188 -0.34375 -1.546875 Z M -0.34375 -1.546875 "/></g></g><g style="fill:#000000;fill-opacity:1;"><g transform="translate(118.422841, 194.338156)"><path style="stroke:none" d="M 0.015625 -1.421875 C 0.0234375 -1.203125 -0.0195312 -1.003906 -0.125 -0.828125 C -0.226562 -0.660156 -0.378906 -0.523438 -0.578125 -0.421875 C -0.785156 -0.328125 -1.046875 -0.273438 -1.359375 -0.265625 C -1.671875 -0.265625 -1.9375 -0.3125 -2.15625 -0.40625 C -2.375 -0.5 -2.535156 -0.628906 -2.640625 -0.796875 C -2.742188 -0.972656 -2.800781 -1.175781 -2.8125 -1.40625 C -2.8125 -1.582031 -2.78125 -1.742188 -2.71875 -1.890625 C -2.65625 -2.046875 -2.546875 -2.175781 -2.390625 -2.28125 L -2.40625 -2.34375 L -3.875 -2.3125 L -3.890625 -2.703125 L -0.0625 -2.78125 L -0.046875 -2.390625 L -0.453125 -2.375 L -0.453125 -2.3125 C -0.316406 -2.238281 -0.203125 -2.125 -0.109375 -1.96875 C -0.0234375 -1.8125 0.015625 -1.628906 0.015625 -1.421875 Z M -0.34375 -1.546875 C -0.34375 -1.796875 -0.429688 -1.992188 -0.609375 -2.140625 C -0.785156 -2.296875 -1.050781 -2.367188 -1.40625 -2.359375 C -1.769531 -2.359375 -2.035156 -2.273438 -2.203125 -2.109375 C -2.367188 -1.953125 -2.453125 -1.75 -2.453125 -1.5 C -2.441406 -1.238281 -2.351562 -1.035156 -2.1875 -0.890625 C -2.019531 -0.753906 -1.75 -0.6875 -1.375 -0.6875 C -0.675781 -0.707031 -0.332031 -0.992188 -0.34375 -1.546875 Z M -0.34375 -1.546875 "/></g></g><g style="fill:#000000;fill-opacity:1;"><g transform="translate(118.358509, 191.075146)"><path style="stroke:none" d=""/></g></g><g style="fill:#000000;fill-opacity:1;"><g transform="translate(118.333988, 189.831388)"><path style="stroke:none" d="M 0.03125 -1.125 C 0.03125 -0.851562 -0.0351562 -0.640625 -0.171875 -0.484375 C -0.304688 -0.335938 -0.503906 -0.257812 -0.765625 -0.25 C -0.921875 -0.25 -1.054688 -0.28125 -1.171875 -0.34375 C -1.296875 -0.40625 -1.390625 -0.503906 -1.453125 -0.640625 C -1.523438 -0.785156 -1.585938 -0.972656 -1.640625 -1.203125 C -1.671875 -1.398438 -1.707031 -1.550781 -1.75 -1.65625 C -1.789062 -1.757812 -1.835938 -1.828125 -1.890625 -1.859375 C -1.941406 -1.898438 -2.003906 -1.914062 -2.078125 -1.90625 C -2.203125 -1.90625 -2.296875 -1.859375 -2.359375 -1.765625 C -2.429688 -1.679688 -2.46875 -1.546875 -2.46875 -1.359375 C -2.457031 -1.179688 -2.414062 -1.03125 -2.34375 -0.90625 C -2.28125 -0.78125 -2.179688 -0.664062 -2.046875 -0.5625 L -2.046875 -0.515625 L -2.3125 -0.3125 C -2.46875 -0.425781 -2.585938 -0.566406 -2.671875 -0.734375 C -2.753906 -0.910156 -2.800781 -1.113281 -2.8125 -1.34375 C -2.8125 -1.664062 -2.742188 -1.90625 -2.609375 -2.0625 C -2.472656 -2.21875 -2.28125 -2.296875 -2.03125 -2.296875 L -0.578125 -2.328125 C -0.429688 -2.335938 -0.359375 -2.410156 -0.359375 -2.546875 C -0.359375 -2.585938 -0.363281 -2.628906 -0.375 -2.671875 L -0.375 -2.703125 L -0.09375 -2.75 C -0.0703125 -2.71875 -0.0546875 -2.675781 -0.046875 -2.625 C -0.0351562 -2.582031 -0.03125 -2.535156 -0.03125 -2.484375 C -0.03125 -2.328125 -0.0625 -2.210938 -0.125 -2.140625 C -0.1875 -2.066406 -0.285156 -2.019531 -0.421875 -2 L -0.40625 -1.9375 C -0.257812 -1.863281 -0.148438 -1.757812 -0.078125 -1.625 C -0.015625 -1.488281 0.0195312 -1.320312 0.03125 -1.125 Z M -0.296875 -1.21875 C -0.296875 -1.375 -0.332031 -1.503906 -0.40625 -1.609375 C -0.476562 -1.710938 -0.578125 -1.789062 -0.703125 -1.84375 C -0.828125 -1.90625 -0.972656 -1.9375 -1.140625 -1.9375 L -1.484375 -1.921875 L -1.5 -1.875 C -1.457031 -1.8125 -1.421875 -1.738281 -1.390625 -1.65625 C -1.359375 -1.570312 -1.332031 -1.453125 -1.3125 -1.296875 C -1.28125 -1.128906 -1.242188 -1 -1.203125 -0.90625 C -1.160156 -0.820312 -1.101562 -0.757812 -1.03125 -0.71875 C -0.957031 -0.6875 -0.875 -0.671875 -0.78125 -0.671875 C -0.613281 -0.671875 -0.488281 -0.71875 -0.40625 -0.8125 C -0.320312 -0.914062 -0.285156 -1.050781 -0.296875 -1.21875 Z M -0.296875 -1.21875 "/></g></g><g style="fill:#000000;fill-opacity:1;"><g transform="translate(118.278254, 187.004436)"><path style="stroke:none" d=""/></g></g><g style="fill:#000000;fill-opacity:1;"><g transform="translate(118.253732, 185.760678)"><path style="stroke:none" d="M 0.03125 -1.09375 C 0.03125 -0.894531 -0.0195312 -0.738281 -0.125 -0.625 C -0.238281 -0.519531 -0.40625 -0.460938 -0.625 -0.453125 L -3.84375 -0.390625 L -3.84375 -0.796875 L -0.640625 -0.859375 C -0.535156 -0.859375 -0.457031 -0.878906 -0.40625 -0.921875 C -0.351562 -0.972656 -0.328125 -1.046875 -0.328125 -1.140625 C -0.335938 -1.191406 -0.351562 -1.25 -0.375 -1.3125 L -0.359375 -1.34375 L -0.046875 -1.390625 C -0.0234375 -1.359375 -0.0078125 -1.316406 0 -1.265625 C 0.0195312 -1.210938 0.03125 -1.15625 0.03125 -1.09375 Z M 0.03125 -1.09375 "/></g></g><g style="fill:#000000;fill-opacity:1;"><g transform="translate(118.224424, 184.274114)"><path style="stroke:none" d="M -3.28125 -0.609375 C -3.28125 -0.523438 -3.300781 -0.457031 -3.34375 -0.40625 C -3.394531 -0.351562 -3.460938 -0.328125 -3.546875 -0.328125 C -3.628906 -0.316406 -3.695312 -0.335938 -3.75 -0.390625 C -3.8125 -0.441406 -3.84375 -0.507812 -3.84375 -0.59375 C -3.84375 -0.6875 -3.816406 -0.757812 -3.765625 -0.8125 C -3.710938 -0.863281 -3.644531 -0.894531 -3.5625 -0.90625 C -3.476562 -0.90625 -3.410156 -0.878906 -3.359375 -0.828125 C -3.304688 -0.773438 -3.28125 -0.703125 -3.28125 -0.609375 Z M -0.015625 -0.46875 L -2.75 -0.421875 L -2.75 -0.828125 L -0.015625 -0.875 Z M -0.015625 -0.46875 "/></g></g><g style="fill:#000000;fill-opacity:1;"><g transform="translate(118.197705, 182.918861)"><path style="stroke:none" d="M -0.46875 -1.828125 L -0.1875 -1.984375 C -0.113281 -1.910156 -0.0625 -1.820312 -0.03125 -1.71875 C 0 -1.613281 0.015625 -1.503906 0.015625 -1.390625 C 0.0234375 -0.859375 -0.226562 -0.585938 -0.75 -0.578125 L -2.421875 -0.546875 L -2.40625 -0.078125 L -2.734375 -0.078125 L -2.75 -0.546875 L -3.328125 -0.53125 L -3.390625 -0.9375 L -2.75 -0.953125 L -2.765625 -1.84375 L -2.4375 -1.84375 L -2.421875 -0.953125 L -0.796875 -0.984375 C -0.484375 -0.992188 -0.332031 -1.132812 -0.34375 -1.40625 C -0.34375 -1.5625 -0.382812 -1.6875 -0.46875 -1.78125 Z M -0.46875 -1.828125 "/></g></g><g style="fill:#000000;fill-opacity:1;"><g transform="translate(118.156673, 180.837671)"><path style="stroke:none" d="M -0.46875 -1.828125 L -0.1875 -1.984375 C -0.113281 -1.910156 -0.0625 -1.820312 -0.03125 -1.71875 C 0 -1.613281 0.015625 -1.503906 0.015625 -1.390625 C 0.0234375 -0.859375 -0.226562 -0.585938 -0.75 -0.578125 L -2.421875 -0.546875 L -2.40625 -0.078125 L -2.734375 -0.078125 L -2.75 -0.546875 L -3.328125 -0.53125 L -3.390625 -0.9375 L -2.75 -0.953125 L -2.765625 -1.84375 L -2.4375 -1.84375 L -2.421875 -0.953125 L -0.796875 -0.984375 C -0.484375 -0.992188 -0.332031 -1.132812 -0.34375 -1.40625 C -0.34375 -1.5625 -0.382812 -1.6875 -0.46875 -1.78125 Z M -0.46875 -1.828125 "/></g></g><g style="fill:#000000;fill-opacity:1;"><g transform="translate(118.115642, 178.756482)"><path style="stroke:none" d="M 0.03125 -1.09375 C 0.03125 -0.894531 -0.0195312 -0.738281 -0.125 -0.625 C -0.238281 -0.519531 -0.40625 -0.460938 -0.625 -0.453125 L -3.84375 -0.390625 L -3.84375 -0.796875 L -0.640625 -0.859375 C -0.535156 -0.859375 -0.457031 -0.878906 -0.40625 -0.921875 C -0.351562 -0.972656 -0.328125 -1.046875 -0.328125 -1.140625 C -0.335938 -1.191406 -0.351562 -1.25 -0.375 -1.3125 L -0.359375 -1.34375 L -0.046875 -1.390625 C -0.0234375 -1.359375 -0.0078125 -1.316406 0 -1.265625 C 0.0195312 -1.210938 0.03125 -1.15625 0.03125 -1.09375 Z M 0.03125 -1.09375 "/></g></g><g style="fill:#000000;fill-opacity:1;"><g transform="translate(118.086333, 177.269918)"><path style="stroke:none" d="M -1.328125 -2.578125 L -1.296875 -0.6875 C -0.960938 -0.71875 -0.71875 -0.804688 -0.5625 -0.953125 C -0.40625 -1.109375 -0.332031 -1.316406 -0.34375 -1.578125 C -0.34375 -1.765625 -0.378906 -1.914062 -0.453125 -2.03125 C -0.523438 -2.144531 -0.632812 -2.238281 -0.78125 -2.3125 L -0.78125 -2.359375 L -0.625 -2.625 C -0.425781 -2.550781 -0.269531 -2.425781 -0.15625 -2.25 C -0.0507812 -2.082031 0.00390625 -1.859375 0.015625 -1.578125 C 0.0234375 -1.304688 -0.0195312 -1.078125 -0.125 -0.890625 C -0.226562 -0.703125 -0.378906 -0.550781 -0.578125 -0.4375 C -0.785156 -0.332031 -1.046875 -0.273438 -1.359375 -0.265625 C -1.671875 -0.265625 -1.9375 -0.316406 -2.15625 -0.421875 C -2.375 -0.523438 -2.535156 -0.664062 -2.640625 -0.84375 C -2.742188 -1.03125 -2.800781 -1.242188 -2.8125 -1.484375 C -2.820312 -1.835938 -2.726562 -2.113281 -2.53125 -2.3125 C -2.332031 -2.519531 -2.039062 -2.628906 -1.65625 -2.640625 C -1.507812 -2.640625 -1.40625 -2.632812 -1.34375 -2.625 Z M -1.65625 -2.234375 C -1.945312 -2.222656 -2.15625 -2.15625 -2.28125 -2.03125 C -2.40625 -1.90625 -2.46875 -1.726562 -2.46875 -1.5 C -2.457031 -1.257812 -2.382812 -1.070312 -2.25 -0.9375 C -2.125 -0.800781 -1.914062 -0.722656 -1.625 -0.703125 Z M -1.65625 -2.234375 "/></g></g><g style="fill:#000000;fill-opacity:1;"><g transform="translate(118.028889, 174.356253)"><path style="stroke:none" d=""/></g></g><g style="fill:#000000;fill-opacity:1;"><g transform="translate(118.004368, 173.112495)"><path style="stroke:none" d="M 0.015625 -1.8125 C 0.015625 -1.613281 -0.0195312 -1.4375 -0.09375 -1.28125 C -0.164062 -1.132812 -0.265625 -1.019531 -0.390625 -0.9375 L -0.375 -0.875 L -0.015625 -0.875 L -0.015625 -0.46875 L -3.84375 -0.390625 L -3.84375 -0.796875 L -2.34375 -0.828125 L -2.328125 -0.890625 C -2.648438 -1.085938 -2.8125 -1.382812 -2.8125 -1.78125 C -2.820312 -2 -2.773438 -2.195312 -2.671875 -2.375 C -2.566406 -2.550781 -2.410156 -2.6875 -2.203125 -2.78125 C -2.003906 -2.882812 -1.742188 -2.9375 -1.421875 -2.9375 C -1.117188 -2.945312 -0.859375 -2.90625 -0.640625 -2.8125 C -0.421875 -2.71875 -0.257812 -2.582031 -0.15625 -2.40625 C -0.0507812 -2.238281 0.00390625 -2.039062 0.015625 -1.8125 Z M -0.34375 -1.71875 C -0.351562 -2.269531 -0.707031 -2.535156 -1.40625 -2.515625 C -1.78125 -2.515625 -2.050781 -2.4375 -2.21875 -2.28125 C -2.382812 -2.132812 -2.460938 -1.929688 -2.453125 -1.671875 C -2.453125 -1.421875 -2.363281 -1.21875 -2.1875 -1.0625 C -2.007812 -0.914062 -1.738281 -0.84375 -1.375 -0.84375 C -1.019531 -0.851562 -0.757812 -0.9375 -0.59375 -1.09375 C -0.425781 -1.257812 -0.34375 -1.46875 -0.34375 -1.71875 Z M -0.34375 -1.71875 "/></g></g><g style="fill:#000000;fill-opacity:1;"><g transform="translate(117.940085, 169.851965)"><path style="stroke:none" d="M -3.28125 -0.609375 C -3.28125 -0.523438 -3.300781 -0.457031 -3.34375 -0.40625 C -3.394531 -0.351562 -3.460938 -0.328125 -3.546875 -0.328125 C -3.628906 -0.316406 -3.695312 -0.335938 -3.75 -0.390625 C -3.8125 -0.441406 -3.84375 -0.507812 -3.84375 -0.59375 C -3.84375 -0.6875 -3.816406 -0.757812 -3.765625 -0.8125 C -3.710938 -0.863281 -3.644531 -0.894531 -3.5625 -0.90625 C -3.476562 -0.90625 -3.410156 -0.878906 -3.359375 -0.828125 C -3.304688 -0.773438 -3.28125 -0.703125 -3.28125 -0.609375 Z M -0.015625 -0.46875 L -2.75 -0.421875 L -2.75 -0.828125 L -0.015625 -0.875 Z M -0.015625 -0.46875 "/></g></g><g style="fill:#000000;fill-opacity:1;"><g transform="translate(117.913366, 168.496712)"><path style="stroke:none" d="M -0.46875 -1.828125 L -0.1875 -1.984375 C -0.113281 -1.910156 -0.0625 -1.820312 -0.03125 -1.71875 C 0 -1.613281 0.015625 -1.503906 0.015625 -1.390625 C 0.0234375 -0.859375 -0.226562 -0.585938 -0.75 -0.578125 L -2.421875 -0.546875 L -2.40625 -0.078125 L -2.734375 -0.078125 L -2.75 -0.546875 L -3.328125 -0.53125 L -3.390625 -0.9375 L -2.75 -0.953125 L -2.765625 -1.84375 L -2.4375 -1.84375 L -2.421875 -0.953125 L -0.796875 -0.984375 C -0.484375 -0.992188 -0.332031 -1.132812 -0.34375 -1.40625 C -0.34375 -1.5625 -0.382812 -1.6875 -0.46875 -1.78125 Z M -0.46875 -1.828125 "/></g></g><g style="fill:#000000;fill-opacity:1;"><g transform="translate(117.872334, 166.415523)"><path style="stroke:none" d=""/></g></g><g style="fill:#000000;fill-opacity:1;"><g transform="translate(117.847813, 165.171764)"><path style="stroke:none" d="M 0.015625 -1.5625 C 0.0234375 -1.3125 -0.0195312 -1.085938 -0.125 -0.890625 C -0.238281 -0.703125 -0.394531 -0.550781 -0.59375 -0.4375 C -0.800781 -0.332031 -1.054688 -0.273438 -1.359375 -0.265625 C -1.660156 -0.265625 -1.921875 -0.3125 -2.140625 -0.40625 C -2.359375 -0.507812 -2.519531 -0.65625 -2.625 -0.84375 C -2.738281 -1.03125 -2.800781 -1.25 -2.8125 -1.5 C -2.8125 -1.757812 -2.757812 -1.988281 -2.65625 -2.1875 C -2.550781 -2.382812 -2.394531 -2.535156 -2.1875 -2.640625 C -1.976562 -2.753906 -1.722656 -2.8125 -1.421875 -2.8125 C -1.117188 -2.820312 -0.859375 -2.773438 -0.640625 -2.671875 C -0.429688 -2.578125 -0.269531 -2.429688 -0.15625 -2.234375 C -0.0390625 -2.046875 0.015625 -1.820312 0.015625 -1.5625 Z M -0.34375 -1.5625 C -0.351562 -1.84375 -0.441406 -2.050781 -0.609375 -2.1875 C -0.785156 -2.320312 -1.050781 -2.382812 -1.40625 -2.375 C -1.769531 -2.375 -2.035156 -2.300781 -2.203125 -2.15625 C -2.378906 -2.007812 -2.460938 -1.796875 -2.453125 -1.515625 C -2.441406 -1.242188 -2.347656 -1.035156 -2.171875 -0.890625 C -2.003906 -0.753906 -1.738281 -0.6875 -1.375 -0.6875 C -1.019531 -0.695312 -0.753906 -0.773438 -0.578125 -0.921875 C -0.410156 -1.078125 -0.332031 -1.289062 -0.34375 -1.5625 Z M -0.34375 -1.5625 "/></g></g><g style="fill:#000000;fill-opacity:1;"><g transform="translate(117.785973, 162.035115)"><path style="stroke:none" d="M -0.015625 -0.609375 L -2.421875 -0.5625 L -2.40625 -0.09375 L -2.734375 -0.09375 L -2.75 -0.5625 C -2.875 -0.519531 -2.988281 -0.5 -3.09375 -0.5 C -3.269531 -0.5 -3.414062 -0.535156 -3.53125 -0.609375 C -3.65625 -0.679688 -3.75 -0.78125 -3.8125 -0.90625 C -3.875 -1.039062 -3.910156 -1.195312 -3.921875 -1.375 C -3.921875 -1.644531 -3.863281 -1.851562 -3.75 -2 L -3.453125 -1.859375 L -3.453125 -1.8125 C -3.535156 -1.707031 -3.578125 -1.566406 -3.578125 -1.390625 C -3.578125 -1.234375 -3.53125 -1.113281 -3.4375 -1.03125 C -3.351562 -0.945312 -3.234375 -0.90625 -3.078125 -0.90625 C -2.984375 -0.90625 -2.875 -0.925781 -2.75 -0.96875 L -2.765625 -1.84375 L -2.4375 -1.84375 L -2.421875 -0.96875 L -0.015625 -1.015625 Z M -0.015625 -0.609375 "/></g></g><g style="fill:#000000;fill-opacity:1;"><g transform="translate(117.747579, 160.087716)"><path style="stroke:none" d=""/></g></g><g style="fill:#000000;fill-opacity:1;"><g transform="translate(117.723058, 158.843958)"><path style="stroke:none" d="M 0.015625 -1.8125 C 0.015625 -1.613281 -0.0195312 -1.4375 -0.09375 -1.28125 C -0.164062 -1.132812 -0.265625 -1.019531 -0.390625 -0.9375 L -0.375 -0.875 L -0.015625 -0.875 L -0.015625 -0.46875 L -3.84375 -0.390625 L -3.84375 -0.796875 L -2.34375 -0.828125 L -2.328125 -0.890625 C -2.648438 -1.085938 -2.8125 -1.382812 -2.8125 -1.78125 C -2.820312 -2 -2.773438 -2.195312 -2.671875 -2.375 C -2.566406 -2.550781 -2.410156 -2.6875 -2.203125 -2.78125 C -2.003906 -2.882812 -1.742188 -2.9375 -1.421875 -2.9375 C -1.117188 -2.945312 -0.859375 -2.90625 -0.640625 -2.8125 C -0.421875 -2.71875 -0.257812 -2.582031 -0.15625 -2.40625 C -0.0507812 -2.238281 0.00390625 -2.039062 0.015625 -1.8125 Z M -0.34375 -1.71875 C -0.351562 -2.269531 -0.707031 -2.535156 -1.40625 -2.515625 C -1.78125 -2.515625 -2.050781 -2.4375 -2.21875 -2.28125 C -2.382812 -2.132812 -2.460938 -1.929688 -2.453125 -1.671875 C -2.453125 -1.421875 -2.363281 -1.21875 -2.1875 -1.0625 C -2.007812 -0.914062 -1.738281 -0.84375 -1.375 -0.84375 C -1.019531 -0.851562 -0.757812 -0.9375 -0.59375 -1.09375 C -0.425781 -1.257812 -0.34375 -1.46875 -0.34375 -1.71875 Z M -0.34375 -1.71875 "/></g></g><g style="fill:#000000;fill-opacity:1;"><g transform="translate(117.658775, 155.583428)"><path style="stroke:none" d="M 0.015625 -1.5625 C 0.0234375 -1.3125 -0.0195312 -1.085938 -0.125 -0.890625 C -0.238281 -0.703125 -0.394531 -0.550781 -0.59375 -0.4375 C -0.800781 -0.332031 -1.054688 -0.273438 -1.359375 -0.265625 C -1.660156 -0.265625 -1.921875 -0.3125 -2.140625 -0.40625 C -2.359375 -0.507812 -2.519531 -0.65625 -2.625 -0.84375 C -2.738281 -1.03125 -2.800781 -1.25 -2.8125 -1.5 C -2.8125 -1.757812 -2.757812 -1.988281 -2.65625 -2.1875 C -2.550781 -2.382812 -2.394531 -2.535156 -2.1875 -2.640625 C -1.976562 -2.753906 -1.722656 -2.8125 -1.421875 -2.8125 C -1.117188 -2.820312 -0.859375 -2.773438 -0.640625 -2.671875 C -0.429688 -2.578125 -0.269531 -2.429688 -0.15625 -2.234375 C -0.0390625 -2.046875 0.015625 -1.820312 0.015625 -1.5625 Z M -0.34375 -1.5625 C -0.351562 -1.84375 -0.441406 -2.050781 -0.609375 -2.1875 C -0.785156 -2.320312 -1.050781 -2.382812 -1.40625 -2.375 C -1.769531 -2.375 -2.035156 -2.300781 -2.203125 -2.15625 C -2.378906 -2.007812 -2.460938 -1.796875 -2.453125 -1.515625 C -2.441406 -1.242188 -2.347656 -1.035156 -2.171875 -0.890625 C -2.003906 -0.753906 -1.738281 -0.6875 -1.375 -0.6875 C -1.019531 -0.695312 -0.753906 -0.773438 -0.578125 -0.921875 C -0.410156 -1.078125 -0.332031 -1.289062 -0.34375 -1.5625 Z M -0.34375 -1.5625 "/></g></g><g style="fill:#000000;fill-opacity:1;"><g transform="translate(117.596935, 152.446779)"><path style="stroke:none" d="M 0.015625 -1.421875 C 0.0234375 -1.203125 -0.0195312 -1.003906 -0.125 -0.828125 C -0.226562 -0.660156 -0.378906 -0.523438 -0.578125 -0.421875 C -0.785156 -0.328125 -1.046875 -0.273438 -1.359375 -0.265625 C -1.671875 -0.265625 -1.9375 -0.3125 -2.15625 -0.40625 C -2.375 -0.5 -2.535156 -0.628906 -2.640625 -0.796875 C -2.742188 -0.972656 -2.800781 -1.175781 -2.8125 -1.40625 C -2.8125 -1.582031 -2.78125 -1.742188 -2.71875 -1.890625 C -2.65625 -2.046875 -2.546875 -2.175781 -2.390625 -2.28125 L -2.40625 -2.34375 L -3.875 -2.3125 L -3.890625 -2.703125 L -0.0625 -2.78125 L -0.046875 -2.390625 L -0.453125 -2.375 L -0.453125 -2.3125 C -0.316406 -2.238281 -0.203125 -2.125 -0.109375 -1.96875 C -0.0234375 -1.8125 0.015625 -1.628906 0.015625 -1.421875 Z M -0.34375 -1.546875 C -0.34375 -1.796875 -0.429688 -1.992188 -0.609375 -2.140625 C -0.785156 -2.296875 -1.050781 -2.367188 -1.40625 -2.359375 C -1.769531 -2.359375 -2.035156 -2.273438 -2.203125 -2.109375 C -2.367188 -1.953125 -2.453125 -1.75 -2.453125 -1.5 C -2.441406 -1.238281 -2.351562 -1.035156 -2.1875 -0.890625 C -2.019531 -0.753906 -1.75 -0.6875 -1.375 -0.6875 C -0.675781 -0.707031 -0.332031 -0.992188 -0.34375 -1.546875 Z M -0.34375 -1.546875 "/></g></g><g style="fill:#000000;fill-opacity:1;"><g transform="translate(117.532603, 149.183768)"><path style="stroke:none" d="M 1.140625 -0.5625 C 1.140625 -0.46875 1.132812 -0.378906 1.125 -0.296875 C 1.113281 -0.222656 1.097656 -0.15625 1.078125 -0.09375 L 0.75 -0.171875 L 0.734375 -0.21875 C 0.753906 -0.257812 0.769531 -0.304688 0.78125 -0.359375 C 0.789062 -0.421875 0.796875 -0.484375 0.796875 -0.546875 C 0.796875 -0.660156 0.78125 -0.753906 0.75 -0.828125 C 0.71875 -0.898438 0.664062 -0.960938 0.59375 -1.015625 C 0.53125 -1.066406 0.4375 -1.109375 0.3125 -1.140625 L 0.03125 -1.234375 L -2.734375 -0.09375 L -2.75 -0.53125 L -0.53125 -1.421875 L -0.53125 -1.46875 L -2.78125 -2.265625 L -2.78125 -2.6875 L 0.390625 -1.515625 C 0.566406 -1.453125 0.710938 -1.375 0.828125 -1.28125 C 0.941406 -1.195312 1.019531 -1.097656 1.0625 -0.984375 C 1.113281 -0.867188 1.140625 -0.726562 1.140625 -0.5625 Z M 1.140625 -0.5625 "/></g></g><g style="fill:#000000;fill-opacity:1;"><g transform="translate(117.475794, 146.302309)"><path style="stroke:none" d=""/></g></g><g style="fill:#000000;fill-opacity:1;"><g transform="translate(117.451273, 145.058551)"><path style="stroke:none" d="M -0.46875 -1.828125 L -0.1875 -1.984375 C -0.113281 -1.910156 -0.0625 -1.820312 -0.03125 -1.71875 C 0 -1.613281 0.015625 -1.503906 0.015625 -1.390625 C 0.0234375 -0.859375 -0.226562 -0.585938 -0.75 -0.578125 L -2.421875 -0.546875 L -2.40625 -0.078125 L -2.734375 -0.078125 L -2.75 -0.546875 L -3.328125 -0.53125 L -3.390625 -0.9375 L -2.75 -0.953125 L -2.765625 -1.84375 L -2.4375 -1.84375 L -2.421875 -0.953125 L -0.796875 -0.984375 C -0.484375 -0.992188 -0.332031 -1.132812 -0.34375 -1.40625 C -0.34375 -1.5625 -0.382812 -1.6875 -0.46875 -1.78125 Z M -0.46875 -1.828125 "/></g></g><g style="fill:#000000;fill-opacity:1;"><g transform="translate(117.410876, 143.009574)"><path style="stroke:none" d="M -1.328125 -2.578125 L -1.296875 -0.6875 C -0.960938 -0.71875 -0.71875 -0.804688 -0.5625 -0.953125 C -0.40625 -1.109375 -0.332031 -1.316406 -0.34375 -1.578125 C -0.34375 -1.765625 -0.378906 -1.914062 -0.453125 -2.03125 C -0.523438 -2.144531 -0.632812 -2.238281 -0.78125 -2.3125 L -0.78125 -2.359375 L -0.625 -2.625 C -0.425781 -2.550781 -0.269531 -2.425781 -0.15625 -2.25 C -0.0507812 -2.082031 0.00390625 -1.859375 0.015625 -1.578125 C 0.0234375 -1.304688 -0.0195312 -1.078125 -0.125 -0.890625 C -0.226562 -0.703125 -0.378906 -0.550781 -0.578125 -0.4375 C -0.785156 -0.332031 -1.046875 -0.273438 -1.359375 -0.265625 C -1.671875 -0.265625 -1.9375 -0.316406 -2.15625 -0.421875 C -2.375 -0.523438 -2.535156 -0.664062 -2.640625 -0.84375 C -2.742188 -1.03125 -2.800781 -1.242188 -2.8125 -1.484375 C -2.820312 -1.835938 -2.726562 -2.113281 -2.53125 -2.3125 C -2.332031 -2.519531 -2.039062 -2.628906 -1.65625 -2.640625 C -1.507812 -2.640625 -1.40625 -2.632812 -1.34375 -2.625 Z M -1.65625 -2.234375 C -1.945312 -2.222656 -2.15625 -2.15625 -2.28125 -2.03125 C -2.40625 -1.90625 -2.46875 -1.726562 -2.46875 -1.5 C -2.457031 -1.257812 -2.382812 -1.070312 -2.25 -0.9375 C -2.125 -0.800781 -1.914062 -0.722656 -1.625 -0.703125 Z M -1.65625 -2.234375 "/></g></g><g style="fill:#000000;fill-opacity:1;"><g transform="translate(117.354263, 140.138037)"><path style="stroke:none" d="M -0.015625 -0.5625 L 0 -0.125 L -1.4375 -0.9375 L -2.734375 -0.125 L -2.75 -0.578125 L -1.71875 -1.21875 L -1.71875 -1.28125 L -2.765625 -1.90625 L -2.78125 -2.34375 L -1.453125 -1.5625 L -0.046875 -2.421875 L -0.03125 -1.96875 L -1.1875 -1.28125 L -1.1875 -1.21875 Z M -0.015625 -0.5625 "/></g></g><g style="fill:#000000;fill-opacity:1;"><g transform="translate(117.304048, 137.591057)"><path style="stroke:none" d="M -0.46875 -1.828125 L -0.1875 -1.984375 C -0.113281 -1.910156 -0.0625 -1.820312 -0.03125 -1.71875 C 0 -1.613281 0.015625 -1.503906 0.015625 -1.390625 C 0.0234375 -0.859375 -0.226562 -0.585938 -0.75 -0.578125 L -2.421875 -0.546875 L -2.40625 -0.078125 L -2.734375 -0.078125 L -2.75 -0.546875 L -3.328125 -0.53125 L -3.390625 -0.9375 L -2.75 -0.953125 L -2.765625 -1.84375 L -2.4375 -1.84375 L -2.421875 -0.953125 L -0.796875 -0.984375 C -0.484375 -0.992188 -0.332031 -1.132812 -0.34375 -1.40625 C -0.34375 -1.5625 -0.382812 -1.6875 -0.46875 -1.78125 Z M -0.46875 -1.828125 "/></g></g></g></svg>