<svg xmlns="http://www.w3.org/2000/svg" xmlns:xlink="http://www.w3.org/1999/xlink" width="300" zoomAndPan="magnify" viewBox="0 0 224.87999 299.999988" height="400" preserveAspectRatio="xMidYMid meet" version="1.2"><defs><clipPath id="0393bffe98"><path d="M 20.800781 2.839844 L 202.203125 2.839844 L 202.203125 299.679688 L 20.800781 299.679688 Z M 20.800781 2.839844 "/></clipPath></defs><g id="b4af3cd51c"><g clip-rule="nonzero" clip-path="url(#0393bffe98)"><path style=" stroke:none;fill-rule:nonzero;fill:#000000;fill-opacity:1;" d="M 115.710938 2.9375 C 115.503906 2.9375 115.503906 9.378906 115.605469 17.226562 C 115.761719 25.074219 115.816406 31.515625 115.710938 31.515625 C 115.605469 31.515625 110.828125 26.734375 105.007812 20.863281 C 99.242188 14.992188 94.308594 10.210938 94.046875 10.210938 C 93.839844 10.210938 93.632812 17.226562 93.632812 25.75 L 93.632812 41.285156 L 89.113281 43.777344 C 83.085938 47 75.503906 52.195312 68.179688 58.066406 C 60.957031 63.835938 51.761719 69.96875 37.683594 78.386719 L 27.140625 84.671875 L 27.140625 100.9375 C 27.140625 109.925781 27.242188 117.25 27.347656 117.25 C 27.449219 117.25 28.851562 116.679688 30.515625 115.953125 C 32.125 115.226562 36.179688 113.667969 39.503906 112.523438 L 45.582031 110.445312 L 43.917969 112.160156 C 42.984375 113.09375 40.75 114.808594 38.984375 115.953125 L 35.660156 117.980469 L 38.984375 120.992188 L 42.359375 124.058594 L 50.152344 123.902344 L 57.996094 123.746094 L 61.0625 118.03125 C 62.722656 114.863281 64.4375 111.953125 64.90625 111.433594 C 65.320312 110.964844 67.140625 110.183594 68.90625 109.71875 C 72.90625 108.625 74.722656 109.042969 79.292969 112.003906 C 84.28125 115.277344 87.816406 116.316406 93.890625 116.367188 C 97.890625 116.421875 99.917969 116.160156 102.722656 115.328125 C 110.671875 112.835938 116.957031 107.429688 120.699219 99.898438 C 124.75 91.582031 124.699219 83.425781 120.386719 72.304688 C 119.605469 70.277344 122.671875 74.332031 124.488281 77.761719 C 127.140625 82.75 128.125 86.644531 128.125 92.050781 C 128.125 99.011719 126.203125 104.574219 121.527344 111.015625 C 118.671875 115.019531 104.542969 128.941406 93.425781 138.816406 C 69.007812 160.484375 58.671875 173.371094 52.90625 189.476562 C 48.90625 200.492188 48.488281 212.238281 51.605469 225.382812 L 52.242188 228.179688 C 51.824219 228.230469 51.660156 228.285156 51.761719 228.34375 C 51.960938 228.46875 52.167969 228.617188 52.375 228.761719 L 52.644531 229.953125 L 53.867188 229.953125 C 55.550781 231.40625 57.183594 233.199219 57.839844 234.476562 C 61.582031 241.855469 54.933594 252.195312 42.152344 258.792969 C 39.191406 260.351562 35.710938 262.222656 34.410156 262.949219 L 32.074219 264.300781 L 32.929688 264.421875 C 32.355469 264.433594 30.636719 264.445312 30.566406 264.457031 L 29.113281 264.664062 L 29.320312 268.40625 C 29.476562 271.523438 29.789062 272.667969 31.035156 274.746094 C 31.917969 276.097656 33.527344 277.914062 34.671875 278.695312 L 36.355469 279.832031 C 34.785156 279.867188 33.652344 279.902344 33.425781 279.941406 C 26.257812 281.136719 21.269531 286.59375 20.851562 293.660156 C 20.800781 294.492188 20.800781 296.152344 20.800781 297.296875 L 20.90625 299.375 L 111.554688 299.480469 L 202.203125 299.582031 L 202.203125 295.582031 C 202.152344 287.476562 197.738281 281.96875 189.789062 280.097656 C 189.175781 279.945312 187.585938 279.832031 184.621094 279.738281 C 186.472656 279.589844 187.089844 279.390625 187.605469 279.109375 C 191.761719 277.03125 193.894531 273.082031 193.894531 267.574219 L 193.894531 263.988281 L 190.515625 263.996094 C 189.519531 263.34375 187.65625 262.289062 185.476562 261.183594 C 177.527344 257.128906 173.21875 254.167969 169.945312 250.636719 C 164.800781 244.972656 163.503906 239.566406 166.050781 234.113281 C 166.734375 232.617188 168.054688 230.980469 169.292969 229.902344 L 171.035156 229.902344 L 171.292969 228.742188 C 171.34375 228.738281 171.40625 228.707031 171.449219 228.707031 C 171.761719 228.707031 172.179688 228.449219 172.335938 228.1875 C 172.359375 228.144531 172.066406 228.101562 171.457031 228.0625 C 172.367188 224.042969 174.097656 218.546875 177.0625 210.003906 C 187.554688 179.8125 191.710938 163.289062 193.375 144.789062 C 196.4375 110.546875 187.453125 77.8125 168.75 54.898438 C 161.894531 46.480469 152.230469 37.90625 144.023438 32.917969 L 140.125 30.527344 L 139.761719 34.53125 C 139.453125 38.324219 137.375 45.910156 136.230469 47.625 C 135.710938 48.402344 135.761719 47.050781 136.542969 42.117188 C 136.90625 39.570312 135.816406 31.101562 134.671875 27.621094 C 133.164062 22.996094 129.632812 17.332031 125.164062 12.289062 C 121.375 7.925781 116.28125 2.9375 115.710938 2.9375 Z M 97.632812 57.867188 C 98.621094 57.847656 99.269531 57.859375 99.347656 57.914062 C 99.449219 57.964844 97.683594 59.9375 95.347656 62.277344 L 91.140625 66.484375 L 85.738281 66.695312 C 82.828125 66.796875 80.644531 66.746094 80.90625 66.484375 C 81.21875 66.277344 83.085938 64.304688 85.0625 62.171875 L 88.699219 58.277344 L 93.890625 58.015625 C 95.320312 57.9375 96.644531 57.886719 97.632812 57.867188 Z M 40.042969 88.785156 C 40.527344 88.84375 40.957031 89.140625 41.582031 89.710938 C 42.359375 90.492188 42.722656 91.425781 42.722656 92.777344 C 42.722656 94.542969 42.566406 94.855469 41.320312 95.167969 C 40.488281 95.324219 39.035156 96.15625 37.945312 96.988281 L 36.074219 98.492188 L 36.335938 95.273438 C 36.644531 90.597656 36.851562 89.921875 38.152344 89.296875 C 39.007812 88.90625 39.554688 88.726562 40.042969 88.785156 Z M 40.042969 88.785156 "/></g><g style="fill:#000000;fill-opacity:1;"><g transform="translate(118.554289, 201.005398)"><path style="stroke:none" d="M -0.0625 -3.265625 L -0.0625 -2.8125 L -1.046875 -2.453125 L -1.015625 -0.90625 L -0.015625 -0.59375 L 0 -0.140625 L -3.65625 -1.328125 L -3.671875 -1.921875 Z M -3.21875 -1.609375 L -1.359375 -1.015625 L -1.390625 -2.3125 L -3.21875 -1.671875 Z M -3.21875 -1.609375 "/></g></g><g style="fill:#000000;fill-opacity:1;"><g transform="translate(118.487173, 197.601167)"><path style="stroke:none" d="M 0.015625 -1.421875 C 0.0234375 -1.203125 -0.0195312 -1.003906 -0.125 -0.828125 C -0.226562 -0.660156 -0.378906 -0.523438 -0.578125 -0.421875 C -0.785156 -0.328125 -1.046875 -0.273438 -1.359375 -0.265625 C -1.671875 -0.265625 -1.9375 -0.3125 -2.15625 -0.40625 C -2.375 -0.5 -2.535156 -0.628906 -2.640625 -0.796875 C -2.742188 -0.972656 -2.800781 -1.175781 -2.8125 -1.40625 C -2.8125 -1.582031 -2.78125 -1.742188 -2.71875 -1.890625 C -2.65625 -2.046875 -2.546875 -2.175781 -2.390625 -2.28125 L -2.40625 -2.34375 L -3.875 -2.3125 L -3.890625 -2.703125 L -0.0625 -2.78125 L -0.046875 -2.390625 L -0.453125 -2.375 L -0.453125 -2.3125 C -0.316406 -2.238281 -0.203125 -2.125 -0.109375 -1.96875 C -0.0234375 -1.8125 0.015625 -1.628906 0.015625 -1.421875 Z M -0.34375 -1.546875 C -0.34375 -1.796875 -0.429688 -1.992188 -0.609375 -2.140625 C -0.785156 -2.296875 -1.050781 -2.367188 -1.40625 -2.359375 C -1.769531 -2.359375 -2.035156 -2.273438 -2.203125 -2.109375 C -2.367188 -1.953125 -2.453125 -1.75 -2.453125 -1.5 C -2.441406 -1.238281 -2.351562 -1.035156 -2.1875 -0.890625 C -2.019531 -0.753906 -1.75 -0.6875 -1.375 -0.6875 C -0.675781 -0.707031 -0.332031 -0.992188 -0.34375 -1.546875 Z M -0.34375 -1.546875 "/></g></g><g style="fill:#000000;fill-opacity:1;"><g transform="translate(118.422841, 194.338156)"><path style="stroke:none" d="M 0.015625 -1.421875 C 0.0234375 -1.203125 -0.0195312 -1.003906 -0.125 -0.828125 C -0.226562 -0.660156 -0.378906 -0.523438 -0.578125 -0.421875 C -0.785156 -0.328125 -1.046875 -0.273438 -1.359375 -0.265625 C -1.671875 -0.265625 -1.9375 -0.3125 -2.15625 -0.40625 C -2.375 -0.5 -2.535156 -0.628906 -2.640625 -0.796875 C -2.742188 -0.972656 -2.800781 -1.175781 -2.8125 -1.40625 C -2.8125 -1.582031 -2.78125 -1.742188 -2.71875 -1.890625 C -2.65625 -2.046875 -2.546875 -2.175781 -2.390625 -2.28125 L -2.40625 -2.34375 L -3.875 -2.3125 L -3.890625 -2.703125 L -0.0625 -2.78125 L -0.046875 -2.390625 L -0.453125 -2.375 L -0.453125 -2.3125 C -0.316406 -2.238281 -0.203125 -2.125 -0.109375 -1.96875 C -0.0234375 -1.8125 0.015625 -1.628906 0.015625 -1.421875 Z M -0.34375 -1.546875 C -0.34375 -1.796875 -0.429688 -1.992188 -0.609375 -2.140625 C -0.785156 -2.296875 -1.050781 -2.367188 -1.40625 -2.359375 C -1.769531 -2.359375 -2.035156 -2.273438 -2.203125 -2.109375 C -2.367188 -1.953125 -2.453125 -1.75 -2.453125 -1.5 C -2.441406 -1.238281 -2.351562 -1.035156 -2.1875 -0.890625 C -2.019531 -0.753906 -1.75 -0.6875 -1.375 -0.6875 C -0.675781 -0.707031 -0.332031 -0.992188 -0.34375 -1.546875 Z M -0.34375 -1.546875 "/></g></g><g style="fill:#000000;fill-opacity:1;"><g transform="translate(118.358509, 191.075146)"><path style="stroke:none" d=""/></g></g><g style="fill:#000000;fill-opacity:1;"><g transform="translate(118.333988, 189.831388)"><path style="stroke:none" d="M 0.03125 -1.125 C 0.03125 -0.851562 -0.0351562 -0.640625 -0.171875 -0.484375 C -0.304688 -0.335938 -0.503906 -0.257812 -0.765625 -0.25 C -0.921875 -0.25 -1.054688 -0.28125 -1.171875 -0.34375 C -1.296875 -0.40625 -1.390625 -0.503906 -1.453125 -0.640625 C -1.523438 -0.785156 -1.585938 -0.972656 -1.640625 -1.203125 C -1.671875 -1.398438 -1.707031 -1.550781 -1.75 -1.65625 C -1.789062 -1.757812 -1.835938 -1.828125 -1.890625 -1.859375 C -1.941406 -1.898438 -2.003906 -1.914062 -2.078125 -1.90625 C -2.203125 -1.90625 -2.296875 -1.859375 -2.359375 -1.765625 C -2.429688 -1.679688 -2.46875 -1.546875 -2.46875 -1.359375 C -2.457031 -1.179688 -2.414062 -1.03125 -2.34375 -0.90625 C -2.28125 -0.78125 -2.179688 -0.664062 -2.046875 -0.5625 L -2.046875 -0.515625 L -2.3125 -0.3125 C -2.46875 -0.425781 -2.585938 -0.566406 -2.671875 -0.734375 C -2.753906 -0.910156 -2.800781 -1.113281 -2.8125 -1.34375 C -2.8125 -1.664062 -2.742188 -1.90625 -2.609375 -2.0625 C -2.472656 -2.21875 -2.28125 -2.296875 -2.03125 -2.296875 L -0.578125 -2.328125 C -0.429688 -2.335938 -0.359375 -2.410156 -0.359375 -2.546875 C -0.359375 -2.585938 -0.363281 -2.628906 -0.375 -2.671875 L -0.375 -2.703125 L -0.09375 -2.75 C -0.0703125 -2.71875 -0.0546875 -2.675781 -0.046875 -2.625 C -0.0351562 -2.582031 -0.03125 -2.535156 -0.03125 -2.484375 C -0.03125 -2.328125 -0.0625 -2.210938 -0.125 -2.140625 C -0.1875 -2.066406 -0.285156 -2.019531 -0.421875 -2 L -0.40625 -1.9375 C -0.257812 -1.863281 -0.148438 -1.757812 -0.078125 -1.625 C -0.015625 -1.488281 0.0195312 -1.320312 0.03125 -1.125 Z M -0.296875 -1.21875 C -0.296875 -1.375 -0.332031 -1.503906 -0.40625 -1.609375 C -0.476562 -1.710938 -0.578125 -1.789062 -0.703125 -1.84375 C -0.828125 -1.90625 -0.972656 -1.9375 -1.140625 -1.9375 L -1.484375 -1.921875 L -1.5 -1.875 C -1.457031 -1.8125 -1.421875 -1.738281 -1.390625 -1.65625 C -1.359375 -1.570312 -1.332031 -1.453125 -1.3125 -1.296875 C -1.28125 -1.128906 -1.242188 -1 -1.203125 -0.90625 C -1.160156 -0.820312 -1.101562 -0.757812 -1.03125 -0.71875 C -0.957031 -0.6875 -0.875 -0.671875 -0.78125 -0.671875 C -0.613281 -0.671875 -0.488281 -0.71875 -0.40625 -0.8125 C -0.320312 -0.914062 -0.285156 -1.050781 -0.296875 -1.21875 Z M -0.296875 -1.21875 "/></g></g><g style="fill:#000000;fill-opacity:1;"><g transform="translate(118.278254, 187.004436)"><path style="stroke:none" d=""/></g></g><g style="fill:#000000;fill-opacity:1;"><g transform="translate(118.253732, 185.760678)"><path style="stroke:none" d="M 0.03125 -1.09375 C 0.03125 -0.894531 -0.0195312 -0.738281 -0.125 -0.625 C -0.238281 -0.519531 -0.40625 -0.460938 -0.625 -0.453125 L -3.84375 -0.390625 L -3.84375 -0.796875 L -0.640625 -0.859375 C -0.535156 -0.859375 -0.457031 -0.878906 -0.40625 -0.921875 C -0.351562 -0.972656 -0.328125 -1.046875 -0.328125 -1.140625 C -0.335938 -1.191406 -0.351562 -1.25 -0.375 -1.3125 L -0.359375 -1.34375 L -0.046875 -1.390625 C -0.0234375 -1.359375 -0.0078125 -1.316406 0 -1.265625 C 0.0195312 -1.210938 0.03125 -1.15625 0.03125 -1.09375 Z M 0.03125 -1.09375 "/></g></g><g style="fill:#000000;fill-opacity:1;"><g transform="translate(118.224424, 184.274114)"><path style="stroke:none" d="M -3.28125 -0.609375 C -3.28125 -0.523438 -3.300781 -0.457031 -3.34375 -0.40625 C -3.394531 -0.351562 -3.460938 -0.328125 -3.546875 -0.328125 C -3.628906 -0.316406 -3.695312 -0.335938 -3.75 -0.390625 C -3.8125 -0.441406 -3.84375 -0.507812 -3.84375 -0.59375 C -3.84375 -0.6875 -3.816406 -0.757812 -3.765625 -0.8125 C -3.710938 -0.863281 -3.644531 -0.894531 -3.5625 -0.90625 C -3.476562 -0.90625 -3.410156 -0.878906 -3.359375 -0.828125 C -3.304688 -0.773438 -3.28125 -0.703125 -3.28125 -0.609375 Z M -0.015625 -0.46875 L -2.75 -0.421875 L -2.75 -0.828125 L -0.015625 -0.875 Z M -0.015625 -0.46875 "/></g></g><g style="fill:#000000;fill-opacity:1;"><g transform="translate(118.197705, 182.918861)"><path style="stroke:none" d="M -0.46875 -1.828125 L -0.1875 -1.984375 C -0.113281 -1.910156 -0.0625 -1.820312 -0.03125 -1.71875 C 0 -1.613281 0.015625 -1.503906 0.015625 -1.390625 C 0.0234375 -0.859375 -0.226562 -0.585938 -0.75 -0.578125 L -2.421875 -0.546875 L -2.40625 -0.078125 L -2.734375 -0.078125 L -2.75 -0.546875 L -3.328125 -0.53125 L -3.390625 -0.9375 L -2.75 -0.953125 L -2.765625 -1.84375 L -2.4375 -1.84375 L -2.421875 -0.953125 L -0.796875 -0.984375 C -0.484375 -0.992188 -0.332031 -1.132812 -0.34375 -1.40625 C -0.34375 -1.5625 -0.382812 -1.6875 -0.46875 -1.78125 Z M -0.46875 -1.828125 "/></g></g><g style="fill:#000000;fill-opacity:1;"><g transform="translate(118.156673, 180.837671)"><path style="stroke:none" d="M -0.46875 -1.828125 L -0.1875 -1.984375 C -0.113281 -1.910156 -0.0625 -1.820312 -0.03125 -1.71875 C 0 -1.613281 0.015625 -1.503906 0.015625 -1.390625 C 0.0234375 -0.859375 -0.226562 -0.585938 -0.75 -0.578125 L -2.421875 -0.546875 L -2.40625 -0.078125 L -2.734375 -0.078125 L -2.75 -0.546875 L -3.328125 -0.53125 L -3.390625 -0.9375 L -2.75 -0.953125 L -2.765625 -1.84375 L -2.4375 -1.84375 L -2.421875 -0.953125 L -0.796875 -0.984375 C -0.484375 -0.992188 -0.332031 -1.132812 -0.34375 -1.40625 C -0.34375 -1.5625 -0.382812 -1.6875 -0.46875 -1.78125 Z M -0.46875 -1.828125 "/></g></g><g style="fill:#000000;fill-opacity:1;"><g transform="translate(118.115642, 178.756482)"><path style="stroke:none" d="M 0.03125 -1.09375 C 0.03125 -0.894531 -0.0195312 -0.738281 -0.125 -0.625 C -0.238281 -0.519531 -0.40625 -0.460938 -0.625 -0.453125 L -3.84375 -0.390625 L -3.84375 -0.796875 L -0.640625 -0.859375 C -0.535156 -0.859375 -0.457031 -0.878906 -0.40625 -0.921875 C -0.351562 -0.972656 -0.328125 -1.046875 -0.328125 -1.140625 C -0.335938 -1.191406 -0.351562 -1.25 -0.375 -1.3125 L -0.359375 -1.34375 L -0.046875 -1.390625 C -0.0234375 -1.359375 -0.0078125 -1.316406 0 -1.265625 C 0.0195312 -1.210938 0.03125 -1.15625 0.03125 -1.09375 Z M 0.03125 -1.09375 "/></g></g><g style="fill:#000000;fill-opacity:1;"><g transform="translate(118.086333, 177.269918)"><path style="stroke:none" d="M -1.328125 -2.578125 L -1.296875 -0.6875 C -0.960938 -0.71875 -0.71875 -0.804688 -0.5625 -0.953125 C -0.40625 -1.109375 -0.332031 -1.316406 -0.34375 -1.578125 C -0.34375 -1.765625 -0.378906 -1.914062 -0.453125 -2.03125 C -0.523438 -2.144531 -0.632812 -2.238281 -0.78125 -2.3125 L -0.78125 -2.359375 L -0.625 -2.625 C -0.425781 -2.550781 -0.269531 -2.425781 -0.15625 -2.25 C -0.0507812 -2.082031 0.00390625 -1.859375 0.015625 -1.578125 C 0.0234375 -1.304688 -0.0195312 -1.078125 -0.125 -0.890625 C -0.226562 -0.703125 -0.378906 -0.550781 -0.578125 -0.4375 C -0.785156 -0.332031 -1.046875 -0.273438 -1.359375 -0.265625 C -1.671875 -0.265625 -1.9375 -0.316406 -2.15625 -0.421875 C -2.375 -0.523438 -2.535156 -0.664062 -2.640625 -0.84375 C -2.742188 -1.03125 -2.800781 -1.242188 -2.8125 -1.484375 C -2.820312 -1.835938 -2.726562 -2.113281 -2.53125 -2.3125 C -2.332031 -2.519531 -2.039062 -2.628906 -1.65625 -2.640625 C -1.507812 -2.640625 -1.40625 -2.632812 -1.34375 -2.625 Z M -1.65625 -2.234375 C -1.945312 -2.222656 -2.15625 -2.15625 -2.28125 -2.03125 C -2.40625 -1.90625 -2.46875 -1.726562 -2.46875 -1.5 C -2.457031 -1.257812 -2.382812 -1.070312 -2.25 -0.9375 C -2.125 -0.800781 -1.914062 -0.722656 -1.625 -0.703125 Z M -1.65625 -2.234375 "/></g></g><g style="fill:#000000;fill-opacity:1;"><g transform="translate(118.028889, 174.356253)"><path style="stroke:none" d=""/></g></g><g style="fill:#000000;fill-opacity:1;"><g transform="translate(118.004368, 173.112495)"><path style="stroke:none" d="M 0.015625 -1.8125 C 0.015625 -1.613281 -0.0195312 -1.4375 -0.09375 -1.28125 C -0.164062 -1.132812 -0.265625 -1.019531 -0.390625 -0.9375 L -0.375 -0.875 L -0.015625 -0.875 L -0.015625 -0.46875 L -3.84375 -0.390625 L -3.84375 -0.796875 L -2.34375 -0.828125 L -2.328125 -0.890625 C -2.648438 -1.085938 -2.8125 -1.382812 -2.8125 -1.78125 C -2.820312 -2 -2.773438 -2.195312 -2.671875 -2.375 C -2.566406 -2.550781 -2.410156 -2.6875 -2.203125 -2.78125 C -2.003906 -2.882812 -1.742188 -2.9375 -1.421875 -2.9375 C -1.117188 -2.945312 -0.859375 -2.90625 -0.640625 -2.8125 C -0.421875 -2.71875 -0.257812 -2.582031 -0.15625 -2.40625 C -0.0507812 -2.238281 0.00390625 -2.039062 0.015625 -1.8125 Z M -0.34375 -1.71875 C -0.351562 -2.269531 -0.707031 -2.535156 -1.40625 -2.515625 C -1.78125 -2.515625 -2.050781 -2.4375 -2.21875 -2.28125 C -2.382812 -2.132812 -2.460938 -1.929688 -2.453125 -1.671875 C -2.453125 -1.421875 -2.363281 -1.21875 -2.1875 -1.0625 C -2.007812 -0.914062 -1.738281 -0.84375 -1.375 -0.84375 C -1.019531 -0.851562 -0.757812 -0.9375 -0.59375 -1.09375 C -0.425781 -1.257812 -0.34375 -1.46875 -0.34375 -1.71875 Z M -0.34375 -1.71875 "/></g></g><g style="fill:#000000;fill-opacity:1;"><g transform="translate(117.940085, 169.851965)"><path style="stroke:none" d="M -3.28125 -0.609375 C -3.28125 -0.523438 -3.300781 -0.457031 -3.34375 -0.40625 C -3.394531 -0.351562 -3.460938 -0.328125 -3.546875 -0.328125 C -3.628906 -0.316406 -3.695312 -0.335938 -3.75 -0.390625 C -3.8125 -0.441406 -3.84375 -0.507812 -3.84375 -0.59375 C -3.84375 -0.6875 -3.816406 -0.757812 -3.765625 -0.8125 C -3.710938 -0.863281 -3.644531 -0.894531 -3.5625 -0.90625 C -3.476562 -0.90625 -3.410156 -0.878906 -3.359375 -0.828125 C -3.304688 -0.773438 -3.28125 -0.703125 -3.28125 -0.609375 Z M -0.015625 -0.46875 L -2.75 -0.421875 L -2.75 -0.828125 L -0.015625 -0.875 Z M -0.015625 -0.46875 "/></g></g><g style="fill:#000000;fill-opacity:1;"><g transform="translate(117.913366, 168.496712)"><path style="stroke:none" d="M -0.46875 -1.828125 L -0.1875 -1.984375 C -0.113281 -1.910156 -0.0625 -1.820312 -0.03125 -1.71875 C 0 -1.613281 0.015625 -1.503906 0.015625 -1.390625 C 0.0234375 -0.859375 -0.226562 -0.585938 -0.75 -0.578125 L -2.421875 -0.546875 L -2.40625 -0.078125 L -2.734375 -0.078125 L -2.75 -0.546875 L -3.328125 -0.53125 L -3.390625 -0.9375 L -2.75 -0.953125 L -2.765625 -1.84375 L -2.4375 -1.84375 L -2.421875 -0.953125 L -0.796875 -0.984375 C -0.484375 -0.992188 -0.332031 -1.132812 -0.34375 -1.40625 C -0.34375 -1.5625 -0.382812 -1.6875 -0.46875 -1.78125 Z M -0.46875 -1.828125 "/></g></g><g style="fill:#000000;fill-opacity:1;"><g transform="translate(117.872334, 166.415523)"><path style="stroke:none" d=""/></g></g><g style="fill:#000000;fill-opacity:1;"><g transform="translate(117.847813, 165.171764)"><path style="stroke:none" d="M 0.015625 -1.5625 C 0.0234375 -1.3125 -0.0195312 -1.085938 -0.125 -0.890625 C -0.238281 -0.703125 -0.394531 -0.550781 -0.59375 -0.4375 C -0.800781 -0.332031 -1.054688 -0.273438 -1.359375 -0.265625 C -1.660156 -0.265625 -1.921875 -0.3125 -2.140625 -0.40625 C -2.359375 -0.507812 -2.519531 -0.65625 -2.625 -0.84375 C -2.738281 -1.03125 -2.800781 -1.25 -2.8125 -1.5 C -2.8125 -1.757812 -2.757812 -1.988281 -2.65625 -2.1875 C -2.550781 -2.382812 -2.394531 -2.535156 -2.1875 -2.640625 C -1.976562 -2.753906 -1.722656 -2.8125 -1.421875 -2.8125 C -1.117188 -2.820312 -0.859375 -2.773438 -0.640625 -2.671875 C -0.429688 -2.578125 -0.269531 -2.429688 -0.15625 -2.234375 C -0.0390625 -2.046875 0.015625 -1.820312 0.015625 -1.5625 Z M -0.34375 -1.5625 C -0.351562 -1.84375 -0.441406 -2.050781 -0.609375 -2.1875 C -0.785156 -2.320312 -1.050781 -2.382812 -1.40625 -2.375 C -1.769531 -2.375 -2.035156 -2.300781 -2.203125 -2.15625 C -2.378906 -2.007812 -2.460938 -1.796875 -2.453125 -1.515625 C -2.441406 -1.242188 -2.347656 -1.035156 -2.171875 -0.890625 C -2.003906 -0.753906 -1.738281 -0.6875 -1.375 -0.6875 C -1.019531 -0.695312 -0.753906 -0.773438 -0.578125 -0.921875 C -0.410156 -1.078125 -0.332031 -1.289062 -0.34375 -1.5625 Z M -0.34375 -1.5625 "/></g></g><g style="fill:#000000;fill-opacity:1;"><g transform="translate(117.785973, 162.035115)"><path style="stroke:none" d="M -0.015625 -0.609375 L -2.421875 -0.5625 L -2.40625 -0.09375 L -2.734375 -0.09375 L -2.75 -0.5625 C -2.875 -0.519531 -2.988281 -0.5 -3.09375 -0.5 C -3.269531 -0.5 -3.414062 -0.535156 -3.53125 -0.609375 C -3.65625 -0.679688 -3.75 -0.78125 -3.8125 -0.90625 C -3.875 -1.039062 -3.910156 -1.195312 -3.921875 -1.375 C -3.921875 -1.644531 -3.863281 -1.851562 -3.75 -2 L -3.453125 -1.859375 L -3.453125 -1.8125 C -3.535156 -1.707031 -3.578125 -1.566406 -3.578125 -1.390625 C -3.578125 -1.234375 -3.53125 -1.113281 -3.4375 -1.03125 C -3.351562 -0.945312 -3.234375 -0.90625 -3.078125 -0.90625 C -2.984375 -0.90625 -2.875 -0.925781 -2.75 -0.96875 L -2.765625 -1.84375 L -2.4375 -1.84375 L -2.421875 -0.96875 L -0.015625 -1.015625 Z M -0.015625 -0.609375 "/></g></g><g style="fill:#000000;fill-opacity:1;"><g transform="translate(117.747579, 160.087716)"><path style="stroke:none" d=""/></g></g><g style="fill:#000000;fill-opacity:1;"><g transform="translate(117.723058, 158.843958)"><path style="stroke:none" d="M 0.015625 -1.8125 C 0.015625 -1.613281 -0.0195312 -1.4375 -0.09375 -1.28125 C -0.164062 -1.132812 -0.265625 -1.019531 -0.390625 -0.9375 L -0.375 -0.875 L -0.015625 -0.875 L -0.015625 -0.46875 L -3.84375 -0.390625 L -3.84375 -0.796875 L -2.34375 -0.828125 L -2.328125 -0.890625 C -2.648438 -1.085938 -2.8125 -1.382812 -2.8125 -1.78125 C -2.820312 -2 -2.773438 -2.195312 -2.671875 -2.375 C -2.566406 -2.550781 -2.410156 -2.6875 -2.203125 -2.78125 C -2.003906 -2.882812 -1.742188 -2.9375 -1.421875 -2.9375 C -1.117188 -2.945312 -0.859375 -2.90625 -0.640625 -2.8125 C -0.421875 -2.71875 -0.257812 -2.582031 -0.15625 -2.40625 C -0.0507812 -2.238281 0.00390625 -2.039062 0.015625 -1.8125 Z M -0.34375 -1.71875 C -0.351562 -2.269531 -0.707031 -2.535156 -1.40625 -2.515625 C -1.78125 -2.515625 -2.050781 -2.4375 -2.21875 -2.28125 C -2.382812 -2.132812 -2.460938 -1.929688 -2.453125 -1.671875 C -2.453125 -1.421875 -2.363281 -1.21875 -2.1875 -1.0625 C -2.007812 -0.914062 -1.738281 -0.84375 -1.375 -0.84375 C -1.019531 -0.851562 -0.757812 -0.9375 -0.59375 -1.09375 C -0.425781 -1.257812 -0.34375 -1.46875 -0.34375 -1.71875 Z M -0.34375 -1.71875 "/></g></g><g style="fill:#000000;fill-opacity:1;"><g transform="translate(117.658775, 155.583428)"><path style="stroke:none" d="M 0.015625 -1.5625 C 0.0234375 -1.3125 -0.0195312 -1.085938 -0.125 -0.890625 C -0.238281 -0.703125 -0.394531 -0.550781 -0.59375 -0.4375 C -0.800781 -0.332031 -1.054688 -0.273438 -1.359375 -0.265625 C -1.660156 -0.265625 -1.921875 -0.3125 -2.140625 -0.40625 C -2.359375 -0.507812 -2.519531 -0.65625 -2.625 -0.84375 C -2.738281 -1.03125 -2.800781 -1.25 -2.8125 -1.5 C -2.8125 -1.757812 -2.757812 -1.988281 -2.65625 -2.1875 C -2.550781 -2.382812 -2.394531 -2.535156 -2.1875 -2.640625 C -1.976562 -2.753906 -1.722656 -2.8125 -1.421875 -2.8125 C -1.117188 -2.820312 -0.859375 -2.773438 -0.640625 -2.671875 C -0.429688 -2.578125 -0.269531 -2.429688 -0.15625 -2.234375 C -0.0390625 -2.046875 0.015625 -1.820312 0.015625 -1.5625 Z M -0.34375 -1.5625 C -0.351562 -1.84375 -0.441406 -2.050781 -0.609375 -2.1875 C -0.785156 -2.320312 -1.050781 -2.382812 -1.40625 -2.375 C -1.769531 -2.375 -2.035156 -2.300781 -2.203125 -2.15625 C -2.378906 -2.007812 -2.460938 -1.796875 -2.453125 -1.515625 C -2.441406 -1.242188 -2.347656 -1.035156 -2.171875 -0.890625 C -2.003906 -0.753906 -1.738281 -0.6875 -1.375 -0.6875 C -1.019531 -0.695312 -0.753906 -0.773438 -0.578125 -0.921875 C -0.410156 -1.078125 -0.332031 -1.289062 -0.34375 -1.5625 Z M -0.34375 -1.5625 "/></g></g><g style="fill:#000000;fill-opacity:1;"><g transform="translate(117.596935, 152.446779)"><path style="stroke:none" d="M 0.015625 -1.421875 C 0.0234375 -1.203125 -0.0195312 -1.003906 -0.125 -0.828125 C -0.226562 -0.660156 -0.378906 -0.523438 -0.578125 -0.421875 C -0.785156 -0.328125 -1.046875 -0.273438 -1.359375 -0.265625 C -1.671875 -0.265625 -1.9375 -0.3125 -2.15625 -0.40625 C -2.375 -0.5 -2.535156 -0.628906 -2.640625 -0.796875 C -2.742188 -0.972656 -2.800781 -1.175781 -2.8125 -1.40625 C -2.8125 -1.582031 -2.78125 -1.742188 -2.71875 -1.890625 C -2.65625 -2.046875 -2.546875 -2.175781 -2.390625 -2.28125 L -2.40625 -2.34375 L -3.875 -2.3125 L -3.890625 -2.703125 L -0.0625 -2.78125 L -0.046875 -2.390625 L -0.453125 -2.375 L -0.453125 -2.3125 C -0.316406 -2.238281 -0.203125 -2.125 -0.109375 -1.96875 C -0.0234375 -1.8125 0.015625 -1.628906 0.015625 -1.421875 Z M -0.34375 -1.546875 C -0.34375 -1.796875 -0.429688 -1.992188 -0.609375 -2.140625 C -0.785156 -2.296875 -1.050781 -2.367188 -1.40625 -2.359375 C -1.769531 -2.359375 -2.035156 -2.273438 -2.203125 -2.109375 C -2.367188 -1.953125 -2.453125 -1.75 -2.453125 -1.5 C -2.441406 -1.238281 -2.351562 -1.035156 -2.1875 -0.890625 C -2.019531 -0.753906 -1.75 -0.6875 -1.375 -0.6875 C -0.675781 -0.707031 -0.332031 -0.992188 -0.34375 -1.546875 Z M -0.34375 -1.546875 "/></g></g><g style="fill:#000000;fill-opacity:1;"><g transform="translate(117.532603, 149.183768)"><path style="stroke:none" d="M 1.140625 -0.5625 C 1.140625 -0.46875 1.132812 -0.378906 1.125 -0.296875 C 1.113281 -0.222656 1.097656 -0.15625 1.078125 -0.09375 L 0.75 -0.171875 L 0.734375 -0.21875 C 0.753906 -0.257812 0.769531 -0.304688 0.78125 -0.359375 C 0.789062 -0.421875 0.796875 -0.484375 0.796875 -0.546875 C 0.796875 -0.660156 0.78125 -0.753906 0.75 -0.828125 C 0.71875 -0.898438 0.664062 -0.960938 0.59375 -1.015625 C 0.53125 -1.066406 0.4375 -1.109375 0.3125 -1.140625 L 0.03125 -1.234375 L -2.734375 -0.09375 L -2.75 -0.53125 L -0.53125 -1.421875 L -0.53125 -1.46875 L -2.78125 -2.265625 L -2.78125 -2.6875 L 0.390625 -1.515625 C 0.566406 -1.453125 0.710938 -1.375 0.828125 -1.28125 C 0.941406 -1.195312 1.019531 -1.097656 1.0625 -0.984375 C 1.113281 -0.867188 1.140625 -0.726562 1.140625 -0.5625 Z M 1.140625 -0.5625 "/></g></g><g style="fill:#000000;fill-opacity:1;"><g transform="translate(117.475794, 146.302309)"><path style="stroke:none" d=""/></g></g><g style="fill:#000000;fill-opacity:1;"><g transform="translate(117.451273, 145.058551)"><path style="stroke:none" d="M -0.46875 -1.828125 L -0.1875 -1.984375 C -0.113281 -1.910156 -0.0625 -1.820312 -0.03125 -1.71875 C 0 -1.613281 0.015625 -1.503906 0.015625 -1.390625 C 0.0234375 -0.859375 -0.226562 -0.585938 -0.75 -0.578125 L -2.421875 -0.546875 L -2.40625 -0.078125 L -2.734375 -0.078125 L -2.75 -0.546875 L -3.328125 -0.53125 L -3.390625 -0.9375 L -2.75 -0.953125 L -2.765625 -1.84375 L -2.4375 -1.84375 L -2.421875 -0.953125 L -0.796875 -0.984375 C -0.484375 -0.992188 -0.332031 -1.132812 -0.34375 -1.40625 C -0.34375 -1.5625 -0.382812 -1.6875 -0.46875 -1.78125 Z M -0.46875 -1.828125 "/></g></g><g style="fill:#000000;fill-opacity:1;"><g transform="translate(117.410876, 143.009574)"><path style="stroke:none" d="M -1.328125 -2.578125 L -1.296875 -0.6875 C -0.960938 -0.71875 -0.71875 -0.804688 -0.5625 -0.953125 C -0.40625 -1.109375 -0.332031 -1.316406 -0.34375 -1.578125 C -0.34375 -1.765625 -0.378906 -1.914062 -0.453125 -2.03125 C -0.523438 -2.144531 -0.632812 -2.238281 -0.78125 -2.3125 L -0.78125 -2.359375 L -0.625 -2.625 C -0.425781 -2.550781 -0.269531 -2.425781 -0.15625 -2.25 C -0.0507812 -2.082031 0.00390625 -1.859375 0.015625 -1.578125 C 0.0234375 -1.304688 -0.0195312 -1.078125 -0.125 -0.890625 C -0.226562 -0.703125 -0.378906 -0.550781 -0.578125 -0.4375 C -0.785156 -0.332031 -1.046875 -0.273438 -1.359375 -0.265625 C -1.671875 -0.265625 -1.9375 -0.316406 -2.15625 -0.421875 C -2.375 -0.523438 -2.535156 -0.664062 -2.640625 -0.84375 C -2.742188 -1.03125 -2.800781 -1.242188 -2.8125 -1.484375 C -2.820312 -1.835938 -2.726562 -2.113281 -2.53125 -2.3125 C -2.332031 -2.519531 -2.039062 -2.628906 -1.65625 -2.640625 C -1.507812 -2.640625 -1.40625 -2.632812 -1.34375 -2.625 Z M -1.65625 -2.234375 C -1.945312 -2.222656 -2.15625 -2.15625 -2.28125 -2.03125 C -2.40625 -1.90625 -2.46875 -1.726562 -2.46875 -1.5 C -2.457031 -1.257812 -2.382812 -1.070312 -2.25 -0.9375 C -2.125 -0.800781 -1.914062 -0.722656 -1.625 -0.703125 Z M -1.65625 -2.234375 "/></g></g><g style="fill:#000000;fill-opacity:1;"><g transform="translate(117.354263, 140.138037)"><path style="stroke:none" d="M -0.015625 -0.5625 L 0 -0.125 L -1.4375 -0.9375 L -2.734375 -0.125 L -2.75 -0.578125 L -1.71875 -1.21875 L -1.71875 -1.28125 L -2.765625 -1.90625 L -2.78125 -2.34375 L -1.453125 -1.5625 L -0.046875 -2.421875 L -0.03125 -1.96875 L -1.1875 -1.28125 L -1.1875 -1.21875 Z M -0.015625 -0.5625 "/></g></g><g style="fill:#000000;fill-opacity:1;"><g transform="translate(117.304048, 137.591057)"><path style="stroke:none" d="M -0.46875 -1.828125 L -0.1875 -1.984375 C -0.113281 -1.910156 -0.0625 -1.820312 -0.03125 -1.71875 C 0 -1.613281 0.015625 -1.503906 0.015625 -1.390625 C 0.0234375 -0.859375 -0.226562 -0.585938 -0.75 -0.578125 L -2.421875 -0.546875 L -2.40625 -0.078125 L -2.734375 -0.078125 L -2.75 -0.546875 L -3.328125 -0.53125 L -3.390625 -0.9375 L -2.75 -0.953125 L -2.765625 -1.84375 L -2.4375 -1.84375 L -2.421875 -0.953125 L -0.796875 -0.984375 C -0.484375 -0.992188 -0.332031 -1.132812 -0.34375 -1.40625 C -0.34375 -1.5625 -0.382812 -1.6875 -0.46875 -1.78125 Z M -0.46875 -1.828125 "/></g></g></g></svg>