<svg xmlns="http://www.w3.org/2000/svg" xmlns:xlink="http://www.w3.org/1999/xlink" width="300" zoomAndPan="magnify" viewBox="0 0 224.87999 299.999988" height="400" preserveAspectRatio="xMidYMid meet" version="1.2"><defs><clipPath id="adb9a83225"><path d="M 2.042969 269 L 223 269 L 223 299.917969 L 2.042969 299.917969 Z M 2.042969 269 "/></clipPath></defs><g id="d486c508c1"><path style="fill-rule:evenodd;fill:#000000;fill-opacity:1;stroke-width:1;stroke-linecap:round;stroke-linejoin:round;stroke:#000000;stroke-opacity:1;stroke-miterlimit:1;" d="M 117.318724 23.679815 C 134.892866 41.255168 134.892866 69.745544 117.318724 87.320898 C 99.747254 104.893575 71.254062 104.893575 53.67992 87.320898 C 36.105779 69.745544 36.105779 41.255168 53.67992 23.679815 C 71.254062 6.107137 99.747254 6.107137 117.318724 23.679815 Z M 117.318724 23.679815 " transform="matrix(1.462109,0,0,1.459786,-12.399963,-8.094799)"/><g clip-rule="nonzero" clip-path="url(#adb9a83225)"><path style="fill-rule:evenodd;fill:#000000;fill-opacity:1;stroke-width:1;stroke-linecap:round;stroke-linejoin:round;stroke:#000000;stroke-opacity:1;stroke-miterlimit:1;" d="M 155.499335 210.500899 L 15.49931 210.500899 C 12.739491 210.500899 10.500645 208.261165 10.500645 205.49963 L 10.500645 195.499768 C 10.500645 192.738232 12.739491 190.501174 15.49931 190.501174 L 155.499335 190.501174 C 158.261825 190.501174 160.500671 192.738232 160.500671 195.499768 L 160.500671 205.49963 C 160.500671 208.261165 158.261825 210.500899 155.499335 210.500899 Z M 155.499335 210.500899 " transform="matrix(1.462109,0,0,1.459786,-12.399963,-8.094799)"/></g><path style="fill-rule:evenodd;fill:#000000;fill-opacity:1;stroke-width:1;stroke-linecap:round;stroke-linejoin:round;stroke:#000000;stroke-opacity:1;stroke-miterlimit:1;" d="M 145.499333 190.501174 L 25.499311 190.501174 C 22.739493 190.501174 20.500646 188.261441 20.500646 185.499905 L 20.500646 165.50018 C 20.500646 162.738645 22.739493 160.498911 25.499311 160.498911 L 145.499333 160.498911 C 148.261823 160.498911 150.50067 162.738645 150.50067 165.50018 L 150.50067 185.499905 C 150.50067 188.261441 148.261823 190.501174 145.499333 190.501174 Z M 145.499333 190.501174 " transform="matrix(1.462109,0,0,1.459786,-12.399963,-8.094799)"/><path style="fill-rule:evenodd;fill:#000000;fill-opacity:1;stroke-width:1;stroke-linecap:round;stroke-linejoin:round;stroke:#000000;stroke-opacity:1;stroke-miterlimit:1;" d="M 135.499331 160.498911 L 35.499313 160.498911 C 32.739494 160.498911 30.500648 158.261854 30.500648 155.500318 C 30.500648 152.738783 32.739494 150.499049 35.499313 150.499049 L 135.499331 150.499049 C 138.261822 150.499049 140.500668 152.738783 140.500668 155.500318 C 140.500668 158.261854 138.261822 160.498911 135.499331 160.498911 Z M 135.499331 160.498911 " transform="matrix(1.462109,0,0,1.459786,-12.399963,-8.094799)"/><path style="fill-rule:evenodd;fill:#000000;fill-opacity:1;stroke-width:1;stroke-linecap:round;stroke-linejoin:round;stroke:#000000;stroke-opacity:1;stroke-miterlimit:1;" d="M 135.499331 100.499737 L 35.499313 100.499737 C 32.739494 100.499737 30.500648 98.260003 30.500648 95.501144 C 30.500648 92.739608 32.739494 90.499875 35.499313 90.499875 L 135.499331 90.499875 C 138.261822 90.499875 140.500668 92.739608 140.500668 95.501144 C 140.500668 98.260003 138.261822 100.499737 135.499331 100.499737 Z M 135.499331 100.499737 " transform="matrix(1.462109,0,0,1.459786,-12.399963,-8.094799)"/><path style="fill-rule:evenodd;fill:#000000;fill-opacity:1;stroke-width:1;stroke-linecap:round;stroke-linejoin:round;stroke:#000000;stroke-opacity:1;stroke-miterlimit:1;" d="M 124.427996 160.498911 L 44.427982 160.498911 C 41.668163 160.498911 39.907543 158.261854 40.50065 155.500318 L 53.35665 95.501144 C 53.949757 92.739608 56.66683 90.499875 59.42932 90.499875 L 109.429329 90.499875 C 112.189148 90.499875 114.908892 92.739608 115.499328 95.501144 L 128.357999 155.500318 C 128.948435 158.261854 127.187815 160.498911 124.427996 160.498911 Z M 124.427996 160.498911 " transform="matrix(1.462109,0,0,1.459786,-12.399963,-8.094799)"/></g></svg>