<svg xmlns="http://www.w3.org/2000/svg" xmlns:xlink="http://www.w3.org/1999/xlink" width="300" zoomAndPan="magnify" viewBox="0 0 224.87999 299.999988" height="400" preserveAspectRatio="xMidYMid meet" version="1.2"><defs><clipPath id="a353bbd046"><path d="M 47.683594 286 L 184.109375 286 L 184.109375 297.269531 L 47.683594 297.269531 Z M 47.683594 286 "/></clipPath><clipPath id="90a12cf1ca"><path d="M 68 2.679688 L 164 2.679688 L 164 74 L 68 74 Z M 68 2.679688 "/></clipPath></defs><g id="3d3ee03544"><g clip-rule="nonzero" clip-path="url(#a353bbd046)"><path style=" stroke:none;fill-rule:nonzero;fill:#000000;fill-opacity:1;" d="M 52.742188 286.589844 L 179.054688 286.589844 C 179.386719 286.589844 179.714844 286.625 180.039062 286.6875 C 180.367188 286.753906 180.683594 286.847656 180.988281 286.976562 C 181.296875 287.105469 181.585938 287.261719 181.863281 287.445312 C 182.140625 287.628906 182.394531 287.839844 182.628906 288.074219 C 182.863281 288.308594 183.074219 288.566406 183.257812 288.84375 C 183.441406 289.117188 183.597656 289.410156 183.726562 289.71875 C 183.851562 290.023438 183.949219 290.34375 184.015625 290.667969 C 184.078125 290.996094 184.109375 291.324219 184.109375 291.65625 L 184.109375 292.035156 C 184.109375 292.367188 184.078125 292.695312 184.015625 293.023438 C 183.949219 293.347656 183.851562 293.664062 183.726562 293.972656 C 183.597656 294.28125 183.441406 294.570312 183.257812 294.847656 C 183.074219 295.125 182.863281 295.382812 182.628906 295.617188 C 182.394531 295.851562 182.140625 296.0625 181.863281 296.246094 C 181.585938 296.429688 181.296875 296.585938 180.988281 296.714844 C 180.683594 296.839844 180.367188 296.9375 180.039062 297.003906 C 179.714844 297.066406 179.386719 297.101562 179.054688 297.101562 L 52.742188 297.101562 C 52.410156 297.101562 52.082031 297.066406 51.753906 297.003906 C 51.429688 296.9375 51.113281 296.839844 50.804688 296.714844 C 50.5 296.585938 50.207031 296.429688 49.933594 296.246094 C 49.65625 296.0625 49.402344 295.851562 49.164062 295.617188 C 48.929688 295.382812 48.722656 295.125 48.535156 294.847656 C 48.351562 294.570312 48.195312 294.28125 48.070312 293.972656 C 47.941406 293.664062 47.847656 293.347656 47.78125 293.023438 C 47.714844 292.695312 47.683594 292.367188 47.683594 292.035156 L 47.683594 291.65625 C 47.683594 291.324219 47.714844 290.996094 47.78125 290.667969 C 47.847656 290.34375 47.941406 290.023438 48.070312 289.71875 C 48.195312 289.410156 48.351562 289.117188 48.535156 288.84375 C 48.722656 288.566406 48.929688 288.308594 49.164062 288.074219 C 49.402344 287.839844 49.65625 287.628906 49.933594 287.445312 C 50.207031 287.261719 50.5 287.105469 50.804688 286.976562 C 51.113281 286.847656 51.429688 286.753906 51.753906 286.6875 C 52.082031 286.625 52.410156 286.589844 52.742188 286.589844 Z M 52.742188 286.589844 "/></g><path style=" stroke:none;fill-rule:nonzero;fill:#000000;fill-opacity:1;" d="M 79.167969 100.058594 L 79.167969 102.683594 C 79.167969 103.03125 79.199219 103.371094 79.269531 103.710938 C 79.335938 104.046875 79.433594 104.375 79.566406 104.695312 C 79.699219 105.015625 79.859375 105.316406 80.050781 105.605469 C 80.242188 105.890625 80.460938 106.15625 80.703125 106.398438 C 80.949219 106.644531 81.210938 106.863281 81.5 107.054688 C 81.785156 107.246094 82.089844 107.40625 82.40625 107.539062 C 82.726562 107.671875 83.054688 107.769531 83.390625 107.839844 C 83.730469 107.90625 84.070312 107.9375 84.414062 107.9375 L 147.378906 107.9375 C 147.726562 107.9375 148.066406 107.90625 148.40625 107.839844 C 148.742188 107.769531 149.070312 107.671875 149.390625 107.539062 C 149.707031 107.40625 150.007812 107.246094 150.296875 107.054688 C 150.582031 106.863281 150.847656 106.644531 151.089844 106.398438 C 151.335938 106.15625 151.550781 105.890625 151.742188 105.605469 C 151.933594 105.316406 152.097656 105.015625 152.230469 104.695312 C 152.359375 104.375 152.460938 104.046875 152.527344 103.710938 C 152.59375 103.371094 152.628906 103.03125 152.628906 102.683594 L 152.628906 100.058594 Z M 79.167969 100.058594 "/><path style=" stroke:none;fill-rule:nonzero;fill:#000000;fill-opacity:1;" d="M 147.378906 84.292969 L 147.378906 81.667969 C 147.378906 81.320312 147.347656 80.980469 147.28125 80.640625 C 147.210938 80.304688 147.113281 79.972656 146.980469 79.65625 C 146.847656 79.335938 146.6875 79.035156 146.496094 78.746094 C 146.304688 78.460938 146.085938 78.195312 145.84375 77.949219 C 145.601562 77.707031 145.335938 77.488281 145.046875 77.296875 C 144.761719 77.105469 144.460938 76.945312 144.140625 76.8125 C 143.824219 76.679688 143.496094 76.582031 143.15625 76.511719 C 142.820312 76.445312 142.476562 76.410156 142.132812 76.410156 L 89.660156 76.410156 C 89.316406 76.410156 88.976562 76.445312 88.636719 76.511719 C 88.300781 76.582031 87.972656 76.679688 87.652344 76.8125 C 87.335938 76.945312 87.03125 77.105469 86.746094 77.296875 C 86.460938 77.488281 86.195312 77.707031 85.953125 77.949219 C 85.707031 78.195312 85.488281 78.460938 85.296875 78.746094 C 85.105469 79.035156 84.945312 79.335938 84.8125 79.65625 C 84.683594 79.972656 84.582031 80.304688 84.515625 80.640625 C 84.449219 80.980469 84.414062 81.320312 84.414062 81.667969 L 84.414062 84.292969 Z M 147.378906 84.292969 "/><path style=" stroke:none;fill-rule:nonzero;fill:#000000;fill-opacity:1;" d="M 73.921875 86.921875 L 157.875 86.921875 C 158.21875 86.921875 158.5625 86.953125 158.898438 87.023438 C 159.238281 87.089844 159.566406 87.1875 159.882812 87.320312 C 160.203125 87.453125 160.503906 87.613281 160.789062 87.804688 C 161.078125 88 161.34375 88.214844 161.585938 88.460938 C 161.828125 88.703125 162.046875 88.96875 162.238281 89.257812 C 162.429688 89.542969 162.589844 89.847656 162.722656 90.164062 C 162.855469 90.484375 162.953125 90.8125 163.023438 91.148438 C 163.089844 91.488281 163.121094 91.832031 163.121094 92.175781 C 163.121094 92.519531 163.089844 92.863281 163.023438 93.199219 C 162.953125 93.539062 162.855469 93.867188 162.722656 94.1875 C 162.589844 94.503906 162.429688 94.808594 162.238281 95.09375 C 162.046875 95.382812 161.828125 95.648438 161.585938 95.890625 C 161.34375 96.136719 161.078125 96.351562 160.789062 96.542969 C 160.503906 96.734375 160.203125 96.898438 159.882812 97.03125 C 159.566406 97.160156 159.238281 97.261719 158.898438 97.328125 C 158.5625 97.394531 158.21875 97.429688 157.875 97.429688 L 73.921875 97.429688 C 73.574219 97.429688 73.234375 97.394531 72.894531 97.328125 C 72.558594 97.261719 72.230469 97.160156 71.910156 97.03125 C 71.59375 96.898438 71.292969 96.734375 71.003906 96.542969 C 70.71875 96.351562 70.453125 96.136719 70.210938 95.890625 C 69.964844 95.648438 69.75 95.382812 69.558594 95.09375 C 69.367188 94.808594 69.203125 94.503906 69.070312 94.1875 C 68.941406 93.867188 68.839844 93.539062 68.773438 93.199219 C 68.707031 92.863281 68.671875 92.519531 68.671875 92.175781 C 68.671875 91.832031 68.707031 91.488281 68.773438 91.148438 C 68.839844 90.8125 68.941406 90.484375 69.070312 90.164062 C 69.203125 89.847656 69.367188 89.542969 69.558594 89.257812 C 69.75 88.96875 69.964844 88.703125 70.210938 88.460938 C 70.453125 88.214844 70.71875 88 71.003906 87.804688 C 71.292969 87.613281 71.59375 87.453125 71.910156 87.320312 C 72.230469 87.1875 72.558594 87.089844 72.894531 87.023438 C 73.234375 86.953125 73.574219 86.921875 73.921875 86.921875 Z M 73.921875 86.921875 "/><path style=" stroke:none;fill-rule:nonzero;fill:#000000;fill-opacity:1;" d="M 57.789062 255.0625 L 174.003906 255.0625 C 174.324219 255.0625 174.640625 255.09375 174.953125 255.15625 C 175.265625 255.21875 175.570312 255.3125 175.863281 255.433594 C 176.160156 255.558594 176.4375 255.707031 176.703125 255.882812 C 176.96875 256.0625 177.214844 256.261719 177.441406 256.488281 C 177.667969 256.714844 177.867188 256.960938 178.046875 257.226562 C 178.222656 257.492188 178.371094 257.773438 178.492188 258.066406 C 178.617188 258.363281 178.707031 258.667969 178.769531 258.980469 C 178.832031 259.292969 178.863281 259.609375 178.863281 259.929688 L 178.863281 260.707031 C 178.863281 261.027344 178.832031 261.34375 178.769531 261.65625 C 178.707031 261.96875 178.617188 262.273438 178.492188 262.570312 C 178.371094 262.863281 178.222656 263.144531 178.046875 263.410156 C 177.867188 263.675781 177.667969 263.921875 177.441406 264.148438 C 177.214844 264.375 176.96875 264.574219 176.703125 264.753906 C 176.4375 264.929688 176.160156 265.082031 175.863281 265.203125 C 175.570312 265.324219 175.265625 265.417969 174.953125 265.480469 C 174.640625 265.542969 174.324219 265.574219 174.003906 265.574219 L 57.789062 265.574219 C 57.472656 265.574219 57.15625 265.542969 56.84375 265.480469 C 56.527344 265.417969 56.226562 265.324219 55.929688 265.203125 C 55.636719 265.082031 55.355469 264.929688 55.089844 264.753906 C 54.824219 264.574219 54.578125 264.375 54.355469 264.148438 C 54.128906 263.921875 53.925781 263.675781 53.75 263.410156 C 53.574219 263.144531 53.421875 262.863281 53.300781 262.570312 C 53.179688 262.273438 53.085938 261.96875 53.023438 261.65625 C 52.960938 261.34375 52.929688 261.027344 52.929688 260.707031 L 52.929688 259.929688 C 52.929688 259.609375 52.960938 259.292969 53.023438 258.980469 C 53.085938 258.667969 53.179688 258.363281 53.300781 258.066406 C 53.421875 257.773438 53.574219 257.492188 53.75 257.226562 C 53.925781 256.960938 54.128906 256.714844 54.355469 256.488281 C 54.578125 256.261719 54.824219 256.0625 55.089844 255.882812 C 55.355469 255.707031 55.636719 255.558594 55.929688 255.433594 C 56.226562 255.3125 56.527344 255.21875 56.84375 255.15625 C 57.15625 255.09375 57.472656 255.0625 57.789062 255.0625 Z M 57.789062 255.0625 "/><path style=" stroke:none;fill-rule:nonzero;fill:#000000;fill-opacity:1;" d="M 63.425781 268.199219 L 168.371094 268.199219 L 168.371094 283.964844 L 63.425781 283.964844 Z M 63.425781 268.199219 "/><path style=" stroke:none;fill-rule:nonzero;fill:#000000;fill-opacity:1;" d="M 160.078125 242.507812 C 159.035156 241.484375 157.835938 240.695312 156.480469 240.140625 C 155.128906 239.585938 153.722656 239.304688 152.261719 239.300781 C 151.578125 239.304688 150.902344 239.242188 150.230469 239.117188 C 149.558594 238.996094 148.902344 238.808594 148.265625 238.5625 C 147.628906 238.3125 147.023438 238.007812 146.441406 237.648438 C 145.863281 237.285156 145.320312 236.871094 144.820312 236.40625 C 144.320312 235.945312 143.863281 235.4375 143.457031 234.886719 C 143.050781 234.339844 142.699219 233.757812 142.402344 233.140625 C 142.105469 232.523438 141.867188 231.886719 141.691406 231.226562 C 141.511719 230.566406 141.398438 229.894531 141.347656 229.210938 C 138.933594 199.480469 133.984375 132.113281 145.726562 110.566406 L 86.066406 110.566406 C 97.808594 132.113281 92.859375 199.480469 90.449219 229.210938 C 90.394531 229.894531 90.28125 230.566406 90.105469 231.226562 C 89.925781 231.886719 89.691406 232.523438 89.394531 233.140625 C 89.09375 233.753906 88.742188 234.339844 88.335938 234.886719 C 87.929688 235.4375 87.476562 235.945312 86.972656 236.40625 C 86.472656 236.871094 85.933594 237.285156 85.351562 237.648438 C 84.773438 238.007812 84.164062 238.3125 83.527344 238.5625 C 82.890625 238.808594 82.238281 238.996094 81.566406 239.117188 C 80.894531 239.242188 80.21875 239.304688 79.535156 239.300781 C 78.8125 239.300781 78.097656 239.371094 77.390625 239.507812 C 76.683594 239.648438 75.996094 239.855469 75.328125 240.132812 C 74.660156 240.40625 74.027344 240.746094 73.425781 241.144531 C 72.824219 241.546875 72.269531 242 71.757812 242.511719 C 71.246094 243.019531 70.789062 243.574219 70.386719 244.175781 C 69.984375 244.773438 69.644531 245.40625 69.367188 246.074219 C 69.085938 246.742188 68.878906 247.429688 68.734375 248.136719 C 68.589844 248.84375 68.519531 249.558594 68.515625 250.28125 L 68.515625 252.4375 L 163.28125 252.4375 L 163.28125 250.28125 C 163.28125 248.824219 163.003906 247.421875 162.449219 246.074219 C 161.894531 244.730469 161.105469 243.539062 160.078125 242.507812 Z M 160.078125 242.507812 "/><g clip-rule="nonzero" clip-path="url(#90a12cf1ca)"><path style=" stroke:none;fill-rule:nonzero;fill:#000000;fill-opacity:1;" d="M 157.875 18.613281 C 157.53125 18.613281 157.191406 18.648438 156.851562 18.714844 C 156.515625 18.785156 156.1875 18.882812 155.871094 19.015625 C 155.550781 19.148438 155.25 19.3125 154.964844 19.503906 C 154.675781 19.695312 154.414062 19.914062 154.167969 20.15625 C 153.925781 20.398438 153.707031 20.664062 153.515625 20.953125 C 153.324219 21.238281 153.164062 21.539062 153.03125 21.859375 C 152.898438 22.175781 152.800781 22.503906 152.730469 22.84375 C 152.664062 23.179688 152.628906 23.523438 152.628906 23.867188 C 152.648438 25.027344 152.996094 26.078125 153.675781 27.019531 L 136.886719 39.628906 L 132.480469 13.253906 C 133.09375 13.164062 133.675781 12.96875 134.21875 12.667969 C 134.765625 12.363281 135.238281 11.976562 135.644531 11.503906 C 136.050781 11.03125 136.359375 10.503906 136.574219 9.917969 C 136.785156 9.332031 136.890625 8.726562 136.886719 8.105469 C 136.886719 7.757812 136.851562 7.417969 136.785156 7.078125 C 136.71875 6.742188 136.617188 6.410156 136.488281 6.09375 C 136.355469 5.773438 136.195312 5.472656 136.003906 5.183594 C 135.8125 4.898438 135.59375 4.632812 135.347656 4.386719 C 135.105469 4.144531 134.839844 3.925781 134.554688 3.734375 C 134.269531 3.542969 133.964844 3.382812 133.648438 3.25 C 133.328125 3.117188 133 3.019531 132.664062 2.949219 C 132.324219 2.882812 131.984375 2.847656 131.640625 2.847656 C 131.292969 2.847656 130.953125 2.882812 130.617188 2.949219 C 130.277344 3.019531 129.949219 3.117188 129.632812 3.25 C 129.3125 3.382812 129.011719 3.542969 128.722656 3.734375 C 128.4375 3.925781 128.171875 4.144531 127.929688 4.386719 C 127.683594 4.632812 127.46875 4.898438 127.277344 5.183594 C 127.085938 5.472656 126.921875 5.773438 126.792969 6.09375 C 126.660156 6.410156 126.558594 6.742188 126.492188 7.078125 C 126.425781 7.417969 126.390625 7.757812 126.390625 8.105469 C 126.386719 8.589844 126.453125 9.066406 126.582031 9.535156 C 126.714844 10.003906 126.90625 10.445312 127.164062 10.859375 C 127.417969 11.273438 127.726562 11.640625 128.085938 11.96875 C 128.445312 12.296875 128.84375 12.566406 129.277344 12.78125 L 115.898438 39.628906 L 102.515625 12.78125 C 102.953125 12.566406 103.351562 12.296875 103.710938 11.96875 C 104.070312 11.640625 104.378906 11.273438 104.632812 10.859375 C 104.886719 10.445312 105.082031 10.003906 105.210938 9.535156 C 105.34375 9.066406 105.40625 8.589844 105.402344 8.105469 C 105.402344 7.757812 105.371094 7.417969 105.300781 7.078125 C 105.234375 6.742188 105.136719 6.410156 105.003906 6.09375 C 104.871094 5.773438 104.710938 5.472656 104.519531 5.183594 C 104.328125 4.898438 104.109375 4.632812 103.867188 4.386719 C 103.621094 4.144531 103.359375 3.925781 103.070312 3.734375 C 102.785156 3.542969 102.480469 3.382812 102.164062 3.25 C 101.84375 3.117188 101.515625 3.019531 101.179688 2.949219 C 100.839844 2.882812 100.5 2.847656 100.15625 2.847656 C 99.8125 2.847656 99.46875 2.882812 99.132812 2.949219 C 98.792969 3.019531 98.464844 3.117188 98.148438 3.25 C 97.828125 3.382812 97.527344 3.542969 97.242188 3.734375 C 96.953125 3.925781 96.6875 4.144531 96.445312 4.386719 C 96.203125 4.632812 95.984375 4.898438 95.792969 5.183594 C 95.601562 5.472656 95.441406 5.773438 95.308594 6.09375 C 95.175781 6.410156 95.078125 6.742188 95.007812 7.078125 C 94.941406 7.417969 94.910156 7.757812 94.910156 8.105469 C 94.902344 8.726562 95.007812 9.332031 95.222656 9.917969 C 95.4375 10.503906 95.746094 11.03125 96.148438 11.503906 C 96.554688 11.976562 97.03125 12.363281 97.574219 12.667969 C 98.121094 12.96875 98.699219 13.164062 99.316406 13.253906 L 94.910156 39.628906 L 78.117188 27.019531 C 78.796875 26.078125 79.148438 25.027344 79.167969 23.867188 C 79.167969 23.523438 79.132812 23.179688 79.066406 22.84375 C 79 22.503906 78.898438 22.175781 78.769531 21.855469 C 78.636719 21.539062 78.472656 21.234375 78.28125 20.949219 C 78.089844 20.660156 77.875 20.394531 77.628906 20.152344 C 77.386719 19.90625 77.121094 19.691406 76.835938 19.5 C 76.546875 19.308594 76.246094 19.144531 75.929688 19.011719 C 75.609375 18.878906 75.28125 18.78125 74.945312 18.714844 C 74.605469 18.648438 74.265625 18.613281 73.921875 18.613281 C 73.574219 18.613281 73.234375 18.648438 72.894531 18.714844 C 72.558594 18.78125 72.230469 18.878906 71.910156 19.011719 C 71.59375 19.144531 71.292969 19.308594 71.003906 19.5 C 70.71875 19.691406 70.453125 19.90625 70.210938 20.152344 C 69.964844 20.394531 69.75 20.660156 69.558594 20.949219 C 69.367188 21.234375 69.203125 21.539062 69.070312 21.855469 C 68.941406 22.175781 68.839844 22.503906 68.773438 22.84375 C 68.707031 23.179688 68.671875 23.523438 68.671875 23.867188 C 68.671875 24.210938 68.707031 24.554688 68.773438 24.890625 C 68.839844 25.230469 68.941406 25.558594 69.070312 25.878906 C 69.203125 26.195312 69.367188 26.5 69.558594 26.785156 C 69.75 27.074219 69.964844 27.339844 70.210938 27.582031 C 70.453125 27.828125 70.71875 28.042969 71.003906 28.234375 C 71.292969 28.429688 71.59375 28.589844 71.910156 28.722656 C 72.230469 28.855469 72.558594 28.953125 72.894531 29.019531 C 73.234375 29.089844 73.574219 29.121094 73.921875 29.121094 C 74.585938 29.105469 75.234375 28.984375 75.863281 28.753906 L 93.859375 73.785156 L 137.9375 73.785156 L 155.933594 28.753906 C 156.5625 28.984375 157.207031 29.105469 157.875 29.121094 C 158.21875 29.121094 158.5625 29.089844 158.898438 29.019531 C 159.238281 28.953125 159.566406 28.855469 159.882812 28.722656 C 160.203125 28.589844 160.503906 28.429688 160.789062 28.234375 C 161.078125 28.042969 161.34375 27.828125 161.585938 27.582031 C 161.828125 27.339844 162.046875 27.074219 162.238281 26.785156 C 162.429688 26.5 162.589844 26.195312 162.722656 25.878906 C 162.855469 25.558594 162.953125 25.230469 163.023438 24.890625 C 163.089844 24.554688 163.121094 24.210938 163.121094 23.867188 C 163.121094 23.523438 163.089844 23.179688 163.023438 22.84375 C 162.953125 22.503906 162.855469 22.175781 162.722656 21.855469 C 162.589844 21.539062 162.429688 21.234375 162.238281 20.949219 C 162.046875 20.660156 161.828125 20.394531 161.585938 20.152344 C 161.34375 19.90625 161.078125 19.691406 160.789062 19.5 C 160.503906 19.308594 160.203125 19.144531 159.882812 19.011719 C 159.566406 18.878906 159.238281 18.78125 158.898438 18.714844 C 158.5625 18.648438 158.21875 18.613281 157.875 18.613281 Z M 157.875 18.613281 "/></g><g style="fill:#000000;fill-opacity:1;"><g transform="translate(118.554289, 201.005398)"><path style="stroke:none" d="M -0.0625 -3.265625 L -0.0625 -2.8125 L -1.046875 -2.453125 L -1.015625 -0.90625 L -0.015625 -0.59375 L 0 -0.140625 L -3.65625 -1.328125 L -3.671875 -1.921875 Z M -3.21875 -1.609375 L -1.359375 -1.015625 L -1.390625 -2.3125 L -3.21875 -1.671875 Z M -3.21875 -1.609375 "/></g></g><g style="fill:#000000;fill-opacity:1;"><g transform="translate(118.487173, 197.601167)"><path style="stroke:none" d="M 0.015625 -1.421875 C 0.0234375 -1.203125 -0.0195312 -1.003906 -0.125 -0.828125 C -0.226562 -0.660156 -0.378906 -0.523438 -0.578125 -0.421875 C -0.785156 -0.328125 -1.046875 -0.273438 -1.359375 -0.265625 C -1.671875 -0.265625 -1.9375 -0.3125 -2.15625 -0.40625 C -2.375 -0.5 -2.535156 -0.628906 -2.640625 -0.796875 C -2.742188 -0.972656 -2.800781 -1.175781 -2.8125 -1.40625 C -2.8125 -1.582031 -2.78125 -1.742188 -2.71875 -1.890625 C -2.65625 -2.046875 -2.546875 -2.175781 -2.390625 -2.28125 L -2.40625 -2.34375 L -3.875 -2.3125 L -3.890625 -2.703125 L -0.0625 -2.78125 L -0.046875 -2.390625 L -0.453125 -2.375 L -0.453125 -2.3125 C -0.316406 -2.238281 -0.203125 -2.125 -0.109375 -1.96875 C -0.0234375 -1.8125 0.015625 -1.628906 0.015625 -1.421875 Z M -0.34375 -1.546875 C -0.34375 -1.796875 -0.429688 -1.992188 -0.609375 -2.140625 C -0.785156 -2.296875 -1.050781 -2.367188 -1.40625 -2.359375 C -1.769531 -2.359375 -2.035156 -2.273438 -2.203125 -2.109375 C -2.367188 -1.953125 -2.453125 -1.75 -2.453125 -1.5 C -2.441406 -1.238281 -2.351562 -1.035156 -2.1875 -0.890625 C -2.019531 -0.753906 -1.75 -0.6875 -1.375 -0.6875 C -0.675781 -0.707031 -0.332031 -0.992188 -0.34375 -1.546875 Z M -0.34375 -1.546875 "/></g></g><g style="fill:#000000;fill-opacity:1;"><g transform="translate(118.422841, 194.338156)"><path style="stroke:none" d="M 0.015625 -1.421875 C 0.0234375 -1.203125 -0.0195312 -1.003906 -0.125 -0.828125 C -0.226562 -0.660156 -0.378906 -0.523438 -0.578125 -0.421875 C -0.785156 -0.328125 -1.046875 -0.273438 -1.359375 -0.265625 C -1.671875 -0.265625 -1.9375 -0.3125 -2.15625 -0.40625 C -2.375 -0.5 -2.535156 -0.628906 -2.640625 -0.796875 C -2.742188 -0.972656 -2.800781 -1.175781 -2.8125 -1.40625 C -2.8125 -1.582031 -2.78125 -1.742188 -2.71875 -1.890625 C -2.65625 -2.046875 -2.546875 -2.175781 -2.390625 -2.28125 L -2.40625 -2.34375 L -3.875 -2.3125 L -3.890625 -2.703125 L -0.0625 -2.78125 L -0.046875 -2.390625 L -0.453125 -2.375 L -0.453125 -2.3125 C -0.316406 -2.238281 -0.203125 -2.125 -0.109375 -1.96875 C -0.0234375 -1.8125 0.015625 -1.628906 0.015625 -1.421875 Z M -0.34375 -1.546875 C -0.34375 -1.796875 -0.429688 -1.992188 -0.609375 -2.140625 C -0.785156 -2.296875 -1.050781 -2.367188 -1.40625 -2.359375 C -1.769531 -2.359375 -2.035156 -2.273438 -2.203125 -2.109375 C -2.367188 -1.953125 -2.453125 -1.75 -2.453125 -1.5 C -2.441406 -1.238281 -2.351562 -1.035156 -2.1875 -0.890625 C -2.019531 -0.753906 -1.75 -0.6875 -1.375 -0.6875 C -0.675781 -0.707031 -0.332031 -0.992188 -0.34375 -1.546875 Z M -0.34375 -1.546875 "/></g></g><g style="fill:#000000;fill-opacity:1;"><g transform="translate(118.358509, 191.075146)"><path style="stroke:none" d=""/></g></g><g style="fill:#000000;fill-opacity:1;"><g transform="translate(118.333988, 189.831388)"><path style="stroke:none" d="M 0.03125 -1.125 C 0.03125 -0.851562 -0.0351562 -0.640625 -0.171875 -0.484375 C -0.304688 -0.335938 -0.503906 -0.257812 -0.765625 -0.25 C -0.921875 -0.25 -1.054688 -0.28125 -1.171875 -0.34375 C -1.296875 -0.40625 -1.390625 -0.503906 -1.453125 -0.640625 C -1.523438 -0.785156 -1.585938 -0.972656 -1.640625 -1.203125 C -1.671875 -1.398438 -1.707031 -1.550781 -1.75 -1.65625 C -1.789062 -1.757812 -1.835938 -1.828125 -1.890625 -1.859375 C -1.941406 -1.898438 -2.003906 -1.914062 -2.078125 -1.90625 C -2.203125 -1.90625 -2.296875 -1.859375 -2.359375 -1.765625 C -2.429688 -1.679688 -2.46875 -1.546875 -2.46875 -1.359375 C -2.457031 -1.179688 -2.414062 -1.03125 -2.34375 -0.90625 C -2.28125 -0.78125 -2.179688 -0.664062 -2.046875 -0.5625 L -2.046875 -0.515625 L -2.3125 -0.3125 C -2.46875 -0.425781 -2.585938 -0.566406 -2.671875 -0.734375 C -2.753906 -0.910156 -2.800781 -1.113281 -2.8125 -1.34375 C -2.8125 -1.664062 -2.742188 -1.90625 -2.609375 -2.0625 C -2.472656 -2.21875 -2.28125 -2.296875 -2.03125 -2.296875 L -0.578125 -2.328125 C -0.429688 -2.335938 -0.359375 -2.410156 -0.359375 -2.546875 C -0.359375 -2.585938 -0.363281 -2.628906 -0.375 -2.671875 L -0.375 -2.703125 L -0.09375 -2.75 C -0.0703125 -2.71875 -0.0546875 -2.675781 -0.046875 -2.625 C -0.0351562 -2.582031 -0.03125 -2.535156 -0.03125 -2.484375 C -0.03125 -2.328125 -0.0625 -2.210938 -0.125 -2.140625 C -0.1875 -2.066406 -0.285156 -2.019531 -0.421875 -2 L -0.40625 -1.9375 C -0.257812 -1.863281 -0.148438 -1.757812 -0.078125 -1.625 C -0.015625 -1.488281 0.0195312 -1.320312 0.03125 -1.125 Z M -0.296875 -1.21875 C -0.296875 -1.375 -0.332031 -1.503906 -0.40625 -1.609375 C -0.476562 -1.710938 -0.578125 -1.789062 -0.703125 -1.84375 C -0.828125 -1.90625 -0.972656 -1.9375 -1.140625 -1.9375 L -1.484375 -1.921875 L -1.5 -1.875 C -1.457031 -1.8125 -1.421875 -1.738281 -1.390625 -1.65625 C -1.359375 -1.570312 -1.332031 -1.453125 -1.3125 -1.296875 C -1.28125 -1.128906 -1.242188 -1 -1.203125 -0.90625 C -1.160156 -0.820312 -1.101562 -0.757812 -1.03125 -0.71875 C -0.957031 -0.6875 -0.875 -0.671875 -0.78125 -0.671875 C -0.613281 -0.671875 -0.488281 -0.71875 -0.40625 -0.8125 C -0.320312 -0.914062 -0.285156 -1.050781 -0.296875 -1.21875 Z M -0.296875 -1.21875 "/></g></g><g style="fill:#000000;fill-opacity:1;"><g transform="translate(118.278254, 187.004436)"><path style="stroke:none" d=""/></g></g><g style="fill:#000000;fill-opacity:1;"><g transform="translate(118.253732, 185.760678)"><path style="stroke:none" d="M 0.03125 -1.09375 C 0.03125 -0.894531 -0.0195312 -0.738281 -0.125 -0.625 C -0.238281 -0.519531 -0.40625 -0.460938 -0.625 -0.453125 L -3.84375 -0.390625 L -3.84375 -0.796875 L -0.640625 -0.859375 C -0.535156 -0.859375 -0.457031 -0.878906 -0.40625 -0.921875 C -0.351562 -0.972656 -0.328125 -1.046875 -0.328125 -1.140625 C -0.335938 -1.191406 -0.351562 -1.25 -0.375 -1.3125 L -0.359375 -1.34375 L -0.046875 -1.390625 C -0.0234375 -1.359375 -0.0078125 -1.316406 0 -1.265625 C 0.0195312 -1.210938 0.03125 -1.15625 0.03125 -1.09375 Z M 0.03125 -1.09375 "/></g></g><g style="fill:#000000;fill-opacity:1;"><g transform="translate(118.224424, 184.274114)"><path style="stroke:none" d="M -3.28125 -0.609375 C -3.28125 -0.523438 -3.300781 -0.457031 -3.34375 -0.40625 C -3.394531 -0.351562 -3.460938 -0.328125 -3.546875 -0.328125 C -3.628906 -0.316406 -3.695312 -0.335938 -3.75 -0.390625 C -3.8125 -0.441406 -3.84375 -0.507812 -3.84375 -0.59375 C -3.84375 -0.6875 -3.816406 -0.757812 -3.765625 -0.8125 C -3.710938 -0.863281 -3.644531 -0.894531 -3.5625 -0.90625 C -3.476562 -0.90625 -3.410156 -0.878906 -3.359375 -0.828125 C -3.304688 -0.773438 -3.28125 -0.703125 -3.28125 -0.609375 Z M -0.015625 -0.46875 L -2.75 -0.421875 L -2.75 -0.828125 L -0.015625 -0.875 Z M -0.015625 -0.46875 "/></g></g><g style="fill:#000000;fill-opacity:1;"><g transform="translate(118.197705, 182.918861)"><path style="stroke:none" d="M -0.46875 -1.828125 L -0.1875 -1.984375 C -0.113281 -1.910156 -0.0625 -1.820312 -0.03125 -1.71875 C 0 -1.613281 0.015625 -1.503906 0.015625 -1.390625 C 0.0234375 -0.859375 -0.226562 -0.585938 -0.75 -0.578125 L -2.421875 -0.546875 L -2.40625 -0.078125 L -2.734375 -0.078125 L -2.75 -0.546875 L -3.328125 -0.53125 L -3.390625 -0.9375 L -2.75 -0.953125 L -2.765625 -1.84375 L -2.4375 -1.84375 L -2.421875 -0.953125 L -0.796875 -0.984375 C -0.484375 -0.992188 -0.332031 -1.132812 -0.34375 -1.40625 C -0.34375 -1.5625 -0.382812 -1.6875 -0.46875 -1.78125 Z M -0.46875 -1.828125 "/></g></g><g style="fill:#000000;fill-opacity:1;"><g transform="translate(118.156673, 180.837671)"><path style="stroke:none" d="M -0.46875 -1.828125 L -0.1875 -1.984375 C -0.113281 -1.910156 -0.0625 -1.820312 -0.03125 -1.71875 C 0 -1.613281 0.015625 -1.503906 0.015625 -1.390625 C 0.0234375 -0.859375 -0.226562 -0.585938 -0.75 -0.578125 L -2.421875 -0.546875 L -2.40625 -0.078125 L -2.734375 -0.078125 L -2.75 -0.546875 L -3.328125 -0.53125 L -3.390625 -0.9375 L -2.75 -0.953125 L -2.765625 -1.84375 L -2.4375 -1.84375 L -2.421875 -0.953125 L -0.796875 -0.984375 C -0.484375 -0.992188 -0.332031 -1.132812 -0.34375 -1.40625 C -0.34375 -1.5625 -0.382812 -1.6875 -0.46875 -1.78125 Z M -0.46875 -1.828125 "/></g></g><g style="fill:#000000;fill-opacity:1;"><g transform="translate(118.115642, 178.756482)"><path style="stroke:none" d="M 0.03125 -1.09375 C 0.03125 -0.894531 -0.0195312 -0.738281 -0.125 -0.625 C -0.238281 -0.519531 -0.40625 -0.460938 -0.625 -0.453125 L -3.84375 -0.390625 L -3.84375 -0.796875 L -0.640625 -0.859375 C -0.535156 -0.859375 -0.457031 -0.878906 -0.40625 -0.921875 C -0.351562 -0.972656 -0.328125 -1.046875 -0.328125 -1.140625 C -0.335938 -1.191406 -0.351562 -1.25 -0.375 -1.3125 L -0.359375 -1.34375 L -0.046875 -1.390625 C -0.0234375 -1.359375 -0.0078125 -1.316406 0 -1.265625 C 0.0195312 -1.210938 0.03125 -1.15625 0.03125 -1.09375 Z M 0.03125 -1.09375 "/></g></g><g style="fill:#000000;fill-opacity:1;"><g transform="translate(118.086333, 177.269918)"><path style="stroke:none" d="M -1.328125 -2.578125 L -1.296875 -0.6875 C -0.960938 -0.71875 -0.71875 -0.804688 -0.5625 -0.953125 C -0.40625 -1.109375 -0.332031 -1.316406 -0.34375 -1.578125 C -0.34375 -1.765625 -0.378906 -1.914062 -0.453125 -2.03125 C -0.523438 -2.144531 -0.632812 -2.238281 -0.78125 -2.3125 L -0.78125 -2.359375 L -0.625 -2.625 C -0.425781 -2.550781 -0.269531 -2.425781 -0.15625 -2.25 C -0.0507812 -2.082031 0.00390625 -1.859375 0.015625 -1.578125 C 0.0234375 -1.304688 -0.0195312 -1.078125 -0.125 -0.890625 C -0.226562 -0.703125 -0.378906 -0.550781 -0.578125 -0.4375 C -0.785156 -0.332031 -1.046875 -0.273438 -1.359375 -0.265625 C -1.671875 -0.265625 -1.9375 -0.316406 -2.15625 -0.421875 C -2.375 -0.523438 -2.535156 -0.664062 -2.640625 -0.84375 C -2.742188 -1.03125 -2.800781 -1.242188 -2.8125 -1.484375 C -2.820312 -1.835938 -2.726562 -2.113281 -2.53125 -2.3125 C -2.332031 -2.519531 -2.039062 -2.628906 -1.65625 -2.640625 C -1.507812 -2.640625 -1.40625 -2.632812 -1.34375 -2.625 Z M -1.65625 -2.234375 C -1.945312 -2.222656 -2.15625 -2.15625 -2.28125 -2.03125 C -2.40625 -1.90625 -2.46875 -1.726562 -2.46875 -1.5 C -2.457031 -1.257812 -2.382812 -1.070312 -2.25 -0.9375 C -2.125 -0.800781 -1.914062 -0.722656 -1.625 -0.703125 Z M -1.65625 -2.234375 "/></g></g><g style="fill:#000000;fill-opacity:1;"><g transform="translate(118.028889, 174.356253)"><path style="stroke:none" d=""/></g></g><g style="fill:#000000;fill-opacity:1;"><g transform="translate(118.004368, 173.112495)"><path style="stroke:none" d="M 0.015625 -1.8125 C 0.015625 -1.613281 -0.0195312 -1.4375 -0.09375 -1.28125 C -0.164062 -1.132812 -0.265625 -1.019531 -0.390625 -0.9375 L -0.375 -0.875 L -0.015625 -0.875 L -0.015625 -0.46875 L -3.84375 -0.390625 L -3.84375 -0.796875 L -2.34375 -0.828125 L -2.328125 -0.890625 C -2.648438 -1.085938 -2.8125 -1.382812 -2.8125 -1.78125 C -2.820312 -2 -2.773438 -2.195312 -2.671875 -2.375 C -2.566406 -2.550781 -2.410156 -2.6875 -2.203125 -2.78125 C -2.003906 -2.882812 -1.742188 -2.9375 -1.421875 -2.9375 C -1.117188 -2.945312 -0.859375 -2.90625 -0.640625 -2.8125 C -0.421875 -2.71875 -0.257812 -2.582031 -0.15625 -2.40625 C -0.0507812 -2.238281 0.00390625 -2.039062 0.015625 -1.8125 Z M -0.34375 -1.71875 C -0.351562 -2.269531 -0.707031 -2.535156 -1.40625 -2.515625 C -1.78125 -2.515625 -2.050781 -2.4375 -2.21875 -2.28125 C -2.382812 -2.132812 -2.460938 -1.929688 -2.453125 -1.671875 C -2.453125 -1.421875 -2.363281 -1.21875 -2.1875 -1.0625 C -2.007812 -0.914062 -1.738281 -0.84375 -1.375 -0.84375 C -1.019531 -0.851562 -0.757812 -0.9375 -0.59375 -1.09375 C -0.425781 -1.257812 -0.34375 -1.46875 -0.34375 -1.71875 Z M -0.34375 -1.71875 "/></g></g><g style="fill:#000000;fill-opacity:1;"><g transform="translate(117.940085, 169.851965)"><path style="stroke:none" d="M -3.28125 -0.609375 C -3.28125 -0.523438 -3.300781 -0.457031 -3.34375 -0.40625 C -3.394531 -0.351562 -3.460938 -0.328125 -3.546875 -0.328125 C -3.628906 -0.316406 -3.695312 -0.335938 -3.75 -0.390625 C -3.8125 -0.441406 -3.84375 -0.507812 -3.84375 -0.59375 C -3.84375 -0.6875 -3.816406 -0.757812 -3.765625 -0.8125 C -3.710938 -0.863281 -3.644531 -0.894531 -3.5625 -0.90625 C -3.476562 -0.90625 -3.410156 -0.878906 -3.359375 -0.828125 C -3.304688 -0.773438 -3.28125 -0.703125 -3.28125 -0.609375 Z M -0.015625 -0.46875 L -2.75 -0.421875 L -2.75 -0.828125 L -0.015625 -0.875 Z M -0.015625 -0.46875 "/></g></g><g style="fill:#000000;fill-opacity:1;"><g transform="translate(117.913366, 168.496712)"><path style="stroke:none" d="M -0.46875 -1.828125 L -0.1875 -1.984375 C -0.113281 -1.910156 -0.0625 -1.820312 -0.03125 -1.71875 C 0 -1.613281 0.015625 -1.503906 0.015625 -1.390625 C 0.0234375 -0.859375 -0.226562 -0.585938 -0.75 -0.578125 L -2.421875 -0.546875 L -2.40625 -0.078125 L -2.734375 -0.078125 L -2.75 -0.546875 L -3.328125 -0.53125 L -3.390625 -0.9375 L -2.75 -0.953125 L -2.765625 -1.84375 L -2.4375 -1.84375 L -2.421875 -0.953125 L -0.796875 -0.984375 C -0.484375 -0.992188 -0.332031 -1.132812 -0.34375 -1.40625 C -0.34375 -1.5625 -0.382812 -1.6875 -0.46875 -1.78125 Z M -0.46875 -1.828125 "/></g></g><g style="fill:#000000;fill-opacity:1;"><g transform="translate(117.872334, 166.415523)"><path style="stroke:none" d=""/></g></g><g style="fill:#000000;fill-opacity:1;"><g transform="translate(117.847813, 165.171764)"><path style="stroke:none" d="M 0.015625 -1.5625 C 0.0234375 -1.3125 -0.0195312 -1.085938 -0.125 -0.890625 C -0.238281 -0.703125 -0.394531 -0.550781 -0.59375 -0.4375 C -0.800781 -0.332031 -1.054688 -0.273438 -1.359375 -0.265625 C -1.660156 -0.265625 -1.921875 -0.3125 -2.140625 -0.40625 C -2.359375 -0.507812 -2.519531 -0.65625 -2.625 -0.84375 C -2.738281 -1.03125 -2.800781 -1.25 -2.8125 -1.5 C -2.8125 -1.757812 -2.757812 -1.988281 -2.65625 -2.1875 C -2.550781 -2.382812 -2.394531 -2.535156 -2.1875 -2.640625 C -1.976562 -2.753906 -1.722656 -2.8125 -1.421875 -2.8125 C -1.117188 -2.820312 -0.859375 -2.773438 -0.640625 -2.671875 C -0.429688 -2.578125 -0.269531 -2.429688 -0.15625 -2.234375 C -0.0390625 -2.046875 0.015625 -1.820312 0.015625 -1.5625 Z M -0.34375 -1.5625 C -0.351562 -1.84375 -0.441406 -2.050781 -0.609375 -2.1875 C -0.785156 -2.320312 -1.050781 -2.382812 -1.40625 -2.375 C -1.769531 -2.375 -2.035156 -2.300781 -2.203125 -2.15625 C -2.378906 -2.007812 -2.460938 -1.796875 -2.453125 -1.515625 C -2.441406 -1.242188 -2.347656 -1.035156 -2.171875 -0.890625 C -2.003906 -0.753906 -1.738281 -0.6875 -1.375 -0.6875 C -1.019531 -0.695312 -0.753906 -0.773438 -0.578125 -0.921875 C -0.410156 -1.078125 -0.332031 -1.289062 -0.34375 -1.5625 Z M -0.34375 -1.5625 "/></g></g><g style="fill:#000000;fill-opacity:1;"><g transform="translate(117.785973, 162.035115)"><path style="stroke:none" d="M -0.015625 -0.609375 L -2.421875 -0.5625 L -2.40625 -0.09375 L -2.734375 -0.09375 L -2.75 -0.5625 C -2.875 -0.519531 -2.988281 -0.5 -3.09375 -0.5 C -3.269531 -0.5 -3.414062 -0.535156 -3.53125 -0.609375 C -3.65625 -0.679688 -3.75 -0.78125 -3.8125 -0.90625 C -3.875 -1.039062 -3.910156 -1.195312 -3.921875 -1.375 C -3.921875 -1.644531 -3.863281 -1.851562 -3.75 -2 L -3.453125 -1.859375 L -3.453125 -1.8125 C -3.535156 -1.707031 -3.578125 -1.566406 -3.578125 -1.390625 C -3.578125 -1.234375 -3.53125 -1.113281 -3.4375 -1.03125 C -3.351562 -0.945312 -3.234375 -0.90625 -3.078125 -0.90625 C -2.984375 -0.90625 -2.875 -0.925781 -2.75 -0.96875 L -2.765625 -1.84375 L -2.4375 -1.84375 L -2.421875 -0.96875 L -0.015625 -1.015625 Z M -0.015625 -0.609375 "/></g></g><g style="fill:#000000;fill-opacity:1;"><g transform="translate(117.747579, 160.087716)"><path style="stroke:none" d=""/></g></g><g style="fill:#000000;fill-opacity:1;"><g transform="translate(117.723058, 158.843958)"><path style="stroke:none" d="M 0.015625 -1.8125 C 0.015625 -1.613281 -0.0195312 -1.4375 -0.09375 -1.28125 C -0.164062 -1.132812 -0.265625 -1.019531 -0.390625 -0.9375 L -0.375 -0.875 L -0.015625 -0.875 L -0.015625 -0.46875 L -3.84375 -0.390625 L -3.84375 -0.796875 L -2.34375 -0.828125 L -2.328125 -0.890625 C -2.648438 -1.085938 -2.8125 -1.382812 -2.8125 -1.78125 C -2.820312 -2 -2.773438 -2.195312 -2.671875 -2.375 C -2.566406 -2.550781 -2.410156 -2.6875 -2.203125 -2.78125 C -2.003906 -2.882812 -1.742188 -2.9375 -1.421875 -2.9375 C -1.117188 -2.945312 -0.859375 -2.90625 -0.640625 -2.8125 C -0.421875 -2.71875 -0.257812 -2.582031 -0.15625 -2.40625 C -0.0507812 -2.238281 0.00390625 -2.039062 0.015625 -1.8125 Z M -0.34375 -1.71875 C -0.351562 -2.269531 -0.707031 -2.535156 -1.40625 -2.515625 C -1.78125 -2.515625 -2.050781 -2.4375 -2.21875 -2.28125 C -2.382812 -2.132812 -2.460938 -1.929688 -2.453125 -1.671875 C -2.453125 -1.421875 -2.363281 -1.21875 -2.1875 -1.0625 C -2.007812 -0.914062 -1.738281 -0.84375 -1.375 -0.84375 C -1.019531 -0.851562 -0.757812 -0.9375 -0.59375 -1.09375 C -0.425781 -1.257812 -0.34375 -1.46875 -0.34375 -1.71875 Z M -0.34375 -1.71875 "/></g></g><g style="fill:#000000;fill-opacity:1;"><g transform="translate(117.658775, 155.583428)"><path style="stroke:none" d="M 0.015625 -1.5625 C 0.0234375 -1.3125 -0.0195312 -1.085938 -0.125 -0.890625 C -0.238281 -0.703125 -0.394531 -0.550781 -0.59375 -0.4375 C -0.800781 -0.332031 -1.054688 -0.273438 -1.359375 -0.265625 C -1.660156 -0.265625 -1.921875 -0.3125 -2.140625 -0.40625 C -2.359375 -0.507812 -2.519531 -0.65625 -2.625 -0.84375 C -2.738281 -1.03125 -2.800781 -1.25 -2.8125 -1.5 C -2.8125 -1.757812 -2.757812 -1.988281 -2.65625 -2.1875 C -2.550781 -2.382812 -2.394531 -2.535156 -2.1875 -2.640625 C -1.976562 -2.753906 -1.722656 -2.8125 -1.421875 -2.8125 C -1.117188 -2.820312 -0.859375 -2.773438 -0.640625 -2.671875 C -0.429688 -2.578125 -0.269531 -2.429688 -0.15625 -2.234375 C -0.0390625 -2.046875 0.015625 -1.820312 0.015625 -1.5625 Z M -0.34375 -1.5625 C -0.351562 -1.84375 -0.441406 -2.050781 -0.609375 -2.1875 C -0.785156 -2.320312 -1.050781 -2.382812 -1.40625 -2.375 C -1.769531 -2.375 -2.035156 -2.300781 -2.203125 -2.15625 C -2.378906 -2.007812 -2.460938 -1.796875 -2.453125 -1.515625 C -2.441406 -1.242188 -2.347656 -1.035156 -2.171875 -0.890625 C -2.003906 -0.753906 -1.738281 -0.6875 -1.375 -0.6875 C -1.019531 -0.695312 -0.753906 -0.773438 -0.578125 -0.921875 C -0.410156 -1.078125 -0.332031 -1.289062 -0.34375 -1.5625 Z M -0.34375 -1.5625 "/></g></g><g style="fill:#000000;fill-opacity:1;"><g transform="translate(117.596935, 152.446779)"><path style="stroke:none" d="M 0.015625 -1.421875 C 0.0234375 -1.203125 -0.0195312 -1.003906 -0.125 -0.828125 C -0.226562 -0.660156 -0.378906 -0.523438 -0.578125 -0.421875 C -0.785156 -0.328125 -1.046875 -0.273438 -1.359375 -0.265625 C -1.671875 -0.265625 -1.9375 -0.3125 -2.15625 -0.40625 C -2.375 -0.5 -2.535156 -0.628906 -2.640625 -0.796875 C -2.742188 -0.972656 -2.800781 -1.175781 -2.8125 -1.40625 C -2.8125 -1.582031 -2.78125 -1.742188 -2.71875 -1.890625 C -2.65625 -2.046875 -2.546875 -2.175781 -2.390625 -2.28125 L -2.40625 -2.34375 L -3.875 -2.3125 L -3.890625 -2.703125 L -0.0625 -2.78125 L -0.046875 -2.390625 L -0.453125 -2.375 L -0.453125 -2.3125 C -0.316406 -2.238281 -0.203125 -2.125 -0.109375 -1.96875 C -0.0234375 -1.8125 0.015625 -1.628906 0.015625 -1.421875 Z M -0.34375 -1.546875 C -0.34375 -1.796875 -0.429688 -1.992188 -0.609375 -2.140625 C -0.785156 -2.296875 -1.050781 -2.367188 -1.40625 -2.359375 C -1.769531 -2.359375 -2.035156 -2.273438 -2.203125 -2.109375 C -2.367188 -1.953125 -2.453125 -1.75 -2.453125 -1.5 C -2.441406 -1.238281 -2.351562 -1.035156 -2.1875 -0.890625 C -2.019531 -0.753906 -1.75 -0.6875 -1.375 -0.6875 C -0.675781 -0.707031 -0.332031 -0.992188 -0.34375 -1.546875 Z M -0.34375 -1.546875 "/></g></g><g style="fill:#000000;fill-opacity:1;"><g transform="translate(117.532603, 149.183768)"><path style="stroke:none" d="M 1.140625 -0.5625 C 1.140625 -0.46875 1.132812 -0.378906 1.125 -0.296875 C 1.113281 -0.222656 1.097656 -0.15625 1.078125 -0.09375 L 0.75 -0.171875 L 0.734375 -0.21875 C 0.753906 -0.257812 0.769531 -0.304688 0.78125 -0.359375 C 0.789062 -0.421875 0.796875 -0.484375 0.796875 -0.546875 C 0.796875 -0.660156 0.78125 -0.753906 0.75 -0.828125 C 0.71875 -0.898438 0.664062 -0.960938 0.59375 -1.015625 C 0.53125 -1.066406 0.4375 -1.109375 0.3125 -1.140625 L 0.03125 -1.234375 L -2.734375 -0.09375 L -2.75 -0.53125 L -0.53125 -1.421875 L -0.53125 -1.46875 L -2.78125 -2.265625 L -2.78125 -2.6875 L 0.390625 -1.515625 C 0.566406 -1.453125 0.710938 -1.375 0.828125 -1.28125 C 0.941406 -1.195312 1.019531 -1.097656 1.0625 -0.984375 C 1.113281 -0.867188 1.140625 -0.726562 1.140625 -0.5625 Z M 1.140625 -0.5625 "/></g></g><g style="fill:#000000;fill-opacity:1;"><g transform="translate(117.475794, 146.302309)"><path style="stroke:none" d=""/></g></g><g style="fill:#000000;fill-opacity:1;"><g transform="translate(117.451273, 145.058551)"><path style="stroke:none" d="M -0.46875 -1.828125 L -0.1875 -1.984375 C -0.113281 -1.910156 -0.0625 -1.820312 -0.03125 -1.71875 C 0 -1.613281 0.015625 -1.503906 0.015625 -1.390625 C 0.0234375 -0.859375 -0.226562 -0.585938 -0.75 -0.578125 L -2.421875 -0.546875 L -2.40625 -0.078125 L -2.734375 -0.078125 L -2.75 -0.546875 L -3.328125 -0.53125 L -3.390625 -0.9375 L -2.75 -0.953125 L -2.765625 -1.84375 L -2.4375 -1.84375 L -2.421875 -0.953125 L -0.796875 -0.984375 C -0.484375 -0.992188 -0.332031 -1.132812 -0.34375 -1.40625 C -0.34375 -1.5625 -0.382812 -1.6875 -0.46875 -1.78125 Z M -0.46875 -1.828125 "/></g></g><g style="fill:#000000;fill-opacity:1;"><g transform="translate(117.410876, 143.009574)"><path style="stroke:none" d="M -1.328125 -2.578125 L -1.296875 -0.6875 C -0.960938 -0.71875 -0.71875 -0.804688 -0.5625 -0.953125 C -0.40625 -1.109375 -0.332031 -1.316406 -0.34375 -1.578125 C -0.34375 -1.765625 -0.378906 -1.914062 -0.453125 -2.03125 C -0.523438 -2.144531 -0.632812 -2.238281 -0.78125 -2.3125 L -0.78125 -2.359375 L -0.625 -2.625 C -0.425781 -2.550781 -0.269531 -2.425781 -0.15625 -2.25 C -0.0507812 -2.082031 0.00390625 -1.859375 0.015625 -1.578125 C 0.0234375 -1.304688 -0.0195312 -1.078125 -0.125 -0.890625 C -0.226562 -0.703125 -0.378906 -0.550781 -0.578125 -0.4375 C -0.785156 -0.332031 -1.046875 -0.273438 -1.359375 -0.265625 C -1.671875 -0.265625 -1.9375 -0.316406 -2.15625 -0.421875 C -2.375 -0.523438 -2.535156 -0.664062 -2.640625 -0.84375 C -2.742188 -1.03125 -2.800781 -1.242188 -2.8125 -1.484375 C -2.820312 -1.835938 -2.726562 -2.113281 -2.53125 -2.3125 C -2.332031 -2.519531 -2.039062 -2.628906 -1.65625 -2.640625 C -1.507812 -2.640625 -1.40625 -2.632812 -1.34375 -2.625 Z M -1.65625 -2.234375 C -1.945312 -2.222656 -2.15625 -2.15625 -2.28125 -2.03125 C -2.40625 -1.90625 -2.46875 -1.726562 -2.46875 -1.5 C -2.457031 -1.257812 -2.382812 -1.070312 -2.25 -0.9375 C -2.125 -0.800781 -1.914062 -0.722656 -1.625 -0.703125 Z M -1.65625 -2.234375 "/></g></g><g style="fill:#000000;fill-opacity:1;"><g transform="translate(117.354263, 140.138037)"><path style="stroke:none" d="M -0.015625 -0.5625 L 0 -0.125 L -1.4375 -0.9375 L -2.734375 -0.125 L -2.75 -0.578125 L -1.71875 -1.21875 L -1.71875 -1.28125 L -2.765625 -1.90625 L -2.78125 -2.34375 L -1.453125 -1.5625 L -0.046875 -2.421875 L -0.03125 -1.96875 L -1.1875 -1.28125 L -1.1875 -1.21875 Z M -0.015625 -0.5625 "/></g></g><g style="fill:#000000;fill-opacity:1;"><g transform="translate(117.304048, 137.591057)"><path style="stroke:none" d="M -0.46875 -1.828125 L -0.1875 -1.984375 C -0.113281 -1.910156 -0.0625 -1.820312 -0.03125 -1.71875 C 0 -1.613281 0.015625 -1.503906 0.015625 -1.390625 C 0.0234375 -0.859375 -0.226562 -0.585938 -0.75 -0.578125 L -2.421875 -0.546875 L -2.40625 -0.078125 L -2.734375 -0.078125 L -2.75 -0.546875 L -3.328125 -0.53125 L -3.390625 -0.9375 L -2.75 -0.953125 L -2.765625 -1.84375 L -2.4375 -1.84375 L -2.421875 -0.953125 L -0.796875 -0.984375 C -0.484375 -0.992188 -0.332031 -1.132812 -0.34375 -1.40625 C -0.34375 -1.5625 -0.382812 -1.6875 -0.46875 -1.78125 Z M -0.46875 -1.828125 "/></g></g></g></svg>