<svg xmlns="http://www.w3.org/2000/svg" xmlns:xlink="http://www.w3.org/1999/xlink" width="300" zoomAndPan="magnify" viewBox="0 0 224.87999 299.999988" height="400" preserveAspectRatio="xMidYMid meet" version="1.2"><defs><clipPath id="4086838849"><path d="M 6.949219 13.84375 L 217.585938 13.84375 L 217.585938 299.917969 L 6.949219 299.917969 Z M 6.949219 13.84375 "/></clipPath><clipPath id="f387944c3d"><path d="M 86 90.03125 L 139 90.03125 L 139 115 L 86 115 Z M 86 90.03125 "/></clipPath><clipPath id="d2c8b97485"><path d="M 78.78125 183 L 146.246094 183 L 146.246094 209.96875 L 78.78125 209.96875 Z M 78.78125 183 "/></clipPath></defs><g id="6d9d07baa4"><g clip-rule="nonzero" clip-path="url(#4086838849)"><path style=" stroke:none;fill-rule:nonzero;fill:#000000;fill-opacity:1;" d="M 217.542969 273.121094 L 217.542969 295.355469 C 217.542969 298.042969 215.398438 300.242188 212.667969 300.242188 L 11.867188 300.242188 C 9.140625 300.242188 6.996094 298.042969 6.996094 295.355469 L 6.996094 273.121094 C 6.996094 264.570312 8.699219 257.09375 12.015625 250.886719 C 12.113281 250.789062 12.160156 250.644531 12.257812 250.496094 C 18.253906 239.796875 29.21875 232.90625 45.644531 229.582031 L 59.679688 101.214844 C 59.730469 100.921875 59.777344 100.578125 59.875 100.285156 C 41.597656 95.695312 31.410156 81.179688 31.410156 58.898438 L 31.410156 18.683594 C 31.410156 15.996094 33.605469 13.796875 36.285156 13.796875 L 71.183594 13.796875 C 73.863281 13.796875 76.054688 15.996094 76.054688 18.683594 L 76.054688 45.507812 L 87.996094 45.507812 L 87.996094 19.367188 C 87.996094 16.679688 90.191406 14.480469 92.871094 14.480469 L 131.667969 14.480469 C 134.347656 14.480469 136.539062 16.679688 136.539062 19.367188 L 136.539062 45.507812 L 148.480469 45.507812 L 148.480469 18.683594 C 148.480469 15.996094 150.675781 13.796875 153.355469 13.796875 L 188.25 13.796875 C 190.933594 13.796875 193.125 15.996094 193.125 18.683594 L 193.125 58.898438 C 193.125 81.179688 182.9375 95.695312 164.664062 100.285156 C 164.757812 100.578125 164.808594 100.921875 164.855469 101.214844 L 178.894531 229.582031 C 195.757812 232.953125 206.871094 240.136719 212.765625 251.375 C 212.816406 251.523438 212.914062 251.667969 212.960938 251.765625 C 216.03125 257.777344 217.542969 264.960938 217.542969 273.121094 Z M 217.542969 273.121094 "/></g><g clip-rule="nonzero" clip-path="url(#f387944c3d)"><path style=" stroke:none;fill-rule:nonzero;fill:#000000;fill-opacity:1;" d="M 86.75 110.628906 C 88.011719 114.179688 91.953125 114.636719 94.015625 114.636719 L 131.011719 114.636719 C 133.078125 114.636719 137.019531 114.179688 138.277344 110.628906 C 138.402344 110.273438 138.5 109.914062 138.5625 109.546875 C 138.871094 107.757812 138.871094 95.542969 138.871094 95.542969 C 138.875 95.253906 138.851562 94.964844 138.800781 94.679688 C 138.75 94.390625 138.667969 94.113281 138.5625 93.84375 C 138.453125 93.574219 138.324219 93.316406 138.164062 93.074219 C 138.007812 92.828125 137.828125 92.601562 137.625 92.394531 C 137.421875 92.183594 137.203125 91.996094 136.960938 91.832031 C 136.722656 91.667969 136.46875 91.527344 136.203125 91.410156 C 135.933594 91.292969 135.660156 91.207031 135.375 91.144531 C 135.089844 91.082031 134.800781 91.050781 134.511719 91.042969 C 133.527344 91.046875 132.644531 91.347656 131.863281 91.945312 C 131.070312 92.554688 130.554688 93.339844 130.320312 94.308594 C 129.925781 95.921875 129.105469 98.644531 127.941406 100.347656 C 126.179688 102.929688 121.738281 103.398438 120.382812 99.191406 C 119.109375 95.25 117.992188 90.191406 112.515625 90.191406 C 107.039062 90.191406 105.917969 95.25 104.644531 99.191406 C 103.289062 103.398438 98.847656 102.929688 97.089844 100.347656 C 95.925781 98.644531 95.105469 95.921875 94.710938 94.308594 C 94.523438 93.546875 94.152344 92.890625 93.605469 92.332031 C 93.058594 91.773438 92.40625 91.394531 91.648438 91.191406 C 90.890625 90.988281 90.136719 90.992188 89.378906 91.203125 C 88.625 91.410156 87.976562 91.800781 87.433594 92.363281 C 86.578125 93.25 86.152344 94.3125 86.15625 95.542969 C 86.15625 95.542969 86.15625 107.757812 86.46875 109.546875 C 86.53125 109.914062 86.625 110.273438 86.75 110.628906 Z M 86.75 110.628906 "/></g><path style=" stroke:none;fill-rule:nonzero;fill:#000000;fill-opacity:1;" d="M 90.730469 171.5625 C 90.21875 171.5625 89.726562 171.660156 89.253906 171.855469 C 88.777344 172.050781 88.359375 172.332031 88 172.691406 C 87.636719 173.054688 87.355469 173.472656 87.160156 173.941406 C 86.964844 174.414062 86.867188 174.90625 86.867188 175.417969 C 86.867188 175.929688 86.964844 176.421875 87.160156 176.894531 C 87.355469 177.367188 87.636719 177.785156 88 178.144531 C 88.359375 178.507812 88.777344 178.785156 89.253906 178.980469 C 89.726562 179.175781 90.21875 179.273438 90.730469 179.273438 L 134.304688 179.273438 C 134.816406 179.273438 135.3125 179.175781 135.785156 178.980469 C 136.257812 178.785156 136.675781 178.507812 137.039062 178.144531 C 137.402344 177.785156 137.679688 177.367188 137.875 176.894531 C 138.070312 176.421875 138.171875 175.929688 138.171875 175.417969 C 138.171875 174.90625 138.070312 174.414062 137.875 173.941406 C 137.679688 173.472656 137.402344 173.054688 137.039062 172.691406 C 136.675781 172.332031 136.257812 172.050781 135.785156 171.855469 C 135.3125 171.660156 134.816406 171.5625 134.304688 171.5625 L 133.171875 171.5625 C 131.722656 154.4375 125.433594 140.144531 128.429688 130.390625 C 128.878906 128.898438 129.566406 127.523438 130.484375 126.265625 L 130.828125 126.265625 C 131.082031 126.269531 131.335938 126.246094 131.585938 126.199219 C 131.835938 126.152344 132.082031 126.078125 132.316406 125.984375 C 132.554688 125.886719 132.777344 125.769531 132.992188 125.628906 C 133.203125 125.488281 133.402344 125.328125 133.582031 125.148438 C 133.765625 124.96875 133.925781 124.773438 134.070312 124.5625 C 134.210938 124.351562 134.332031 124.128906 134.429688 123.894531 C 134.527344 123.660156 134.601562 123.417969 134.652344 123.167969 C 134.703125 122.917969 134.726562 122.664062 134.726562 122.410156 C 134.726562 122.15625 134.703125 121.902344 134.652344 121.652344 C 134.601562 121.402344 134.527344 121.160156 134.429688 120.925781 C 134.332031 120.691406 134.210938 120.46875 134.070312 120.257812 C 133.925781 120.046875 133.765625 119.851562 133.582031 119.671875 C 133.402344 119.492188 133.203125 119.332031 132.992188 119.191406 C 132.777344 119.050781 132.554688 118.933594 132.316406 118.835938 C 132.082031 118.742188 131.835938 118.667969 131.585938 118.621094 C 131.335938 118.574219 131.082031 118.550781 130.828125 118.554688 L 94.203125 118.554688 C 93.949219 118.550781 93.695312 118.574219 93.445312 118.621094 C 93.191406 118.667969 92.949219 118.742188 92.714844 118.835938 C 92.476562 118.933594 92.25 119.050781 92.039062 119.191406 C 91.824219 119.332031 91.628906 119.492188 91.445312 119.671875 C 91.265625 119.851562 91.105469 120.046875 90.960938 120.257812 C 90.820312 120.46875 90.699219 120.691406 90.601562 120.925781 C 90.5 121.160156 90.425781 121.402344 90.378906 121.652344 C 90.328125 121.902344 90.300781 122.15625 90.300781 122.410156 C 90.300781 122.664062 90.328125 122.917969 90.378906 123.167969 C 90.425781 123.417969 90.5 123.660156 90.601562 123.894531 C 90.699219 124.128906 90.820312 124.351562 90.960938 124.5625 C 91.105469 124.773438 91.265625 124.96875 91.445312 125.148438 C 91.628906 125.328125 91.824219 125.488281 92.039062 125.628906 C 92.25 125.769531 92.476562 125.886719 92.714844 125.984375 C 92.949219 126.078125 93.191406 126.152344 93.445312 126.199219 C 93.695312 126.246094 93.949219 126.269531 94.203125 126.265625 L 94.554688 126.265625 C 95.476562 127.523438 96.160156 128.898438 96.609375 130.390625 C 99.605469 140.144531 93.316406 154.4375 91.867188 171.5625 Z M 90.730469 171.5625 "/><g clip-rule="nonzero" clip-path="url(#d2c8b97485)"><path style=" stroke:none;fill-rule:nonzero;fill:#000000;fill-opacity:1;" d="M 142.117188 201.484375 L 142.109375 201.484375 C 143.609375 200.472656 144.683594 199.121094 145.328125 197.429688 C 145.4375 197.148438 145.53125 196.859375 145.609375 196.566406 C 145.804688 195.832031 145.902344 195.085938 145.902344 194.324219 C 145.902344 193.589844 145.832031 192.859375 145.6875 192.136719 C 145.542969 191.417969 145.332031 190.714844 145.046875 190.035156 C 144.765625 189.355469 144.417969 188.710938 144.011719 188.097656 C 143.601562 187.484375 143.132812 186.917969 142.613281 186.398438 C 142.089844 185.878906 141.523438 185.414062 140.910156 185.003906 C 140.296875 184.597656 139.648438 184.25 138.96875 183.96875 C 138.285156 183.6875 137.582031 183.472656 136.859375 183.332031 C 136.136719 183.1875 135.40625 183.117188 134.667969 183.113281 L 90.363281 183.113281 C 89.625 183.113281 88.894531 183.1875 88.167969 183.328125 C 87.445312 183.472656 86.742188 183.683594 86.058594 183.964844 C 85.378906 184.246094 84.730469 184.59375 84.117188 185 C 83.503906 185.410156 82.9375 185.875 82.414062 186.394531 C 81.890625 186.917969 81.425781 187.484375 81.015625 188.09375 C 80.605469 188.707031 80.261719 189.355469 79.980469 190.035156 C 79.695312 190.714844 79.484375 191.414062 79.339844 192.136719 C 79.195312 192.859375 79.125 193.589844 79.125 194.324219 C 79.125 195.085938 79.222656 195.832031 79.421875 196.566406 C 79.5 196.859375 79.59375 197.148438 79.703125 197.429688 C 80.355469 199.117188 81.429688 200.46875 82.925781 201.484375 L 82.914062 201.484375 C 82.644531 201.484375 82.375 201.511719 82.109375 201.5625 C 81.84375 201.617188 81.582031 201.695312 81.332031 201.796875 C 81.082031 201.902344 80.84375 202.03125 80.617188 202.179688 C 80.394531 202.332031 80.183594 202.5 79.992188 202.691406 C 79.800781 202.882812 79.628906 203.09375 79.480469 203.316406 C 79.328125 203.542969 79.203125 203.78125 79.097656 204.03125 C 78.992188 204.28125 78.914062 204.539062 78.863281 204.804688 C 78.808594 205.070312 78.78125 205.335938 78.78125 205.609375 L 78.78125 205.667969 C 78.78125 205.941406 78.808594 206.207031 78.863281 206.472656 C 78.914062 206.738281 78.992188 206.996094 79.097656 207.246094 C 79.199219 207.496094 79.328125 207.734375 79.480469 207.960938 C 79.628906 208.183594 79.800781 208.394531 79.992188 208.585938 C 80.183594 208.777344 80.394531 208.949219 80.617188 209.097656 C 80.84375 209.25 81.082031 209.375 81.332031 209.480469 C 81.582031 209.582031 81.84375 209.660156 82.109375 209.714844 C 82.375 209.765625 82.644531 209.792969 82.914062 209.792969 L 142.117188 209.792969 C 142.386719 209.792969 142.65625 209.765625 142.921875 209.714844 C 143.1875 209.660156 143.445312 209.582031 143.695312 209.480469 C 143.949219 209.375 144.183594 209.25 144.410156 209.097656 C 144.636719 208.949219 144.84375 208.777344 145.035156 208.585938 C 145.230469 208.394531 145.398438 208.183594 145.550781 207.960938 C 145.703125 207.734375 145.828125 207.496094 145.933594 207.246094 C 146.035156 206.996094 146.113281 206.738281 146.167969 206.472656 C 146.21875 206.207031 146.246094 205.941406 146.246094 205.667969 L 146.246094 205.609375 C 146.246094 205.335938 146.21875 205.070312 146.167969 204.804688 C 146.113281 204.539062 146.035156 204.28125 145.933594 204.03125 C 145.828125 203.78125 145.703125 203.542969 145.550781 203.316406 C 145.398438 203.09375 145.230469 202.882812 145.035156 202.691406 C 144.84375 202.5 144.636719 202.332031 144.410156 202.179688 C 144.183594 202.03125 143.945312 201.902344 143.695312 201.796875 C 143.445312 201.695312 143.1875 201.617188 142.921875 201.5625 C 142.65625 201.511719 142.386719 201.484375 142.117188 201.484375 Z M 142.117188 201.484375 "/></g><g style="fill:#000000;fill-opacity:1;"><g transform="translate(118.554289, 201.005398)"><path style="stroke:none" d="M -0.0625 -3.265625 L -0.0625 -2.8125 L -1.046875 -2.453125 L -1.015625 -0.90625 L -0.015625 -0.59375 L 0 -0.140625 L -3.65625 -1.328125 L -3.671875 -1.921875 Z M -3.21875 -1.609375 L -1.359375 -1.015625 L -1.390625 -2.3125 L -3.21875 -1.671875 Z M -3.21875 -1.609375 "/></g></g><g style="fill:#000000;fill-opacity:1;"><g transform="translate(118.487173, 197.601167)"><path style="stroke:none" d="M 0.015625 -1.421875 C 0.0234375 -1.203125 -0.0195312 -1.003906 -0.125 -0.828125 C -0.226562 -0.660156 -0.378906 -0.523438 -0.578125 -0.421875 C -0.785156 -0.328125 -1.046875 -0.273438 -1.359375 -0.265625 C -1.671875 -0.265625 -1.9375 -0.3125 -2.15625 -0.40625 C -2.375 -0.5 -2.535156 -0.628906 -2.640625 -0.796875 C -2.742188 -0.972656 -2.800781 -1.175781 -2.8125 -1.40625 C -2.8125 -1.582031 -2.78125 -1.742188 -2.71875 -1.890625 C -2.65625 -2.046875 -2.546875 -2.175781 -2.390625 -2.28125 L -2.40625 -2.34375 L -3.875 -2.3125 L -3.890625 -2.703125 L -0.0625 -2.78125 L -0.046875 -2.390625 L -0.453125 -2.375 L -0.453125 -2.3125 C -0.316406 -2.238281 -0.203125 -2.125 -0.109375 -1.96875 C -0.0234375 -1.8125 0.015625 -1.628906 0.015625 -1.421875 Z M -0.34375 -1.546875 C -0.34375 -1.796875 -0.429688 -1.992188 -0.609375 -2.140625 C -0.785156 -2.296875 -1.050781 -2.367188 -1.40625 -2.359375 C -1.769531 -2.359375 -2.035156 -2.273438 -2.203125 -2.109375 C -2.367188 -1.953125 -2.453125 -1.75 -2.453125 -1.5 C -2.441406 -1.238281 -2.351562 -1.035156 -2.1875 -0.890625 C -2.019531 -0.753906 -1.75 -0.6875 -1.375 -0.6875 C -0.675781 -0.707031 -0.332031 -0.992188 -0.34375 -1.546875 Z M -0.34375 -1.546875 "/></g></g><g style="fill:#000000;fill-opacity:1;"><g transform="translate(118.422841, 194.338156)"><path style="stroke:none" d="M 0.015625 -1.421875 C 0.0234375 -1.203125 -0.0195312 -1.003906 -0.125 -0.828125 C -0.226562 -0.660156 -0.378906 -0.523438 -0.578125 -0.421875 C -0.785156 -0.328125 -1.046875 -0.273438 -1.359375 -0.265625 C -1.671875 -0.265625 -1.9375 -0.3125 -2.15625 -0.40625 C -2.375 -0.5 -2.535156 -0.628906 -2.640625 -0.796875 C -2.742188 -0.972656 -2.800781 -1.175781 -2.8125 -1.40625 C -2.8125 -1.582031 -2.78125 -1.742188 -2.71875 -1.890625 C -2.65625 -2.046875 -2.546875 -2.175781 -2.390625 -2.28125 L -2.40625 -2.34375 L -3.875 -2.3125 L -3.890625 -2.703125 L -0.0625 -2.78125 L -0.046875 -2.390625 L -0.453125 -2.375 L -0.453125 -2.3125 C -0.316406 -2.238281 -0.203125 -2.125 -0.109375 -1.96875 C -0.0234375 -1.8125 0.015625 -1.628906 0.015625 -1.421875 Z M -0.34375 -1.546875 C -0.34375 -1.796875 -0.429688 -1.992188 -0.609375 -2.140625 C -0.785156 -2.296875 -1.050781 -2.367188 -1.40625 -2.359375 C -1.769531 -2.359375 -2.035156 -2.273438 -2.203125 -2.109375 C -2.367188 -1.953125 -2.453125 -1.75 -2.453125 -1.5 C -2.441406 -1.238281 -2.351562 -1.035156 -2.1875 -0.890625 C -2.019531 -0.753906 -1.75 -0.6875 -1.375 -0.6875 C -0.675781 -0.707031 -0.332031 -0.992188 -0.34375 -1.546875 Z M -0.34375 -1.546875 "/></g></g><g style="fill:#000000;fill-opacity:1;"><g transform="translate(118.358509, 191.075146)"><path style="stroke:none" d=""/></g></g><g style="fill:#000000;fill-opacity:1;"><g transform="translate(118.333988, 189.831388)"><path style="stroke:none" d="M 0.03125 -1.125 C 0.03125 -0.851562 -0.0351562 -0.640625 -0.171875 -0.484375 C -0.304688 -0.335938 -0.503906 -0.257812 -0.765625 -0.25 C -0.921875 -0.25 -1.054688 -0.28125 -1.171875 -0.34375 C -1.296875 -0.40625 -1.390625 -0.503906 -1.453125 -0.640625 C -1.523438 -0.785156 -1.585938 -0.972656 -1.640625 -1.203125 C -1.671875 -1.398438 -1.707031 -1.550781 -1.75 -1.65625 C -1.789062 -1.757812 -1.835938 -1.828125 -1.890625 -1.859375 C -1.941406 -1.898438 -2.003906 -1.914062 -2.078125 -1.90625 C -2.203125 -1.90625 -2.296875 -1.859375 -2.359375 -1.765625 C -2.429688 -1.679688 -2.46875 -1.546875 -2.46875 -1.359375 C -2.457031 -1.179688 -2.414062 -1.03125 -2.34375 -0.90625 C -2.28125 -0.78125 -2.179688 -0.664062 -2.046875 -0.5625 L -2.046875 -0.515625 L -2.3125 -0.3125 C -2.46875 -0.425781 -2.585938 -0.566406 -2.671875 -0.734375 C -2.753906 -0.910156 -2.800781 -1.113281 -2.8125 -1.34375 C -2.8125 -1.664062 -2.742188 -1.90625 -2.609375 -2.0625 C -2.472656 -2.21875 -2.28125 -2.296875 -2.03125 -2.296875 L -0.578125 -2.328125 C -0.429688 -2.335938 -0.359375 -2.410156 -0.359375 -2.546875 C -0.359375 -2.585938 -0.363281 -2.628906 -0.375 -2.671875 L -0.375 -2.703125 L -0.09375 -2.75 C -0.0703125 -2.71875 -0.0546875 -2.675781 -0.046875 -2.625 C -0.0351562 -2.582031 -0.03125 -2.535156 -0.03125 -2.484375 C -0.03125 -2.328125 -0.0625 -2.210938 -0.125 -2.140625 C -0.1875 -2.066406 -0.285156 -2.019531 -0.421875 -2 L -0.40625 -1.9375 C -0.257812 -1.863281 -0.148438 -1.757812 -0.078125 -1.625 C -0.015625 -1.488281 0.0195312 -1.320312 0.03125 -1.125 Z M -0.296875 -1.21875 C -0.296875 -1.375 -0.332031 -1.503906 -0.40625 -1.609375 C -0.476562 -1.710938 -0.578125 -1.789062 -0.703125 -1.84375 C -0.828125 -1.90625 -0.972656 -1.9375 -1.140625 -1.9375 L -1.484375 -1.921875 L -1.5 -1.875 C -1.457031 -1.8125 -1.421875 -1.738281 -1.390625 -1.65625 C -1.359375 -1.570312 -1.332031 -1.453125 -1.3125 -1.296875 C -1.28125 -1.128906 -1.242188 -1 -1.203125 -0.90625 C -1.160156 -0.820312 -1.101562 -0.757812 -1.03125 -0.71875 C -0.957031 -0.6875 -0.875 -0.671875 -0.78125 -0.671875 C -0.613281 -0.671875 -0.488281 -0.71875 -0.40625 -0.8125 C -0.320312 -0.914062 -0.285156 -1.050781 -0.296875 -1.21875 Z M -0.296875 -1.21875 "/></g></g><g style="fill:#000000;fill-opacity:1;"><g transform="translate(118.278254, 187.004436)"><path style="stroke:none" d=""/></g></g><g style="fill:#000000;fill-opacity:1;"><g transform="translate(118.253732, 185.760678)"><path style="stroke:none" d="M 0.03125 -1.09375 C 0.03125 -0.894531 -0.0195312 -0.738281 -0.125 -0.625 C -0.238281 -0.519531 -0.40625 -0.460938 -0.625 -0.453125 L -3.84375 -0.390625 L -3.84375 -0.796875 L -0.640625 -0.859375 C -0.535156 -0.859375 -0.457031 -0.878906 -0.40625 -0.921875 C -0.351562 -0.972656 -0.328125 -1.046875 -0.328125 -1.140625 C -0.335938 -1.191406 -0.351562 -1.25 -0.375 -1.3125 L -0.359375 -1.34375 L -0.046875 -1.390625 C -0.0234375 -1.359375 -0.0078125 -1.316406 0 -1.265625 C 0.0195312 -1.210938 0.03125 -1.15625 0.03125 -1.09375 Z M 0.03125 -1.09375 "/></g></g><g style="fill:#000000;fill-opacity:1;"><g transform="translate(118.224424, 184.274114)"><path style="stroke:none" d="M -3.28125 -0.609375 C -3.28125 -0.523438 -3.300781 -0.457031 -3.34375 -0.40625 C -3.394531 -0.351562 -3.460938 -0.328125 -3.546875 -0.328125 C -3.628906 -0.316406 -3.695312 -0.335938 -3.75 -0.390625 C -3.8125 -0.441406 -3.84375 -0.507812 -3.84375 -0.59375 C -3.84375 -0.6875 -3.816406 -0.757812 -3.765625 -0.8125 C -3.710938 -0.863281 -3.644531 -0.894531 -3.5625 -0.90625 C -3.476562 -0.90625 -3.410156 -0.878906 -3.359375 -0.828125 C -3.304688 -0.773438 -3.28125 -0.703125 -3.28125 -0.609375 Z M -0.015625 -0.46875 L -2.75 -0.421875 L -2.75 -0.828125 L -0.015625 -0.875 Z M -0.015625 -0.46875 "/></g></g><g style="fill:#000000;fill-opacity:1;"><g transform="translate(118.197705, 182.918861)"><path style="stroke:none" d="M -0.46875 -1.828125 L -0.1875 -1.984375 C -0.113281 -1.910156 -0.0625 -1.820312 -0.03125 -1.71875 C 0 -1.613281 0.015625 -1.503906 0.015625 -1.390625 C 0.0234375 -0.859375 -0.226562 -0.585938 -0.75 -0.578125 L -2.421875 -0.546875 L -2.40625 -0.078125 L -2.734375 -0.078125 L -2.75 -0.546875 L -3.328125 -0.53125 L -3.390625 -0.9375 L -2.75 -0.953125 L -2.765625 -1.84375 L -2.4375 -1.84375 L -2.421875 -0.953125 L -0.796875 -0.984375 C -0.484375 -0.992188 -0.332031 -1.132812 -0.34375 -1.40625 C -0.34375 -1.5625 -0.382812 -1.6875 -0.46875 -1.78125 Z M -0.46875 -1.828125 "/></g></g><g style="fill:#000000;fill-opacity:1;"><g transform="translate(118.156673, 180.837671)"><path style="stroke:none" d="M -0.46875 -1.828125 L -0.1875 -1.984375 C -0.113281 -1.910156 -0.0625 -1.820312 -0.03125 -1.71875 C 0 -1.613281 0.015625 -1.503906 0.015625 -1.390625 C 0.0234375 -0.859375 -0.226562 -0.585938 -0.75 -0.578125 L -2.421875 -0.546875 L -2.40625 -0.078125 L -2.734375 -0.078125 L -2.75 -0.546875 L -3.328125 -0.53125 L -3.390625 -0.9375 L -2.75 -0.953125 L -2.765625 -1.84375 L -2.4375 -1.84375 L -2.421875 -0.953125 L -0.796875 -0.984375 C -0.484375 -0.992188 -0.332031 -1.132812 -0.34375 -1.40625 C -0.34375 -1.5625 -0.382812 -1.6875 -0.46875 -1.78125 Z M -0.46875 -1.828125 "/></g></g><g style="fill:#000000;fill-opacity:1;"><g transform="translate(118.115642, 178.756482)"><path style="stroke:none" d="M 0.03125 -1.09375 C 0.03125 -0.894531 -0.0195312 -0.738281 -0.125 -0.625 C -0.238281 -0.519531 -0.40625 -0.460938 -0.625 -0.453125 L -3.84375 -0.390625 L -3.84375 -0.796875 L -0.640625 -0.859375 C -0.535156 -0.859375 -0.457031 -0.878906 -0.40625 -0.921875 C -0.351562 -0.972656 -0.328125 -1.046875 -0.328125 -1.140625 C -0.335938 -1.191406 -0.351562 -1.25 -0.375 -1.3125 L -0.359375 -1.34375 L -0.046875 -1.390625 C -0.0234375 -1.359375 -0.0078125 -1.316406 0 -1.265625 C 0.0195312 -1.210938 0.03125 -1.15625 0.03125 -1.09375 Z M 0.03125 -1.09375 "/></g></g><g style="fill:#000000;fill-opacity:1;"><g transform="translate(118.086333, 177.269918)"><path style="stroke:none" d="M -1.328125 -2.578125 L -1.296875 -0.6875 C -0.960938 -0.71875 -0.71875 -0.804688 -0.5625 -0.953125 C -0.40625 -1.109375 -0.332031 -1.316406 -0.34375 -1.578125 C -0.34375 -1.765625 -0.378906 -1.914062 -0.453125 -2.03125 C -0.523438 -2.144531 -0.632812 -2.238281 -0.78125 -2.3125 L -0.78125 -2.359375 L -0.625 -2.625 C -0.425781 -2.550781 -0.269531 -2.425781 -0.15625 -2.25 C -0.0507812 -2.082031 0.00390625 -1.859375 0.015625 -1.578125 C 0.0234375 -1.304688 -0.0195312 -1.078125 -0.125 -0.890625 C -0.226562 -0.703125 -0.378906 -0.550781 -0.578125 -0.4375 C -0.785156 -0.332031 -1.046875 -0.273438 -1.359375 -0.265625 C -1.671875 -0.265625 -1.9375 -0.316406 -2.15625 -0.421875 C -2.375 -0.523438 -2.535156 -0.664062 -2.640625 -0.84375 C -2.742188 -1.03125 -2.800781 -1.242188 -2.8125 -1.484375 C -2.820312 -1.835938 -2.726562 -2.113281 -2.53125 -2.3125 C -2.332031 -2.519531 -2.039062 -2.628906 -1.65625 -2.640625 C -1.507812 -2.640625 -1.40625 -2.632812 -1.34375 -2.625 Z M -1.65625 -2.234375 C -1.945312 -2.222656 -2.15625 -2.15625 -2.28125 -2.03125 C -2.40625 -1.90625 -2.46875 -1.726562 -2.46875 -1.5 C -2.457031 -1.257812 -2.382812 -1.070312 -2.25 -0.9375 C -2.125 -0.800781 -1.914062 -0.722656 -1.625 -0.703125 Z M -1.65625 -2.234375 "/></g></g><g style="fill:#000000;fill-opacity:1;"><g transform="translate(118.028889, 174.356253)"><path style="stroke:none" d=""/></g></g><g style="fill:#000000;fill-opacity:1;"><g transform="translate(118.004368, 173.112495)"><path style="stroke:none" d="M 0.015625 -1.8125 C 0.015625 -1.613281 -0.0195312 -1.4375 -0.09375 -1.28125 C -0.164062 -1.132812 -0.265625 -1.019531 -0.390625 -0.9375 L -0.375 -0.875 L -0.015625 -0.875 L -0.015625 -0.46875 L -3.84375 -0.390625 L -3.84375 -0.796875 L -2.34375 -0.828125 L -2.328125 -0.890625 C -2.648438 -1.085938 -2.8125 -1.382812 -2.8125 -1.78125 C -2.820312 -2 -2.773438 -2.195312 -2.671875 -2.375 C -2.566406 -2.550781 -2.410156 -2.6875 -2.203125 -2.78125 C -2.003906 -2.882812 -1.742188 -2.9375 -1.421875 -2.9375 C -1.117188 -2.945312 -0.859375 -2.90625 -0.640625 -2.8125 C -0.421875 -2.71875 -0.257812 -2.582031 -0.15625 -2.40625 C -0.0507812 -2.238281 0.00390625 -2.039062 0.015625 -1.8125 Z M -0.34375 -1.71875 C -0.351562 -2.269531 -0.707031 -2.535156 -1.40625 -2.515625 C -1.78125 -2.515625 -2.050781 -2.4375 -2.21875 -2.28125 C -2.382812 -2.132812 -2.460938 -1.929688 -2.453125 -1.671875 C -2.453125 -1.421875 -2.363281 -1.21875 -2.1875 -1.0625 C -2.007812 -0.914062 -1.738281 -0.84375 -1.375 -0.84375 C -1.019531 -0.851562 -0.757812 -0.9375 -0.59375 -1.09375 C -0.425781 -1.257812 -0.34375 -1.46875 -0.34375 -1.71875 Z M -0.34375 -1.71875 "/></g></g><g style="fill:#000000;fill-opacity:1;"><g transform="translate(117.940085, 169.851965)"><path style="stroke:none" d="M -3.28125 -0.609375 C -3.28125 -0.523438 -3.300781 -0.457031 -3.34375 -0.40625 C -3.394531 -0.351562 -3.460938 -0.328125 -3.546875 -0.328125 C -3.628906 -0.316406 -3.695312 -0.335938 -3.75 -0.390625 C -3.8125 -0.441406 -3.84375 -0.507812 -3.84375 -0.59375 C -3.84375 -0.6875 -3.816406 -0.757812 -3.765625 -0.8125 C -3.710938 -0.863281 -3.644531 -0.894531 -3.5625 -0.90625 C -3.476562 -0.90625 -3.410156 -0.878906 -3.359375 -0.828125 C -3.304688 -0.773438 -3.28125 -0.703125 -3.28125 -0.609375 Z M -0.015625 -0.46875 L -2.75 -0.421875 L -2.75 -0.828125 L -0.015625 -0.875 Z M -0.015625 -0.46875 "/></g></g><g style="fill:#000000;fill-opacity:1;"><g transform="translate(117.913366, 168.496712)"><path style="stroke:none" d="M -0.46875 -1.828125 L -0.1875 -1.984375 C -0.113281 -1.910156 -0.0625 -1.820312 -0.03125 -1.71875 C 0 -1.613281 0.015625 -1.503906 0.015625 -1.390625 C 0.0234375 -0.859375 -0.226562 -0.585938 -0.75 -0.578125 L -2.421875 -0.546875 L -2.40625 -0.078125 L -2.734375 -0.078125 L -2.75 -0.546875 L -3.328125 -0.53125 L -3.390625 -0.9375 L -2.75 -0.953125 L -2.765625 -1.84375 L -2.4375 -1.84375 L -2.421875 -0.953125 L -0.796875 -0.984375 C -0.484375 -0.992188 -0.332031 -1.132812 -0.34375 -1.40625 C -0.34375 -1.5625 -0.382812 -1.6875 -0.46875 -1.78125 Z M -0.46875 -1.828125 "/></g></g><g style="fill:#000000;fill-opacity:1;"><g transform="translate(117.872334, 166.415523)"><path style="stroke:none" d=""/></g></g><g style="fill:#000000;fill-opacity:1;"><g transform="translate(117.847813, 165.171764)"><path style="stroke:none" d="M 0.015625 -1.5625 C 0.0234375 -1.3125 -0.0195312 -1.085938 -0.125 -0.890625 C -0.238281 -0.703125 -0.394531 -0.550781 -0.59375 -0.4375 C -0.800781 -0.332031 -1.054688 -0.273438 -1.359375 -0.265625 C -1.660156 -0.265625 -1.921875 -0.3125 -2.140625 -0.40625 C -2.359375 -0.507812 -2.519531 -0.65625 -2.625 -0.84375 C -2.738281 -1.03125 -2.800781 -1.25 -2.8125 -1.5 C -2.8125 -1.757812 -2.757812 -1.988281 -2.65625 -2.1875 C -2.550781 -2.382812 -2.394531 -2.535156 -2.1875 -2.640625 C -1.976562 -2.753906 -1.722656 -2.8125 -1.421875 -2.8125 C -1.117188 -2.820312 -0.859375 -2.773438 -0.640625 -2.671875 C -0.429688 -2.578125 -0.269531 -2.429688 -0.15625 -2.234375 C -0.0390625 -2.046875 0.015625 -1.820312 0.015625 -1.5625 Z M -0.34375 -1.5625 C -0.351562 -1.84375 -0.441406 -2.050781 -0.609375 -2.1875 C -0.785156 -2.320312 -1.050781 -2.382812 -1.40625 -2.375 C -1.769531 -2.375 -2.035156 -2.300781 -2.203125 -2.15625 C -2.378906 -2.007812 -2.460938 -1.796875 -2.453125 -1.515625 C -2.441406 -1.242188 -2.347656 -1.035156 -2.171875 -0.890625 C -2.003906 -0.753906 -1.738281 -0.6875 -1.375 -0.6875 C -1.019531 -0.695312 -0.753906 -0.773438 -0.578125 -0.921875 C -0.410156 -1.078125 -0.332031 -1.289062 -0.34375 -1.5625 Z M -0.34375 -1.5625 "/></g></g><g style="fill:#000000;fill-opacity:1;"><g transform="translate(117.785973, 162.035115)"><path style="stroke:none" d="M -0.015625 -0.609375 L -2.421875 -0.5625 L -2.40625 -0.09375 L -2.734375 -0.09375 L -2.75 -0.5625 C -2.875 -0.519531 -2.988281 -0.5 -3.09375 -0.5 C -3.269531 -0.5 -3.414062 -0.535156 -3.53125 -0.609375 C -3.65625 -0.679688 -3.75 -0.78125 -3.8125 -0.90625 C -3.875 -1.039062 -3.910156 -1.195312 -3.921875 -1.375 C -3.921875 -1.644531 -3.863281 -1.851562 -3.75 -2 L -3.453125 -1.859375 L -3.453125 -1.8125 C -3.535156 -1.707031 -3.578125 -1.566406 -3.578125 -1.390625 C -3.578125 -1.234375 -3.53125 -1.113281 -3.4375 -1.03125 C -3.351562 -0.945312 -3.234375 -0.90625 -3.078125 -0.90625 C -2.984375 -0.90625 -2.875 -0.925781 -2.75 -0.96875 L -2.765625 -1.84375 L -2.4375 -1.84375 L -2.421875 -0.96875 L -0.015625 -1.015625 Z M -0.015625 -0.609375 "/></g></g><g style="fill:#000000;fill-opacity:1;"><g transform="translate(117.747579, 160.087716)"><path style="stroke:none" d=""/></g></g><g style="fill:#000000;fill-opacity:1;"><g transform="translate(117.723058, 158.843958)"><path style="stroke:none" d="M 0.015625 -1.8125 C 0.015625 -1.613281 -0.0195312 -1.4375 -0.09375 -1.28125 C -0.164062 -1.132812 -0.265625 -1.019531 -0.390625 -0.9375 L -0.375 -0.875 L -0.015625 -0.875 L -0.015625 -0.46875 L -3.84375 -0.390625 L -3.84375 -0.796875 L -2.34375 -0.828125 L -2.328125 -0.890625 C -2.648438 -1.085938 -2.8125 -1.382812 -2.8125 -1.78125 C -2.820312 -2 -2.773438 -2.195312 -2.671875 -2.375 C -2.566406 -2.550781 -2.410156 -2.6875 -2.203125 -2.78125 C -2.003906 -2.882812 -1.742188 -2.9375 -1.421875 -2.9375 C -1.117188 -2.945312 -0.859375 -2.90625 -0.640625 -2.8125 C -0.421875 -2.71875 -0.257812 -2.582031 -0.15625 -2.40625 C -0.0507812 -2.238281 0.00390625 -2.039062 0.015625 -1.8125 Z M -0.34375 -1.71875 C -0.351562 -2.269531 -0.707031 -2.535156 -1.40625 -2.515625 C -1.78125 -2.515625 -2.050781 -2.4375 -2.21875 -2.28125 C -2.382812 -2.132812 -2.460938 -1.929688 -2.453125 -1.671875 C -2.453125 -1.421875 -2.363281 -1.21875 -2.1875 -1.0625 C -2.007812 -0.914062 -1.738281 -0.84375 -1.375 -0.84375 C -1.019531 -0.851562 -0.757812 -0.9375 -0.59375 -1.09375 C -0.425781 -1.257812 -0.34375 -1.46875 -0.34375 -1.71875 Z M -0.34375 -1.71875 "/></g></g><g style="fill:#000000;fill-opacity:1;"><g transform="translate(117.658775, 155.583428)"><path style="stroke:none" d="M 0.015625 -1.5625 C 0.0234375 -1.3125 -0.0195312 -1.085938 -0.125 -0.890625 C -0.238281 -0.703125 -0.394531 -0.550781 -0.59375 -0.4375 C -0.800781 -0.332031 -1.054688 -0.273438 -1.359375 -0.265625 C -1.660156 -0.265625 -1.921875 -0.3125 -2.140625 -0.40625 C -2.359375 -0.507812 -2.519531 -0.65625 -2.625 -0.84375 C -2.738281 -1.03125 -2.800781 -1.25 -2.8125 -1.5 C -2.8125 -1.757812 -2.757812 -1.988281 -2.65625 -2.1875 C -2.550781 -2.382812 -2.394531 -2.535156 -2.1875 -2.640625 C -1.976562 -2.753906 -1.722656 -2.8125 -1.421875 -2.8125 C -1.117188 -2.820312 -0.859375 -2.773438 -0.640625 -2.671875 C -0.429688 -2.578125 -0.269531 -2.429688 -0.15625 -2.234375 C -0.0390625 -2.046875 0.015625 -1.820312 0.015625 -1.5625 Z M -0.34375 -1.5625 C -0.351562 -1.84375 -0.441406 -2.050781 -0.609375 -2.1875 C -0.785156 -2.320312 -1.050781 -2.382812 -1.40625 -2.375 C -1.769531 -2.375 -2.035156 -2.300781 -2.203125 -2.15625 C -2.378906 -2.007812 -2.460938 -1.796875 -2.453125 -1.515625 C -2.441406 -1.242188 -2.347656 -1.035156 -2.171875 -0.890625 C -2.003906 -0.753906 -1.738281 -0.6875 -1.375 -0.6875 C -1.019531 -0.695312 -0.753906 -0.773438 -0.578125 -0.921875 C -0.410156 -1.078125 -0.332031 -1.289062 -0.34375 -1.5625 Z M -0.34375 -1.5625 "/></g></g><g style="fill:#000000;fill-opacity:1;"><g transform="translate(117.596935, 152.446779)"><path style="stroke:none" d="M 0.015625 -1.421875 C 0.0234375 -1.203125 -0.0195312 -1.003906 -0.125 -0.828125 C -0.226562 -0.660156 -0.378906 -0.523438 -0.578125 -0.421875 C -0.785156 -0.328125 -1.046875 -0.273438 -1.359375 -0.265625 C -1.671875 -0.265625 -1.9375 -0.3125 -2.15625 -0.40625 C -2.375 -0.5 -2.535156 -0.628906 -2.640625 -0.796875 C -2.742188 -0.972656 -2.800781 -1.175781 -2.8125 -1.40625 C -2.8125 -1.582031 -2.78125 -1.742188 -2.71875 -1.890625 C -2.65625 -2.046875 -2.546875 -2.175781 -2.390625 -2.28125 L -2.40625 -2.34375 L -3.875 -2.3125 L -3.890625 -2.703125 L -0.0625 -2.78125 L -0.046875 -2.390625 L -0.453125 -2.375 L -0.453125 -2.3125 C -0.316406 -2.238281 -0.203125 -2.125 -0.109375 -1.96875 C -0.0234375 -1.8125 0.015625 -1.628906 0.015625 -1.421875 Z M -0.34375 -1.546875 C -0.34375 -1.796875 -0.429688 -1.992188 -0.609375 -2.140625 C -0.785156 -2.296875 -1.050781 -2.367188 -1.40625 -2.359375 C -1.769531 -2.359375 -2.035156 -2.273438 -2.203125 -2.109375 C -2.367188 -1.953125 -2.453125 -1.75 -2.453125 -1.5 C -2.441406 -1.238281 -2.351562 -1.035156 -2.1875 -0.890625 C -2.019531 -0.753906 -1.75 -0.6875 -1.375 -0.6875 C -0.675781 -0.707031 -0.332031 -0.992188 -0.34375 -1.546875 Z M -0.34375 -1.546875 "/></g></g><g style="fill:#000000;fill-opacity:1;"><g transform="translate(117.532603, 149.183768)"><path style="stroke:none" d="M 1.140625 -0.5625 C 1.140625 -0.46875 1.132812 -0.378906 1.125 -0.296875 C 1.113281 -0.222656 1.097656 -0.15625 1.078125 -0.09375 L 0.75 -0.171875 L 0.734375 -0.21875 C 0.753906 -0.257812 0.769531 -0.304688 0.78125 -0.359375 C 0.789062 -0.421875 0.796875 -0.484375 0.796875 -0.546875 C 0.796875 -0.660156 0.78125 -0.753906 0.75 -0.828125 C 0.71875 -0.898438 0.664062 -0.960938 0.59375 -1.015625 C 0.53125 -1.066406 0.4375 -1.109375 0.3125 -1.140625 L 0.03125 -1.234375 L -2.734375 -0.09375 L -2.75 -0.53125 L -0.53125 -1.421875 L -0.53125 -1.46875 L -2.78125 -2.265625 L -2.78125 -2.6875 L 0.390625 -1.515625 C 0.566406 -1.453125 0.710938 -1.375 0.828125 -1.28125 C 0.941406 -1.195312 1.019531 -1.097656 1.0625 -0.984375 C 1.113281 -0.867188 1.140625 -0.726562 1.140625 -0.5625 Z M 1.140625 -0.5625 "/></g></g><g style="fill:#000000;fill-opacity:1;"><g transform="translate(117.475794, 146.302309)"><path style="stroke:none" d=""/></g></g><g style="fill:#000000;fill-opacity:1;"><g transform="translate(117.451273, 145.058551)"><path style="stroke:none" d="M -0.46875 -1.828125 L -0.1875 -1.984375 C -0.113281 -1.910156 -0.0625 -1.820312 -0.03125 -1.71875 C 0 -1.613281 0.015625 -1.503906 0.015625 -1.390625 C 0.0234375 -0.859375 -0.226562 -0.585938 -0.75 -0.578125 L -2.421875 -0.546875 L -2.40625 -0.078125 L -2.734375 -0.078125 L -2.75 -0.546875 L -3.328125 -0.53125 L -3.390625 -0.9375 L -2.75 -0.953125 L -2.765625 -1.84375 L -2.4375 -1.84375 L -2.421875 -0.953125 L -0.796875 -0.984375 C -0.484375 -0.992188 -0.332031 -1.132812 -0.34375 -1.40625 C -0.34375 -1.5625 -0.382812 -1.6875 -0.46875 -1.78125 Z M -0.46875 -1.828125 "/></g></g><g style="fill:#000000;fill-opacity:1;"><g transform="translate(117.410876, 143.009574)"><path style="stroke:none" d="M -1.328125 -2.578125 L -1.296875 -0.6875 C -0.960938 -0.71875 -0.71875 -0.804688 -0.5625 -0.953125 C -0.40625 -1.109375 -0.332031 -1.316406 -0.34375 -1.578125 C -0.34375 -1.765625 -0.378906 -1.914062 -0.453125 -2.03125 C -0.523438 -2.144531 -0.632812 -2.238281 -0.78125 -2.3125 L -0.78125 -2.359375 L -0.625 -2.625 C -0.425781 -2.550781 -0.269531 -2.425781 -0.15625 -2.25 C -0.0507812 -2.082031 0.00390625 -1.859375 0.015625 -1.578125 C 0.0234375 -1.304688 -0.0195312 -1.078125 -0.125 -0.890625 C -0.226562 -0.703125 -0.378906 -0.550781 -0.578125 -0.4375 C -0.785156 -0.332031 -1.046875 -0.273438 -1.359375 -0.265625 C -1.671875 -0.265625 -1.9375 -0.316406 -2.15625 -0.421875 C -2.375 -0.523438 -2.535156 -0.664062 -2.640625 -0.84375 C -2.742188 -1.03125 -2.800781 -1.242188 -2.8125 -1.484375 C -2.820312 -1.835938 -2.726562 -2.113281 -2.53125 -2.3125 C -2.332031 -2.519531 -2.039062 -2.628906 -1.65625 -2.640625 C -1.507812 -2.640625 -1.40625 -2.632812 -1.34375 -2.625 Z M -1.65625 -2.234375 C -1.945312 -2.222656 -2.15625 -2.15625 -2.28125 -2.03125 C -2.40625 -1.90625 -2.46875 -1.726562 -2.46875 -1.5 C -2.457031 -1.257812 -2.382812 -1.070312 -2.25 -0.9375 C -2.125 -0.800781 -1.914062 -0.722656 -1.625 -0.703125 Z M -1.65625 -2.234375 "/></g></g><g style="fill:#000000;fill-opacity:1;"><g transform="translate(117.354263, 140.138037)"><path style="stroke:none" d="M -0.015625 -0.5625 L 0 -0.125 L -1.4375 -0.9375 L -2.734375 -0.125 L -2.75 -0.578125 L -1.71875 -1.21875 L -1.71875 -1.28125 L -2.765625 -1.90625 L -2.78125 -2.34375 L -1.453125 -1.5625 L -0.046875 -2.421875 L -0.03125 -1.96875 L -1.1875 -1.28125 L -1.1875 -1.21875 Z M -0.015625 -0.5625 "/></g></g><g style="fill:#000000;fill-opacity:1;"><g transform="translate(117.304048, 137.591057)"><path style="stroke:none" d="M -0.46875 -1.828125 L -0.1875 -1.984375 C -0.113281 -1.910156 -0.0625 -1.820312 -0.03125 -1.71875 C 0 -1.613281 0.015625 -1.503906 0.015625 -1.390625 C 0.0234375 -0.859375 -0.226562 -0.585938 -0.75 -0.578125 L -2.421875 -0.546875 L -2.40625 -0.078125 L -2.734375 -0.078125 L -2.75 -0.546875 L -3.328125 -0.53125 L -3.390625 -0.9375 L -2.75 -0.953125 L -2.765625 -1.84375 L -2.4375 -1.84375 L -2.421875 -0.953125 L -0.796875 -0.984375 C -0.484375 -0.992188 -0.332031 -1.132812 -0.34375 -1.40625 C -0.34375 -1.5625 -0.382812 -1.6875 -0.46875 -1.78125 Z M -0.46875 -1.828125 "/></g></g></g></svg>